G04*
G04 #@! TF.GenerationSoftware,Altium Limited,Altium Designer,20.0.13 (296)*
G04*
G04 Layer_Color=255*
%FSLAX25Y25*%
%MOIN*%
G70*
G01*
G75*
%ADD24R,0.03500X0.03000*%
%ADD76R,0.05906X0.05906*%
%ADD77C,0.05906*%
%ADD78R,0.05906X0.05906*%
%ADD79R,0.03937X0.03000*%
%ADD80C,0.19685*%
%ADD81O,0.08000X0.18000*%
%ADD82O,0.18000X0.08000*%
%ADD84R,0.10000X0.10000*%
%ADD85O,0.06500X0.15000*%
G04:AMPARAMS|DCode=86|XSize=150mil|YSize=65mil|CornerRadius=0mil|HoleSize=0mil|Usage=FLASHONLY|Rotation=90.000|XOffset=0mil|YOffset=0mil|HoleType=Round|Shape=Octagon|*
%AMOCTAGOND86*
4,1,8,0.01625,0.07500,-0.01625,0.07500,-0.03250,0.05875,-0.03250,-0.05875,-0.01625,-0.07500,0.01625,-0.07500,0.03250,-0.05875,0.03250,0.05875,0.01625,0.07500,0.0*
%
%ADD86OCTAGOND86*%

%ADD88R,0.03937X0.03937*%
D24*
X251600Y353500D02*
D03*
X258500D02*
D03*
D76*
X233000D02*
D03*
X235000Y365500D02*
D03*
X327500Y364500D02*
D03*
X270000Y248000D02*
D03*
D77*
X243000Y353500D02*
D03*
X233500Y341000D02*
D03*
Y331000D02*
D03*
Y321000D02*
D03*
X295000Y365500D02*
D03*
X285000D02*
D03*
X275000D02*
D03*
X265000D02*
D03*
X245000D02*
D03*
X255000D02*
D03*
X317500Y364500D02*
D03*
X307500D02*
D03*
X163000Y244000D02*
D03*
X260000Y248000D02*
D03*
X173000Y360000D02*
D03*
D78*
X233500Y311000D02*
D03*
X163000Y254000D02*
D03*
X173000Y350000D02*
D03*
D79*
X341500Y306118D02*
D03*
X294256D02*
D03*
D80*
X360500Y356500D02*
D03*
X216000Y244500D02*
D03*
D81*
X144409Y301000D02*
D03*
X120000D02*
D03*
D82*
X132205Y281315D02*
D03*
D84*
X172647Y293994D02*
D03*
X205147D02*
D03*
X270147D02*
D03*
X237647D02*
D03*
D85*
X172647Y269994D02*
D03*
X162647D02*
D03*
X205147D02*
D03*
X195147D02*
D03*
X270147D02*
D03*
X260147D02*
D03*
X237647D02*
D03*
X227647D02*
D03*
D86*
X182647D02*
D03*
X215147D02*
D03*
X280147D02*
D03*
X247647D02*
D03*
D88*
X333626Y306118D02*
D03*
X302130D02*
D03*
X317878D02*
D03*
Y251000D02*
D03*
X325752D02*
D03*
X333626D02*
D03*
X341500D02*
D03*
X310004D02*
D03*
X302130D02*
D03*
X294256D02*
D03*
X286382D02*
D03*
X325752Y306118D02*
D03*
X310004D02*
D03*
X286382D02*
D03*
M02*
