G04*
G04 #@! TF.GenerationSoftware,Altium Limited,Altium Designer,20.0.13 (296)*
G04*
G04 Layer_Physical_Order=1*
G04 Layer_Color=255*
%FSLAX25Y25*%
%MOIN*%
G70*
G01*
G75*
%ADD12C,0.00787*%
%ADD14C,0.01000*%
%ADD21O,0.01100X0.07087*%
%ADD22O,0.07087X0.01100*%
%ADD23R,0.04000X0.03150*%
%ADD24R,0.03500X0.03000*%
%ADD25R,0.03000X0.03500*%
%ADD26R,0.06000X0.06000*%
%ADD27R,0.07087X0.04331*%
%ADD28R,0.04331X0.10236*%
%ADD29R,0.01968X0.04724*%
%ADD30R,0.06890X0.08661*%
%ADD31R,0.03150X0.04000*%
G04:AMPARAMS|DCode=32|XSize=50mil|YSize=35mil|CornerRadius=0mil|HoleSize=0mil|Usage=FLASHONLY|Rotation=270.000|XOffset=0mil|YOffset=0mil|HoleType=Round|Shape=Octagon|*
%AMOCTAGOND32*
4,1,8,-0.00875,-0.02500,0.00875,-0.02500,0.01750,-0.01625,0.01750,0.01625,0.00875,0.02500,-0.00875,0.02500,-0.01750,0.01625,-0.01750,-0.01625,-0.00875,-0.02500,0.0*
%
%ADD32OCTAGOND32*%

%ADD33R,0.03500X0.05000*%
%ADD34R,0.05118X0.04331*%
%ADD35R,0.09843X0.05906*%
%ADD36R,0.24500X0.23000*%
%ADD37R,0.11000X0.06000*%
%ADD38R,0.11500X0.06000*%
%ADD39O,0.14961X0.05118*%
%ADD40R,0.14961X0.05118*%
G04:AMPARAMS|DCode=41|XSize=43.31mil|YSize=17.72mil|CornerRadius=2.22mil|HoleSize=0mil|Usage=FLASHONLY|Rotation=180.000|XOffset=0mil|YOffset=0mil|HoleType=Round|Shape=RoundedRectangle|*
%AMROUNDEDRECTD41*
21,1,0.04331,0.01329,0,0,180.0*
21,1,0.03888,0.01772,0,0,180.0*
1,1,0.00443,-0.01944,0.00664*
1,1,0.00443,0.01944,0.00664*
1,1,0.00443,0.01944,-0.00664*
1,1,0.00443,-0.01944,-0.00664*
%
%ADD41ROUNDEDRECTD41*%
%ADD42R,0.07874X0.07874*%
%ADD72C,0.02362*%
%ADD73C,0.01181*%
%ADD74C,0.01575*%
%ADD75C,0.07874*%
%ADD76R,0.05906X0.05906*%
%ADD77C,0.05906*%
%ADD78R,0.05906X0.05906*%
%ADD79R,0.03937X0.03000*%
%ADD80C,0.19685*%
%ADD81O,0.08000X0.18000*%
%ADD82O,0.18000X0.08000*%
%ADD83C,0.02362*%
G36*
X179463Y364765D02*
X173000D01*
X171767Y364603D01*
X170617Y364127D01*
X169631Y363369D01*
X168873Y362383D01*
X168397Y361233D01*
X168235Y360000D01*
X168397Y358767D01*
X168873Y357617D01*
X169631Y356630D01*
X170617Y355873D01*
X170787Y355803D01*
X170688Y355303D01*
X166380D01*
X166262Y355279D01*
X166142Y355267D01*
X165959Y355210D01*
X165621Y355427D01*
X165501Y355554D01*
X165493Y355572D01*
X165354Y356268D01*
X164919Y356919D01*
X164268Y357354D01*
X163500Y357507D01*
X162732Y357354D01*
X162081Y356919D01*
X161646Y356268D01*
X161493Y355500D01*
X161549Y355220D01*
X161124Y354794D01*
X161013Y354806D01*
X161011Y354809D01*
X160930Y354930D01*
X160920Y354937D01*
X160913Y354946D01*
X160803Y355016D01*
Y358138D01*
X165937D01*
Y362862D01*
X164756D01*
Y367485D01*
X165665Y368394D01*
X179463D01*
Y364765D01*
D02*
G37*
G36*
X160000Y354500D02*
X160363Y354362D01*
Y349638D01*
X165937D01*
Y354362D01*
X166380Y354500D01*
X178500D01*
Y344000D01*
X173500D01*
Y336000D01*
X171668D01*
X171553Y336171D01*
X171219Y336394D01*
X170826Y336473D01*
X166938D01*
X166544Y336394D01*
X166211Y336171D01*
X166096Y336000D01*
X165500D01*
Y338500D01*
X156298D01*
X155768Y338854D01*
X155000Y339007D01*
X154232Y338854D01*
X153702Y338500D01*
X151000D01*
Y291500D01*
X133000D01*
Y349000D01*
X151000D01*
Y365000D01*
X160000D01*
Y354500D01*
D02*
G37*
G36*
X373768Y371874D02*
X374572Y371768D01*
X375321Y371458D01*
X375964Y370964D01*
X376458Y370321D01*
X376768Y369572D01*
X376874Y368768D01*
X376876D01*
Y311624D01*
X350500D01*
X350070Y311538D01*
X349705Y311295D01*
X349462Y310930D01*
X349376Y310500D01*
Y254380D01*
X348914Y254189D01*
X301028Y302075D01*
X301235Y302575D01*
X305083D01*
Y314386D01*
X299177D01*
Y302804D01*
X297209D01*
Y314386D01*
X291303D01*
Y302804D01*
X289335D01*
Y314386D01*
X288243D01*
X288051Y314848D01*
X290915Y317712D01*
X295084D01*
X296748Y316049D01*
X296748Y316049D01*
X297139Y315787D01*
X297599Y315696D01*
X297599Y315696D01*
X310400D01*
X310400Y315696D01*
X310505Y315717D01*
X310613Y315715D01*
X310734Y315762D01*
X310861Y315787D01*
X310950Y315847D01*
X311050Y315886D01*
X311144Y315976D01*
X311251Y316049D01*
X312351Y317148D01*
X312351Y317148D01*
X312613Y317539D01*
X312704Y318000D01*
Y318104D01*
X313736Y319586D01*
X314213Y319436D01*
Y319138D01*
X319787D01*
Y320606D01*
X319851Y320649D01*
X321051Y321848D01*
X321513Y321656D01*
Y319138D01*
X324548D01*
Y314386D01*
X322799D01*
Y302575D01*
X328705D01*
Y314386D01*
X326956D01*
Y319138D01*
X327087D01*
Y321656D01*
X327549Y321848D01*
X328748Y320649D01*
X328748Y320649D01*
X329139Y320387D01*
X329600Y320296D01*
X330913D01*
Y319138D01*
X336487D01*
Y323862D01*
X330913D01*
Y322704D01*
X330099D01*
X327252Y325552D01*
X326861Y325813D01*
X326400Y325904D01*
X326400Y325904D01*
X322200D01*
X321739Y325813D01*
X321349Y325552D01*
X321349Y325552D01*
X319659Y323862D01*
X314213D01*
Y322704D01*
X313600D01*
X313600Y322704D01*
X313495Y322683D01*
X313387Y322685D01*
X313266Y322638D01*
X313139Y322613D01*
X313050Y322553D01*
X312950Y322514D01*
X312856Y322424D01*
X312749Y322352D01*
X310648Y320251D01*
X310387Y319861D01*
X310296Y319400D01*
X310296Y319400D01*
Y318859D01*
X309771Y318104D01*
X303004D01*
Y334649D01*
X316551Y348196D01*
X320000D01*
X320000Y348196D01*
X320461Y348287D01*
X320851Y348549D01*
X323451Y351149D01*
X323451Y351149D01*
X323713Y351539D01*
X323742Y351688D01*
X323828Y352007D01*
X324268Y352138D01*
X329437D01*
Y356862D01*
X327854D01*
Y358501D01*
X328351Y358998D01*
X328613Y359389D01*
X328704Y359850D01*
Y360760D01*
X331240D01*
Y368240D01*
X323760D01*
Y360760D01*
X326081D01*
X326207Y360260D01*
X325799Y359852D01*
X325537Y359461D01*
X325446Y359000D01*
X325446Y359000D01*
Y356862D01*
X323941D01*
X322652Y358152D01*
X322261Y358413D01*
X321800Y358504D01*
X321800Y358504D01*
X311814D01*
X311607Y359004D01*
X312699Y360096D01*
X314300D01*
X314300Y360096D01*
X314761Y360187D01*
X315152Y360449D01*
X315842Y361139D01*
X316524Y360856D01*
X317500Y360728D01*
X318476Y360856D01*
X319386Y361233D01*
X320167Y361832D01*
X320767Y362614D01*
X321144Y363524D01*
X321272Y364500D01*
X321144Y365476D01*
X320767Y366386D01*
X320167Y367167D01*
X319386Y367767D01*
X318476Y368144D01*
X317500Y368272D01*
X316524Y368144D01*
X315614Y367767D01*
X314832Y367167D01*
X314233Y366386D01*
X313856Y365476D01*
X313728Y364500D01*
X313856Y363524D01*
X314139Y362842D01*
X313801Y362504D01*
X312200D01*
X312200Y362504D01*
X311739Y362413D01*
X311349Y362152D01*
X307648Y358452D01*
X307387Y358061D01*
X307296Y357600D01*
X307296Y357600D01*
Y351700D01*
X307387Y351239D01*
X307648Y350849D01*
X308039Y350587D01*
X308500Y350496D01*
X312564D01*
X312756Y350034D01*
X297495Y334773D01*
X283987D01*
X283664Y334989D01*
X283203Y335081D01*
X283203Y335081D01*
X280550D01*
X280208Y335581D01*
X280260Y335845D01*
X280156Y336367D01*
X279861Y336809D01*
X279418Y337105D01*
X278896Y337208D01*
X272910D01*
X272388Y337105D01*
X272128Y336931D01*
X271974Y336940D01*
X271600Y337039D01*
X271529Y337086D01*
X271352Y337351D01*
X269238Y339465D01*
X268847Y339726D01*
X268386Y339818D01*
X268386Y339818D01*
X262730D01*
X262381Y340222D01*
X262477Y340652D01*
X262547Y340696D01*
X262811Y340643D01*
X263333Y340747D01*
X263775Y341042D01*
X263815D01*
X264258Y340747D01*
X264780Y340643D01*
X265301Y340747D01*
X265356Y340783D01*
X265764Y341030D01*
X266172Y340783D01*
X266226Y340747D01*
X266748Y340643D01*
X267270Y340747D01*
X267324Y340783D01*
X267732Y341030D01*
X268140Y340783D01*
X268195Y340747D01*
X268717Y340643D01*
X269238Y340747D01*
X269293Y340783D01*
X269701Y341030D01*
X270109Y340783D01*
X270163Y340747D01*
X270685Y340643D01*
X271207Y340747D01*
X271421Y340890D01*
X271456Y340914D01*
X271817Y340553D01*
X271793Y340518D01*
X271650Y340304D01*
X271546Y339782D01*
X271650Y339260D01*
X271946Y338818D01*
X272388Y338522D01*
X272910Y338418D01*
X278896D01*
X279418Y338522D01*
X279502Y338578D01*
X282200D01*
X282200Y338578D01*
X282661Y338669D01*
X283051Y338930D01*
X284984Y340863D01*
X287787D01*
Y345937D01*
X287492D01*
X287224Y346437D01*
X287354Y346632D01*
X287507Y347400D01*
X287354Y348168D01*
X286919Y348819D01*
X286268Y349254D01*
X285500Y349407D01*
X284732Y349254D01*
X284081Y348819D01*
X283646Y348168D01*
X283493Y347400D01*
X283646Y346632D01*
X283776Y346437D01*
X283508Y345937D01*
X283213D01*
Y342497D01*
X281701Y340986D01*
X279502D01*
X279418Y341042D01*
X279234Y341078D01*
X278804Y341479D01*
X278804Y341479D01*
Y349213D01*
X280137D01*
Y353787D01*
X275063D01*
Y349213D01*
X276396D01*
Y341977D01*
X275564Y341145D01*
X272910D01*
X272388Y341042D01*
X272174Y340898D01*
X272139Y340875D01*
X271778Y341235D01*
X271802Y341271D01*
X271945Y341485D01*
X272049Y342007D01*
Y347993D01*
X271945Y348515D01*
X271889Y348598D01*
Y352686D01*
X273499Y354296D01*
X289500D01*
X289500Y354296D01*
X289961Y354387D01*
X290352Y354648D01*
X295851Y360149D01*
X295851Y360149D01*
X296113Y360539D01*
X296204Y361000D01*
Y361950D01*
X296886Y362233D01*
X297668Y362832D01*
X298267Y363614D01*
X298644Y364524D01*
X298772Y365500D01*
X298644Y366476D01*
X298267Y367386D01*
X297668Y368167D01*
X296886Y368767D01*
X295976Y369144D01*
X295000Y369272D01*
X294024Y369144D01*
X293114Y368767D01*
X292333Y368167D01*
X291733Y367386D01*
X291356Y366476D01*
X291228Y365500D01*
X291356Y364524D01*
X291733Y363614D01*
X292333Y362832D01*
X293114Y362233D01*
X293737Y361975D01*
X293786Y361489D01*
X289001Y356704D01*
X282114D01*
X281907Y357204D01*
X285218Y360515D01*
X285479Y360905D01*
X285570Y361366D01*
X285675Y361816D01*
X285976Y361856D01*
X286886Y362233D01*
X287667Y362832D01*
X288267Y363614D01*
X288644Y364524D01*
X288772Y365500D01*
X288644Y366476D01*
X288267Y367386D01*
X287667Y368167D01*
X286886Y368767D01*
X285976Y369144D01*
X285000Y369272D01*
X284024Y369144D01*
X283114Y368767D01*
X282332Y368167D01*
X281733Y367386D01*
X281356Y366476D01*
X281228Y365500D01*
X281356Y364524D01*
X281733Y363614D01*
X282332Y362832D01*
X283019Y362306D01*
X283059Y361833D01*
X283048Y361751D01*
X280251Y358954D01*
X270364D01*
X270192Y359229D01*
X270146Y359443D01*
X273013Y362310D01*
X273114Y362233D01*
X274024Y361856D01*
X275000Y361728D01*
X275976Y361856D01*
X276886Y362233D01*
X277667Y362832D01*
X278267Y363614D01*
X278644Y364524D01*
X278772Y365500D01*
X278644Y366476D01*
X278267Y367386D01*
X277667Y368167D01*
X276886Y368767D01*
X275976Y369144D01*
X275000Y369272D01*
X274024Y369144D01*
X273114Y368767D01*
X272333Y368167D01*
X271733Y367386D01*
X271356Y366476D01*
X271228Y365500D01*
X271356Y364524D01*
X271492Y364195D01*
X266506Y359209D01*
X266044Y359400D01*
Y361884D01*
X266886Y362233D01*
X267668Y362832D01*
X268267Y363614D01*
X268644Y364524D01*
X268772Y365500D01*
X268644Y366476D01*
X268267Y367386D01*
X267668Y368167D01*
X266886Y368767D01*
X265976Y369144D01*
X265000Y369272D01*
X264024Y369144D01*
X263114Y368767D01*
X262333Y368167D01*
X261733Y367386D01*
X261356Y366476D01*
X261228Y365500D01*
X261356Y364524D01*
X261733Y363614D01*
X262333Y362832D01*
X263114Y362233D01*
X263635Y362017D01*
Y359221D01*
X263173Y359030D01*
X258361Y363842D01*
X258644Y364524D01*
X258772Y365500D01*
X258644Y366476D01*
X258267Y367386D01*
X257667Y368167D01*
X256886Y368767D01*
X255976Y369144D01*
X255000Y369272D01*
X254024Y369144D01*
X253114Y368767D01*
X252332Y368167D01*
X251733Y367386D01*
X251356Y366476D01*
X251228Y365500D01*
X251356Y364524D01*
X251733Y363614D01*
X252332Y362832D01*
X253114Y362233D01*
X254024Y361856D01*
X255000Y361728D01*
X255976Y361856D01*
X256658Y362139D01*
X261607Y357190D01*
Y353250D01*
X261145Y353058D01*
X259852Y354351D01*
X259461Y354613D01*
X259000Y354704D01*
X259000Y354704D01*
X246550D01*
X246267Y355386D01*
X245668Y356168D01*
X244886Y356767D01*
X243976Y357144D01*
X243000Y357272D01*
X242024Y357144D01*
X241114Y356767D01*
X240333Y356168D01*
X239733Y355386D01*
X239356Y354476D01*
X239228Y353500D01*
X239356Y352524D01*
X239733Y351614D01*
X240150Y351070D01*
X239903Y350570D01*
X237633D01*
X236740Y351463D01*
Y357240D01*
X229260D01*
Y349760D01*
X235037D01*
X236282Y348515D01*
X236282Y348515D01*
X236673Y348254D01*
X237134Y348162D01*
X237134Y348162D01*
X244920D01*
X245203Y347817D01*
X245203Y347817D01*
Y343919D01*
X244001Y342717D01*
X239147D01*
X239147Y342717D01*
X238686Y342626D01*
X238295Y342365D01*
X238295Y342365D01*
X237632Y341702D01*
X237159Y341862D01*
X237144Y341976D01*
X236767Y342886D01*
X236168Y343668D01*
X235386Y344267D01*
X234476Y344644D01*
X233500Y344772D01*
X232524Y344644D01*
X231614Y344267D01*
X230833Y343668D01*
X230233Y342886D01*
X229856Y341976D01*
X229728Y341000D01*
X229856Y340024D01*
X230233Y339114D01*
X230833Y338333D01*
X231390Y337905D01*
X231220Y337405D01*
X229500D01*
X228962Y337298D01*
X228507Y336993D01*
X225658Y334145D01*
X218622D01*
X218084Y334038D01*
X217629Y333734D01*
X216044Y332150D01*
X214488D01*
Y325850D01*
X214855D01*
Y322862D01*
X213563D01*
Y318138D01*
X219137D01*
Y322862D01*
X217665D01*
Y325850D01*
X218031D01*
Y330163D01*
X219204Y331335D01*
X226240D01*
X226778Y331442D01*
X227234Y331747D01*
X230082Y334595D01*
X230973D01*
X231287Y334123D01*
X231232Y333974D01*
X230833Y333667D01*
X230233Y332886D01*
X229856Y331976D01*
X229728Y331000D01*
X229856Y330024D01*
X230233Y329114D01*
X230833Y328332D01*
X231614Y327733D01*
X232524Y327356D01*
X233500Y327228D01*
X234476Y327356D01*
X235278Y327688D01*
X235561Y327264D01*
X233534Y325237D01*
X233273Y324847D01*
X233252Y324740D01*
X232524Y324644D01*
X231614Y324267D01*
X230833Y323668D01*
X230233Y322886D01*
X229856Y321976D01*
X229728Y321000D01*
X229856Y320024D01*
X230233Y319114D01*
X230833Y318333D01*
X231614Y317733D01*
X232524Y317356D01*
X233500Y317228D01*
X234476Y317356D01*
X235386Y317733D01*
X236168Y318333D01*
X236767Y319114D01*
X237144Y320024D01*
X237272Y321000D01*
X237144Y321976D01*
X236767Y322886D01*
X236168Y323668D01*
X236017Y323783D01*
X235985Y324282D01*
X239100Y327397D01*
X239680Y327270D01*
X239856Y327007D01*
X240298Y326711D01*
X240820Y326607D01*
X246807D01*
X247328Y326711D01*
X247412Y326767D01*
X249000D01*
X249000Y326767D01*
X249461Y326858D01*
X249851Y327119D01*
X250173Y327440D01*
X250661Y327222D01*
X250783Y326607D01*
X251219Y325956D01*
X251545Y325738D01*
X251393Y325238D01*
X247412D01*
X247328Y325294D01*
X246807Y325397D01*
X240820D01*
X240298Y325294D01*
X239856Y324998D01*
X239560Y324556D01*
X239457Y324034D01*
X239560Y323512D01*
X239597Y323458D01*
X239844Y323050D01*
X239597Y322641D01*
X239560Y322587D01*
X239457Y322065D01*
X239560Y321544D01*
X239856Y321101D01*
X240298Y320806D01*
X240820Y320702D01*
X246807D01*
X247328Y320806D01*
X247412Y320861D01*
X264336D01*
X266143Y319054D01*
X266093Y318800D01*
X266246Y318032D01*
X266455Y317719D01*
X266226Y317163D01*
X266225Y317163D01*
X266172Y317127D01*
X265764Y316880D01*
X265356Y317127D01*
X265301Y317163D01*
X264780Y317267D01*
X264258Y317163D01*
X263815Y316868D01*
X263520Y316425D01*
X263416Y315903D01*
Y309917D01*
X263520Y309395D01*
X263575Y309312D01*
Y308763D01*
X263360Y308619D01*
X262920D01*
X262719Y308919D01*
X262073Y309351D01*
X262102Y309395D01*
X262206Y309917D01*
Y315903D01*
X262102Y316425D01*
X261807Y316868D01*
X261364Y317163D01*
X260843Y317267D01*
X260321Y317163D01*
X260266Y317127D01*
X259858Y316880D01*
X259450Y317127D01*
X259396Y317163D01*
X258874Y317267D01*
X258352Y317163D01*
X258298Y317127D01*
X257890Y316880D01*
X257482Y317127D01*
X257427Y317163D01*
X256906Y317267D01*
X256384Y317163D01*
X256329Y317127D01*
X255921Y316880D01*
X255513Y317127D01*
X255459Y317163D01*
X254937Y317267D01*
X254415Y317163D01*
X254361Y317127D01*
X253953Y316880D01*
X253545Y317127D01*
X253490Y317163D01*
X252969Y317267D01*
X252447Y317163D01*
X252392Y317127D01*
X251984Y316880D01*
X251576Y317127D01*
X251522Y317163D01*
X251000Y317267D01*
X250478Y317163D01*
X250147Y317543D01*
X250144Y317558D01*
X249883Y317948D01*
X249883Y317948D01*
X248851Y318980D01*
X248461Y319241D01*
X248000Y319333D01*
X248000Y319333D01*
X247412D01*
X247328Y319388D01*
X246807Y319492D01*
X240820D01*
X240298Y319388D01*
X239856Y319093D01*
X239560Y318650D01*
X239457Y318128D01*
X239560Y317607D01*
X239856Y317164D01*
X240298Y316869D01*
X240820Y316765D01*
X241696D01*
Y313961D01*
X241234Y313769D01*
X238951Y316052D01*
X238561Y316313D01*
X238100Y316404D01*
X238100Y316404D01*
X229700D01*
X229239Y316313D01*
X228849Y316052D01*
X228048Y315251D01*
X227787Y314861D01*
X227696Y314400D01*
X227696Y314400D01*
Y310317D01*
X227587Y309862D01*
X222013D01*
Y305823D01*
X221513Y305616D01*
X220287Y306841D01*
Y309862D01*
X214713D01*
Y308704D01*
X209937D01*
Y309787D01*
X204863D01*
Y305213D01*
X209937D01*
Y306296D01*
X214713D01*
Y305138D01*
X218584D01*
X226268Y297454D01*
Y297059D01*
X226268Y297059D01*
X226291Y296942D01*
Y290760D01*
X230796D01*
Y288000D01*
X230796Y288000D01*
X230887Y287539D01*
X231149Y287148D01*
X235349Y282948D01*
X235349Y282948D01*
X235739Y282687D01*
X236200Y282596D01*
X236200Y282596D01*
X260800D01*
X260800Y282596D01*
X261261Y282687D01*
X261651Y282948D01*
X263646Y284943D01*
X263900Y284893D01*
X264668Y285046D01*
X265319Y285481D01*
X265754Y286132D01*
X265907Y286900D01*
X265754Y287668D01*
X265319Y288319D01*
X264668Y288754D01*
X263900Y288907D01*
X263132Y288754D01*
X262481Y288319D01*
X262046Y287668D01*
X261893Y286900D01*
X261943Y286646D01*
X260301Y285004D01*
X236699D01*
X233204Y288499D01*
Y290760D01*
X237709D01*
Y298240D01*
X228620D01*
X228585Y298414D01*
X228324Y298804D01*
X222491Y304638D01*
X222698Y305138D01*
X227587D01*
Y306373D01*
X227661Y306387D01*
X228051Y306648D01*
X229751Y308348D01*
X229751Y308348D01*
X230013Y308739D01*
X230104Y309200D01*
Y313901D01*
X230199Y313996D01*
X237601D01*
X241696Y309901D01*
Y304287D01*
X240363D01*
Y299713D01*
X245437D01*
Y304287D01*
X244104D01*
Y310400D01*
X244104Y310400D01*
X244104Y310400D01*
Y316765D01*
X246807D01*
X247328Y316869D01*
X247412Y316924D01*
X247501D01*
X247827Y316598D01*
Y316509D01*
X247772Y316425D01*
X247668Y315903D01*
Y309917D01*
X247772Y309395D01*
X247827Y309312D01*
Y308068D01*
X247827Y308068D01*
X247919Y307608D01*
X248180Y307217D01*
X248443Y306954D01*
X248393Y306700D01*
X248546Y305932D01*
X248981Y305281D01*
X249632Y304846D01*
X250400Y304693D01*
X251168Y304846D01*
X251819Y305281D01*
X252254Y305932D01*
X252407Y306700D01*
X252254Y307468D01*
X251834Y308098D01*
X251823Y308159D01*
X251874Y308643D01*
X252191Y308815D01*
X252392Y308694D01*
X252447Y308657D01*
X252969Y308553D01*
X253490Y308657D01*
X253545Y308693D01*
X253953Y308941D01*
X254361Y308693D01*
X254415Y308657D01*
X254937Y308553D01*
X255201Y308606D01*
X255701Y308264D01*
Y300111D01*
X253144Y297553D01*
X248153D01*
Y295804D01*
X245787D01*
Y296437D01*
X241213D01*
Y291363D01*
X245787D01*
Y293396D01*
X248153D01*
Y291647D01*
X254847D01*
Y295850D01*
X257757Y298760D01*
X257757Y298760D01*
X258018Y299151D01*
X258097Y299547D01*
X264546D01*
Y300796D01*
X267713D01*
Y299463D01*
X272287D01*
Y304537D01*
X267713D01*
Y303204D01*
X264546D01*
Y305002D01*
X264780Y305193D01*
X265548Y305346D01*
X266199Y305781D01*
X266634Y306432D01*
X266787Y307200D01*
X266634Y307968D01*
X266558Y308081D01*
X266644Y308295D01*
X266833Y308570D01*
X267270Y308657D01*
X267324Y308694D01*
X267732Y308941D01*
X268140Y308694D01*
X268195Y308657D01*
X268717Y308553D01*
X269238Y308657D01*
X269293Y308693D01*
X269701Y308941D01*
X270109Y308693D01*
X270163Y308657D01*
X270685Y308553D01*
X271207Y308657D01*
X271649Y308953D01*
X271945Y309395D01*
X272049Y309917D01*
Y315903D01*
X271945Y316425D01*
X271778Y316675D01*
X272139Y317035D01*
X272388Y316869D01*
X272910Y316765D01*
X278896D01*
X278996Y316785D01*
X279496Y316374D01*
Y310699D01*
X274149Y305351D01*
X273887Y304961D01*
X273796Y304500D01*
X273796Y304500D01*
Y280099D01*
X251901Y258204D01*
X211879D01*
X211680Y258667D01*
X211686Y258704D01*
X212052Y258948D01*
X215251Y262148D01*
X215251Y262148D01*
X215513Y262539D01*
X215604Y263000D01*
Y299400D01*
X215513Y299861D01*
X215251Y300252D01*
X215251Y300252D01*
X212906Y302597D01*
X212907Y302600D01*
X212754Y303368D01*
X212319Y304019D01*
X211668Y304454D01*
X210900Y304607D01*
X210132Y304454D01*
X209481Y304019D01*
X209046Y303368D01*
X208893Y302600D01*
X209046Y301832D01*
X209481Y301181D01*
X210132Y300746D01*
X210900Y300593D01*
X211404Y300693D01*
X213196Y298901D01*
Y263499D01*
X210701Y261004D01*
X194800D01*
X194339Y260913D01*
X193948Y260651D01*
X193687Y260261D01*
X193596Y259800D01*
Y247157D01*
X193596Y247157D01*
X193687Y246696D01*
X193948Y246305D01*
X194087Y246166D01*
X193896Y245704D01*
X189899D01*
X188704Y246899D01*
Y276370D01*
X192074D01*
X192074Y276370D01*
X192535Y276462D01*
X192926Y276723D01*
X195651Y279449D01*
X195913Y279839D01*
X196004Y280300D01*
Y287835D01*
X196490Y288159D01*
X196925Y288811D01*
X197077Y289579D01*
X196925Y290347D01*
X196490Y290998D01*
X195838Y291433D01*
X195070Y291586D01*
X194302Y291433D01*
X193651Y290998D01*
X193216Y290347D01*
X193063Y289579D01*
X193216Y288811D01*
X193596Y288242D01*
Y280799D01*
X192803Y280006D01*
X192303Y280213D01*
Y293000D01*
X192242Y293307D01*
X192068Y293568D01*
X191807Y293742D01*
X191500Y293803D01*
X185905D01*
Y303418D01*
X195584Y313097D01*
X195611Y313138D01*
X198787D01*
Y317862D01*
X196905D01*
Y320213D01*
X198037D01*
Y324787D01*
X192963D01*
Y320213D01*
X194095D01*
Y317862D01*
X193213D01*
Y314700D01*
X191987Y313474D01*
X191487Y313681D01*
Y317862D01*
X190105D01*
Y320213D01*
X191137D01*
Y324787D01*
X190105D01*
Y328138D01*
X191487D01*
Y332862D01*
X187287D01*
X186878Y333362D01*
X186905Y333500D01*
Y334343D01*
X188199Y335638D01*
X191787D01*
Y340362D01*
X186213D01*
Y337625D01*
X184506Y335919D01*
X184202Y335463D01*
X184095Y334925D01*
Y334082D01*
X183638Y333625D01*
X181770D01*
X181456Y333835D01*
X181062Y333913D01*
X177174D01*
X176781Y333835D01*
X176447Y333612D01*
X176224Y333278D01*
X176146Y332885D01*
Y331556D01*
X176224Y331162D01*
X176372Y330941D01*
X176224Y330719D01*
X176146Y330326D01*
Y328997D01*
X176224Y328603D01*
X176447Y328270D01*
X176781Y328047D01*
X177174Y327968D01*
X181062D01*
X181456Y328047D01*
X181770Y328256D01*
X185913D01*
Y328138D01*
X187295D01*
Y324787D01*
X186063D01*
Y320213D01*
X187295D01*
Y317862D01*
X185913D01*
Y313138D01*
X190944D01*
X191151Y312638D01*
X183507Y304993D01*
X183202Y304538D01*
X183095Y304000D01*
Y293803D01*
X172724D01*
Y294224D01*
X163276D01*
Y293803D01*
X159000D01*
X158693Y293742D01*
X158432Y293568D01*
X158258Y293307D01*
X158197Y293000D01*
Y259303D01*
X133004D01*
Y262401D01*
X155951Y285349D01*
X155951Y285349D01*
X156213Y285739D01*
X156304Y286200D01*
X156304Y286200D01*
Y291637D01*
X156519Y291781D01*
X156954Y292432D01*
X157107Y293200D01*
X156954Y293968D01*
X156519Y294619D01*
X155868Y295054D01*
X155100Y295207D01*
X154332Y295054D01*
X153681Y294619D01*
X153246Y293968D01*
X153093Y293200D01*
X153246Y292432D01*
X153681Y291781D01*
X153896Y291637D01*
Y286699D01*
X130948Y263752D01*
X130687Y263361D01*
X130596Y262900D01*
X130596Y262900D01*
Y240000D01*
X130596Y240000D01*
X130687Y239539D01*
X130948Y239148D01*
X136449Y233648D01*
X136449Y233648D01*
X136839Y233387D01*
X137300Y233296D01*
X160601D01*
X165245Y228652D01*
X165539Y228294D01*
X165539D01*
X165539Y228294D01*
Y223719D01*
X170614D01*
Y224796D01*
X182682D01*
Y223638D01*
X184265D01*
Y221253D01*
X184265Y221253D01*
X184357Y220792D01*
X184618Y220402D01*
X184618Y220402D01*
X187893Y217126D01*
Y214059D01*
X187893Y214059D01*
X187916Y213942D01*
Y207760D01*
X199334D01*
Y215240D01*
X190302D01*
Y217625D01*
X190302Y217625D01*
X190210Y218086D01*
X189949Y218477D01*
X189949Y218477D01*
X186674Y221752D01*
Y223638D01*
X187968D01*
X187987Y223539D01*
X188249Y223148D01*
X189049Y222348D01*
X189439Y222087D01*
X189900Y221996D01*
X202000D01*
X202000Y221996D01*
X202461Y222087D01*
X202852Y222348D01*
X208199Y227696D01*
X214616D01*
Y223719D01*
X219691D01*
Y224802D01*
X231759D01*
Y223638D01*
X235631D01*
X243046Y216223D01*
Y215240D01*
X238541D01*
Y207760D01*
X247803D01*
X247995Y207298D01*
X247601Y206904D01*
X155199D01*
X150404Y211699D01*
Y215700D01*
X150404Y215700D01*
X150313Y216161D01*
X150051Y216551D01*
X146704Y219899D01*
Y226000D01*
X146613Y226461D01*
X146480Y226659D01*
Y228362D01*
X140905D01*
Y224323D01*
X140405Y224116D01*
X139704Y224817D01*
Y226000D01*
X139613Y226461D01*
X139351Y226852D01*
X139180Y226966D01*
Y228362D01*
X133605D01*
Y227211D01*
X121537D01*
Y228294D01*
X116463D01*
Y223719D01*
X121537D01*
Y224802D01*
X133605D01*
Y223638D01*
X137296D01*
Y219163D01*
X137081Y219019D01*
X136646Y218368D01*
X136493Y217600D01*
X136646Y216832D01*
X137081Y216181D01*
X137732Y215746D01*
X137760Y215740D01*
X137711Y215240D01*
X137291D01*
Y207760D01*
X148709D01*
Y209335D01*
X149171Y209526D01*
X153849Y204849D01*
X153849Y204849D01*
X154239Y204587D01*
X154700Y204496D01*
X248100D01*
X248100Y204496D01*
X248561Y204587D01*
X248952Y204849D01*
X250893Y206790D01*
X253849Y203834D01*
X253849Y203834D01*
X254239Y203573D01*
X254700Y203482D01*
X254700Y203482D01*
X281520D01*
X281520Y203482D01*
X281981Y203573D01*
X282371Y203834D01*
X284699Y206162D01*
X288225D01*
X288377Y205662D01*
X288313Y205619D01*
X287878Y204968D01*
X287725Y204200D01*
X287878Y203432D01*
X288313Y202781D01*
X288964Y202346D01*
X289732Y202193D01*
X290500Y202346D01*
X291152Y202781D01*
X291295Y202996D01*
X356800D01*
X356800Y202996D01*
X357261Y203087D01*
X357651Y203348D01*
X360377Y206074D01*
X360469Y206212D01*
X360794D01*
X362063Y207481D01*
Y211518D01*
X360869Y212712D01*
X360975Y213212D01*
X362063D01*
Y219787D01*
X360730D01*
Y223063D01*
X361862D01*
Y228637D01*
X357138D01*
Y223063D01*
X358321D01*
Y219787D01*
X356988D01*
Y213212D01*
X358076D01*
X358182Y212712D01*
X356988Y211518D01*
Y207481D01*
X357683Y206786D01*
X356301Y205404D01*
X317479D01*
X317280Y205867D01*
X317286Y205904D01*
X317652Y206149D01*
X318551Y207049D01*
X318551Y207049D01*
X318813Y207439D01*
X318904Y207900D01*
Y215700D01*
X318813Y216161D01*
X318551Y216551D01*
X318551Y216551D01*
X315150Y219953D01*
X315399Y220411D01*
X316075Y220546D01*
X316726Y220981D01*
X317161Y221632D01*
X317314Y222400D01*
X317161Y223168D01*
X317088Y223278D01*
X317324Y223719D01*
X317845D01*
Y224802D01*
X329913D01*
Y223638D01*
X333784D01*
X339768Y217654D01*
Y214059D01*
X339768Y214059D01*
X339791Y213942D01*
Y207760D01*
X351209D01*
Y215240D01*
X342177D01*
Y218152D01*
X342177Y218153D01*
X342085Y218613D01*
X341824Y219004D01*
X341824Y219004D01*
X337690Y223138D01*
X337897Y223638D01*
X342787D01*
Y224796D01*
X349700D01*
X349700Y224796D01*
X350161Y224887D01*
X350552Y225149D01*
X356676Y231273D01*
X357138Y231082D01*
Y230363D01*
X361862D01*
Y231946D01*
X367138D01*
Y230363D01*
X371296D01*
Y228637D01*
X367138D01*
Y223063D01*
X368321D01*
Y219787D01*
X366988D01*
Y213212D01*
X368076D01*
X368182Y212712D01*
X366988Y211518D01*
Y207481D01*
X368257Y206212D01*
X370794D01*
X372063Y207481D01*
Y208389D01*
X372451Y208648D01*
X373352Y209548D01*
X373352Y209548D01*
X373613Y209939D01*
X373704Y210400D01*
X373704Y210400D01*
Y236600D01*
X373613Y237061D01*
X373352Y237452D01*
X372961Y237713D01*
X372500Y237804D01*
X350799D01*
X349804Y238799D01*
Y245083D01*
X350304Y245415D01*
X350500Y245376D01*
X376876D01*
Y199732D01*
X376874D01*
X376768Y198928D01*
X376458Y198179D01*
X375964Y197536D01*
X375321Y197042D01*
X374572Y196732D01*
X373768Y196626D01*
Y196624D01*
X104232D01*
Y196626D01*
X103428Y196732D01*
X102679Y197042D01*
X102036Y197536D01*
X101542Y198179D01*
X101232Y198928D01*
X101126Y199732D01*
X101124D01*
Y368768D01*
X101126D01*
X101232Y369572D01*
X101542Y370321D01*
X102036Y370964D01*
X102679Y371458D01*
X103428Y371768D01*
X104232Y371874D01*
Y371876D01*
X164073D01*
X164225Y371376D01*
X163865Y371135D01*
X163865Y371135D01*
X162015Y369285D01*
X161667Y368764D01*
X161544Y368150D01*
X161544Y368150D01*
Y362862D01*
X160803D01*
Y365000D01*
X160742Y365307D01*
X160568Y365568D01*
X160307Y365742D01*
X160000Y365803D01*
X151000D01*
X150693Y365742D01*
X150432Y365568D01*
X150258Y365307D01*
X150197Y365000D01*
Y349803D01*
X133000D01*
X132693Y349742D01*
X132432Y349568D01*
X132258Y349307D01*
X132197Y349000D01*
Y291500D01*
X132258Y291193D01*
X132432Y290932D01*
X132693Y290758D01*
X133000Y290697D01*
X151000D01*
X151307Y290758D01*
X151568Y290932D01*
X151742Y291193D01*
X151803Y291500D01*
Y337697D01*
X152737D01*
X153055Y337311D01*
X152993Y337000D01*
X152819Y336787D01*
X152563D01*
Y332213D01*
X157637D01*
X157697Y331737D01*
Y313500D01*
X157758Y313193D01*
X157932Y312932D01*
X158193Y312758D01*
X158500Y312697D01*
X173000D01*
X173307Y312758D01*
X173568Y312932D01*
X173742Y313193D01*
X173803Y313500D01*
Y326000D01*
X173742Y326307D01*
X173568Y326568D01*
X173307Y326742D01*
X173000Y326803D01*
X165303D01*
Y332697D01*
X165909D01*
Y331556D01*
X165988Y331162D01*
X166136Y330941D01*
X165988Y330719D01*
X165909Y330326D01*
Y328997D01*
X165988Y328603D01*
X166211Y328270D01*
X166544Y328047D01*
X166938Y327968D01*
X168925D01*
X168980Y327957D01*
X171765D01*
X172232Y327646D01*
X173000Y327493D01*
X173768Y327646D01*
X174419Y328081D01*
X174854Y328732D01*
X175007Y329500D01*
X174854Y330268D01*
X174419Y330919D01*
X174301Y331574D01*
X174514Y331891D01*
X174667Y332659D01*
X174514Y333428D01*
X174079Y334079D01*
X173427Y334514D01*
X173306Y334538D01*
X173251Y334697D01*
X173391Y334979D01*
X173600Y335217D01*
X173807Y335258D01*
X174068Y335432D01*
X174242Y335693D01*
X174303Y336000D01*
Y343197D01*
X178500D01*
X178807Y343258D01*
X179068Y343432D01*
X179242Y343693D01*
X179262Y343796D01*
X179463Y344213D01*
X205537D01*
Y368394D01*
X206335D01*
X208394Y366335D01*
Y349500D01*
X208394Y349500D01*
X208517Y348885D01*
X208865Y348365D01*
X210820Y346409D01*
X211341Y346061D01*
X211955Y345939D01*
X211955Y345939D01*
X214475D01*
Y343757D01*
X218595D01*
Y341150D01*
X218228D01*
Y334850D01*
X221772D01*
Y341150D01*
X221405D01*
Y343757D01*
X227550D01*
Y351332D01*
X214475D01*
Y349150D01*
X212620D01*
X211606Y350165D01*
Y367000D01*
X211606Y367000D01*
X211483Y367615D01*
X211135Y368135D01*
X208135Y371135D01*
X207775Y371376D01*
X207927Y371876D01*
X373768D01*
Y371874D01*
D02*
G37*
G36*
X300596Y333815D02*
Y318104D01*
X298098D01*
X296787Y319415D01*
Y325287D01*
X289212D01*
Y319415D01*
X285530Y315733D01*
X285269Y315342D01*
X285178Y314882D01*
X285178Y314882D01*
Y314386D01*
X283429D01*
Y304636D01*
X282929Y304302D01*
X282400Y304407D01*
X281632Y304254D01*
X280981Y303819D01*
X280546Y303168D01*
X280393Y302400D01*
X280533Y301697D01*
X280453Y301459D01*
X280313Y301197D01*
X276204D01*
Y304001D01*
X281552Y309349D01*
X281552Y309349D01*
X281813Y309739D01*
X281904Y310200D01*
X281904Y310200D01*
Y323200D01*
X281813Y323661D01*
X281552Y324051D01*
X280718Y324885D01*
X280470Y325051D01*
X280156Y325481D01*
X280260Y326002D01*
X280156Y326524D01*
X280120Y326578D01*
X279873Y326987D01*
X280120Y327395D01*
X280156Y327449D01*
X280260Y327971D01*
X280156Y328493D01*
X280120Y328547D01*
X279873Y328955D01*
X280120Y329363D01*
X280156Y329418D01*
X280260Y329939D01*
X280156Y330461D01*
X280120Y330516D01*
X279873Y330924D01*
X280120Y331332D01*
X280156Y331386D01*
X280260Y331908D01*
X280207Y332172D01*
X280550Y332672D01*
X282727D01*
X283050Y332456D01*
X283511Y332365D01*
X283511Y332365D01*
X297994D01*
X297994Y332365D01*
X298455Y332456D01*
X298845Y332717D01*
X300134Y334006D01*
X300596Y333815D01*
D02*
G37*
G36*
X260648Y336149D02*
X260648Y336149D01*
X261039Y335887D01*
X261500Y335796D01*
X265750D01*
X265993Y335500D01*
X266146Y334732D01*
X266581Y334081D01*
X267232Y333646D01*
X268000Y333493D01*
X268146Y333522D01*
X268428Y333240D01*
X268503Y333083D01*
X268646Y332367D01*
X269081Y331716D01*
X269189Y331644D01*
X269037Y331144D01*
X264258D01*
X263941Y331530D01*
X264007Y331862D01*
X263854Y332630D01*
X263419Y333281D01*
X262768Y333717D01*
X262000Y333869D01*
X261362Y333742D01*
X261216Y334472D01*
X260781Y335123D01*
X260130Y335558D01*
X259362Y335711D01*
X259360Y335711D01*
X258935Y336136D01*
X259007Y336500D01*
X258862Y337228D01*
X258885Y337257D01*
X259423Y337374D01*
X260648Y336149D01*
D02*
G37*
G36*
X164697Y336000D02*
X164758Y335693D01*
X164932Y335432D01*
X165193Y335258D01*
X165500Y335197D01*
X166096D01*
X166174Y335213D01*
X166253D01*
X166326Y335243D01*
X166403Y335258D01*
X166469Y335302D01*
X166542Y335332D01*
X166598Y335388D01*
X166664Y335432D01*
X166708Y335498D01*
X166764Y335554D01*
X166789Y335593D01*
X166858Y335638D01*
X166917Y335650D01*
X166938Y335646D01*
X170826D01*
X170847Y335650D01*
X170906Y335638D01*
X170974Y335593D01*
X171000Y335554D01*
X171056Y335498D01*
X171100Y335432D01*
X171166Y335388D01*
X171221Y335332D01*
X171294Y335302D01*
X171360Y335258D01*
X171438Y335243D01*
X171511Y335213D01*
X171956Y335015D01*
X171991Y334534D01*
X171891Y334514D01*
X171240Y334079D01*
X171137Y333925D01*
X168980D01*
X168924Y333913D01*
X166938D01*
X166544Y333835D01*
X166211Y333612D01*
X166136Y333500D01*
X164500D01*
Y326000D01*
X173000D01*
Y313500D01*
X158500D01*
Y336500D01*
X164697D01*
Y336000D01*
D02*
G37*
G36*
X276146Y257818D02*
Y255921D01*
X278511D01*
X278718Y255421D01*
X275060Y251763D01*
X272559D01*
X272443Y251740D01*
X266260D01*
Y244260D01*
X273740D01*
Y249355D01*
X275559D01*
X275559Y249355D01*
X276020Y249446D01*
X276411Y249708D01*
X280499Y253796D01*
X291303D01*
Y242732D01*
X293052D01*
Y238862D01*
X290213D01*
Y234138D01*
X295787D01*
Y238862D01*
X295460D01*
Y242732D01*
X297209D01*
Y253796D01*
X299177D01*
Y242732D01*
X305083D01*
Y253796D01*
X307051D01*
Y242732D01*
X308800D01*
Y238362D01*
X307363D01*
Y236187D01*
X306863Y236035D01*
X306852Y236052D01*
X306051Y236852D01*
X305661Y237113D01*
X305637Y237117D01*
Y238362D01*
X300063D01*
Y233638D01*
X301889D01*
X301948Y233548D01*
X303149Y232348D01*
X303149Y232348D01*
X303539Y232087D01*
X304000Y231996D01*
X304000Y231996D01*
X306701D01*
X311096Y227601D01*
Y221100D01*
X311096Y221100D01*
X311187Y220639D01*
X311449Y220249D01*
X316496Y215201D01*
Y208399D01*
X316301Y208204D01*
X306699D01*
X306404Y208499D01*
Y218400D01*
X306404Y218400D01*
X306313Y218861D01*
X306051Y219251D01*
X306051Y219251D01*
X301852Y223451D01*
X301852Y223451D01*
X298451Y226852D01*
X298061Y227113D01*
X297600Y227204D01*
X297600Y227204D01*
X293711D01*
Y228362D01*
X289745D01*
X289551Y228651D01*
X286551Y231651D01*
X286161Y231913D01*
X285700Y232004D01*
X285700Y232004D01*
X269299D01*
X265504Y235799D01*
Y253901D01*
X269299Y257696D01*
X272337D01*
X272481Y257481D01*
X273132Y257046D01*
X273900Y256893D01*
X274668Y257046D01*
X275319Y257481D01*
X275646Y257969D01*
X276146Y257818D01*
D02*
G37*
G36*
X191500Y280000D02*
X184500D01*
Y248500D01*
X133004D01*
Y258500D01*
X159000D01*
Y293000D01*
X191500D01*
Y280000D01*
D02*
G37*
G36*
X187157Y278697D02*
X187105Y278687D01*
X186715Y278426D01*
X186648Y278360D01*
X186387Y277969D01*
X186296Y277508D01*
X186296Y277508D01*
Y246400D01*
X186296Y246400D01*
X186387Y245939D01*
X186648Y245549D01*
X188549Y243649D01*
X188549Y243649D01*
X188939Y243387D01*
X189400Y243296D01*
X189400Y243296D01*
X192228D01*
Y242507D01*
X182732D01*
Y245563D01*
X174268D01*
Y242452D01*
X168345D01*
X166769Y244029D01*
X166644Y244976D01*
X166267Y245886D01*
X165667Y246668D01*
X164977Y247197D01*
X165043Y247569D01*
X165109Y247697D01*
X184500D01*
X184807Y247758D01*
X185068Y247932D01*
X185242Y248193D01*
X185303Y248500D01*
Y279197D01*
X187107D01*
X187157Y278697D01*
D02*
G37*
G36*
X207449Y232804D02*
X207242Y232304D01*
X201800D01*
X201800Y232304D01*
X201339Y232213D01*
X200949Y231951D01*
X196201Y227204D01*
X195557D01*
Y228362D01*
X190304D01*
Y230001D01*
X197352Y237049D01*
X197613Y237439D01*
X197704Y237900D01*
X197704Y237900D01*
Y241896D01*
X198166Y242087D01*
X207449Y232804D01*
D02*
G37*
G36*
X334696Y229901D02*
Y228362D01*
X329913D01*
Y227211D01*
X317845D01*
Y228294D01*
X313466D01*
X313413Y228561D01*
X313152Y228952D01*
X310569Y231534D01*
X310761Y231996D01*
X332601D01*
X334696Y229901D01*
D02*
G37*
G36*
X236835Y228862D02*
X236628Y228362D01*
X231759D01*
Y227211D01*
X219691D01*
Y228294D01*
X218299D01*
X218266Y228461D01*
X218005Y228852D01*
X218005Y228852D01*
X217461Y229396D01*
X217668Y229896D01*
X235801D01*
X236835Y228862D01*
D02*
G37*
G36*
X344796Y254901D02*
X344446Y254543D01*
X343955Y254543D01*
X338547D01*
Y242732D01*
X344453D01*
Y254043D01*
X344453Y254537D01*
X344811Y254886D01*
X347396Y252301D01*
Y238300D01*
X347396Y238300D01*
X347487Y237839D01*
X347748Y237449D01*
X349448Y235749D01*
X349448Y235749D01*
X349839Y235487D01*
X350300Y235396D01*
X357138D01*
Y234717D01*
X356850Y234354D01*
X356389Y234263D01*
X355998Y234001D01*
X355998Y234001D01*
X349201Y227204D01*
X342787D01*
Y228362D01*
X337213D01*
X337104Y228817D01*
Y230400D01*
X337104Y230400D01*
X337013Y230861D01*
X336752Y231252D01*
X336752Y231252D01*
X333951Y234051D01*
X333561Y234313D01*
X333100Y234404D01*
X333100Y234404D01*
X312937D01*
Y238362D01*
X311208D01*
Y242732D01*
X312957D01*
Y254543D01*
X311207D01*
X311117Y255000D01*
X310856Y255390D01*
X310856Y255390D01*
X310394Y255852D01*
X310004Y256113D01*
X309543Y256204D01*
X309543Y256204D01*
X284807D01*
Y261827D01*
X276146D01*
Y259982D01*
X275646Y259831D01*
X275319Y260319D01*
X274668Y260754D01*
X273900Y260907D01*
X273132Y260754D01*
X272481Y260319D01*
X272337Y260104D01*
X268800D01*
X268339Y260013D01*
X267949Y259752D01*
X263449Y255252D01*
X263187Y254861D01*
X263096Y254400D01*
X263096Y254400D01*
Y235300D01*
X263096Y235300D01*
X263187Y234839D01*
X263449Y234449D01*
X267949Y229948D01*
X268339Y229687D01*
X268800Y229596D01*
X285201D01*
X285935Y228862D01*
X285728Y228362D01*
X280836D01*
Y227211D01*
X268768D01*
Y228294D01*
X263693D01*
Y223719D01*
X265182D01*
X265796Y214889D01*
Y208499D01*
X265101Y207804D01*
X256499D01*
X254504Y209799D01*
Y223800D01*
X254504Y223800D01*
X254413Y224261D01*
X254152Y224652D01*
X244551Y234251D01*
X244161Y234513D01*
X243700Y234604D01*
X243700Y234604D01*
X221153D01*
X221012Y235104D01*
X222267Y235874D01*
X223540Y236960D01*
X224626Y238233D01*
X225501Y239659D01*
X226141Y241205D01*
X226532Y242832D01*
X226663Y244500D01*
X226532Y246168D01*
X226141Y247795D01*
X225501Y249341D01*
X224626Y250767D01*
X223540Y252040D01*
X222267Y253126D01*
X220841Y254001D01*
X219295Y254641D01*
X217668Y255031D01*
X216000Y255163D01*
X214332Y255031D01*
X212705Y254641D01*
X211159Y254001D01*
X209733Y253126D01*
X208460Y252040D01*
X207374Y250767D01*
X206499Y249341D01*
X205859Y247795D01*
X205469Y246168D01*
X205337Y244500D01*
X205469Y242832D01*
X205859Y241205D01*
X206499Y239659D01*
X207374Y238233D01*
X208460Y236960D01*
X209733Y235874D01*
X210988Y235104D01*
X210847Y234604D01*
X209055D01*
X197771Y245888D01*
X197963Y246350D01*
X199512D01*
Y252650D01*
X199145D01*
Y254638D01*
X200787D01*
Y255796D01*
X252400D01*
X252400Y255796D01*
X252861Y255887D01*
X253252Y256149D01*
X275851Y278748D01*
X275851Y278748D01*
X276113Y279139D01*
X276193Y279543D01*
X284807D01*
Y285449D01*
X276204D01*
Y287417D01*
X284807D01*
Y293323D01*
X276204D01*
Y295291D01*
X284807D01*
Y300396D01*
X299301D01*
X344796Y254901D01*
D02*
G37*
G36*
X160957Y247569D02*
X161023Y247197D01*
X160333Y246668D01*
X159733Y245886D01*
X159356Y244976D01*
X159228Y244000D01*
X159356Y243024D01*
X159733Y242114D01*
X160333Y241333D01*
X161114Y240733D01*
X162024Y240356D01*
X163000Y240228D01*
X163976Y240356D01*
X164533Y240587D01*
X166095Y239026D01*
X166746Y238591D01*
X167514Y238438D01*
X174268D01*
Y235327D01*
X182732D01*
Y238493D01*
X192228D01*
Y237350D01*
X193594D01*
X193785Y236889D01*
X188249Y231351D01*
X187987Y230961D01*
X187896Y230500D01*
X187896Y230500D01*
Y228362D01*
X182682D01*
Y227204D01*
X170614D01*
Y228294D01*
X169009D01*
X161951Y235351D01*
X161561Y235613D01*
X161100Y235704D01*
X161100Y235704D01*
X137799D01*
X133004Y240499D01*
Y247697D01*
X160891D01*
X160957Y247569D01*
D02*
G37*
G36*
X206493Y229396D02*
X201501Y224404D01*
X197379D01*
X197180Y224867D01*
X197186Y224904D01*
X197552Y225149D01*
X202299Y229896D01*
X206286D01*
X206493Y229396D01*
D02*
G37*
G36*
X252096Y223301D02*
Y222661D01*
X251634Y222469D01*
X251252Y222851D01*
X251252Y222851D01*
X247252Y226852D01*
X246861Y227113D01*
X246400Y227204D01*
X246400Y227204D01*
X244634D01*
Y228362D01*
X240741D01*
X237407Y231696D01*
X237614Y232196D01*
X243201D01*
X252096Y223301D01*
D02*
G37*
G36*
X299796Y222101D02*
Y215240D01*
X291552D01*
Y219701D01*
X291460Y220162D01*
X291199Y220552D01*
X291199Y220552D01*
X288614Y223138D01*
X288821Y223638D01*
X293711D01*
Y224796D01*
X297101D01*
X299796Y222101D01*
D02*
G37*
G36*
X249196Y221501D02*
Y215240D01*
X245454D01*
Y216722D01*
X245454Y216722D01*
X245363Y217182D01*
X245101Y217573D01*
X239537Y223138D01*
X239744Y223638D01*
X244634D01*
Y224796D01*
X245901D01*
X249196Y221501D01*
D02*
G37*
G36*
X280836Y223638D02*
X284707D01*
X289143Y219202D01*
Y214059D01*
X289143Y214059D01*
X289166Y213942D01*
Y208570D01*
X284200D01*
X284200Y208570D01*
X283739Y208479D01*
X283348Y208218D01*
X283348Y208218D01*
X281021Y205890D01*
X267246D01*
X267055Y206352D01*
X267851Y207149D01*
X268113Y207539D01*
X268204Y208000D01*
X268204Y208000D01*
Y214930D01*
X268196Y214972D01*
X268201Y215014D01*
X267622Y223353D01*
X267963Y223719D01*
X268768D01*
Y224802D01*
X280836D01*
Y223638D01*
D02*
G37*
G36*
X303996Y217901D02*
Y208000D01*
X303996Y208000D01*
X304087Y207539D01*
X304348Y207149D01*
X305348Y206149D01*
X305348Y206149D01*
X305714Y205904D01*
X305720Y205867D01*
X305521Y205404D01*
X291474D01*
X291278Y205662D01*
X291509Y206162D01*
X301000D01*
X301461Y206253D01*
X301852Y206515D01*
X302113Y206905D01*
X302204Y207366D01*
Y219039D01*
X302666Y219231D01*
X303996Y217901D01*
D02*
G37*
%LPC*%
G36*
X245000Y369272D02*
X244024Y369144D01*
X243114Y368767D01*
X242333Y368167D01*
X241733Y367386D01*
X241356Y366476D01*
X241228Y365500D01*
X241356Y364524D01*
X241733Y363614D01*
X242333Y362832D01*
X243114Y362233D01*
X244024Y361856D01*
X245000Y361728D01*
X245976Y361856D01*
X246886Y362233D01*
X247668Y362832D01*
X248267Y363614D01*
X248644Y364524D01*
X248772Y365500D01*
X248644Y366476D01*
X248267Y367386D01*
X247668Y368167D01*
X246886Y368767D01*
X245976Y369144D01*
X245000Y369272D01*
D02*
G37*
G36*
X360500Y367163D02*
X358832Y367032D01*
X357205Y366641D01*
X355659Y366001D01*
X354233Y365126D01*
X352960Y364040D01*
X351874Y362767D01*
X350999Y361341D01*
X350359Y359795D01*
X349969Y358168D01*
X349837Y356500D01*
X349969Y354832D01*
X350359Y353205D01*
X350999Y351659D01*
X351874Y350233D01*
X352960Y348960D01*
X354233Y347874D01*
X355659Y346999D01*
X357205Y346359D01*
X358832Y345969D01*
X360500Y345837D01*
X362168Y345969D01*
X363795Y346359D01*
X365341Y346999D01*
X366767Y347874D01*
X368040Y348960D01*
X369126Y350233D01*
X370001Y351659D01*
X370641Y353205D01*
X371031Y354832D01*
X371163Y356500D01*
X371031Y358168D01*
X370641Y359795D01*
X370001Y361341D01*
X369126Y362767D01*
X368040Y364040D01*
X366767Y365126D01*
X365341Y366001D01*
X363795Y366641D01*
X362168Y367032D01*
X360500Y367163D01*
D02*
G37*
G36*
X355709Y339740D02*
X344291D01*
Y332260D01*
X348796D01*
Y323787D01*
X348063D01*
Y322704D01*
X343787D01*
Y323862D01*
X338213D01*
Y319138D01*
X340296D01*
Y314386D01*
X338547D01*
Y302575D01*
X344453D01*
Y314386D01*
X342704D01*
Y319138D01*
X343787D01*
Y320296D01*
X348063D01*
Y319213D01*
X353137D01*
Y323787D01*
X351204D01*
Y332260D01*
X355709D01*
Y339740D01*
D02*
G37*
G36*
X336579Y314386D02*
X330673D01*
Y302575D01*
X336579D01*
Y314386D01*
D02*
G37*
G36*
X320831D02*
X314925D01*
Y302575D01*
X320831D01*
Y314386D01*
D02*
G37*
G36*
X312957D02*
X307051D01*
Y302575D01*
X312957D01*
Y314386D01*
D02*
G37*
G36*
X178000Y315007D02*
X177232Y314854D01*
X176581Y314419D01*
X176146Y313768D01*
X175993Y313000D01*
Y303831D01*
X171581Y299419D01*
X171146Y298768D01*
X170993Y298000D01*
X171146Y297232D01*
X171581Y296581D01*
X172232Y296146D01*
X173000Y295993D01*
X173768Y296146D01*
X174419Y296581D01*
X179419Y301581D01*
X179854Y302232D01*
X180007Y303000D01*
Y313000D01*
X179854Y313768D01*
X179419Y314419D01*
X178768Y314854D01*
X178000Y315007D01*
D02*
G37*
G36*
X284807Y277575D02*
X276146D01*
Y271669D01*
X284807D01*
Y277575D01*
D02*
G37*
G36*
Y269701D02*
X276146D01*
Y263795D01*
X284807D01*
Y269701D01*
D02*
G37*
G36*
X336579Y254543D02*
X330673D01*
Y242732D01*
X336579D01*
Y254543D01*
D02*
G37*
G36*
X328705D02*
X322799D01*
Y242732D01*
X328705D01*
Y254543D01*
D02*
G37*
G36*
X320831D02*
X314925D01*
Y242732D01*
X320831D01*
Y254543D01*
D02*
G37*
%LPD*%
D12*
X194800Y289308D02*
X195070Y289579D01*
X194800Y280300D02*
Y289308D01*
X239089Y329089D02*
Y338530D01*
X233500Y321000D02*
X234386Y321886D01*
Y324386D01*
X239089Y329089D01*
X316800Y354500D02*
X318925D01*
X287114Y351500D02*
X303300D01*
X328500Y336000D02*
X339600D01*
X262811Y317700D02*
Y318800D01*
Y312910D02*
Y317700D01*
X260414Y320097D02*
X262811Y317700D01*
X236000Y299500D02*
Y300088D01*
X223740Y320500D02*
X227100D01*
X223650D02*
X223740D01*
Y329000D01*
X198400Y330500D02*
X202000D01*
X220040Y316800D02*
X223740Y320500D01*
X197700Y278400D02*
Y294500D01*
Y263000D02*
X210000D01*
X197700D02*
Y278400D01*
X112100Y227700D02*
Y238600D01*
X154800Y211500D02*
Y220300D01*
X136818Y226000D02*
X138500D01*
Y217600D02*
Y226000D01*
X136818D02*
X143000Y219818D01*
X168083Y226000D02*
X185470D01*
X161100Y234500D02*
X169600Y226000D01*
X322600Y356500D02*
X324600Y354500D01*
X321800Y357300D02*
X322600Y356500D01*
X311500Y318481D02*
X313600Y321500D01*
X310400Y316900D02*
X311500Y318481D01*
Y319400D01*
Y318000D02*
Y318481D01*
X301800Y316900D02*
X310400D01*
X297599D02*
X301800D01*
X307200Y233200D02*
X333100D01*
X304000D02*
X307200D01*
X312300Y228100D01*
X306000Y234400D02*
X307200Y233200D01*
X301000Y222600D02*
X305200Y218400D01*
X297600Y226000D02*
X301000Y222600D01*
X302800Y234400D02*
Y236000D01*
X288700Y226000D02*
Y227800D01*
X242900Y310400D02*
Y318128D01*
X250400Y222000D02*
X251386Y221014D01*
X145500Y219400D02*
Y226000D01*
X194500Y263000D02*
X197700D01*
X192892Y259192D02*
Y261392D01*
X190700Y257000D02*
X192892Y259192D01*
Y261392D02*
X194500Y263000D01*
X197700Y294500D02*
X198000D01*
X193900D02*
X197700D01*
X192000Y296400D02*
X193900Y294500D01*
X188000Y296400D02*
X192000D01*
X193400Y338000D02*
X196300D01*
X192200Y339200D02*
X193400Y338000D01*
X192200Y339200D02*
Y340800D01*
X185300D02*
X192200D01*
X181839Y337339D02*
X185300Y340800D01*
X179118Y337339D02*
X181839D01*
X192074Y277574D02*
X194800Y280300D01*
X187566Y277574D02*
X192074D01*
X187500Y277508D02*
X187566Y277574D01*
X187500Y246400D02*
Y277508D01*
Y246400D02*
X189400Y244500D01*
X195200D01*
X196500Y243200D01*
Y237900D02*
Y243200D01*
X189100Y230500D02*
X196500Y237900D01*
X189100Y224000D02*
Y230500D01*
Y224000D02*
X189900Y223200D01*
X202000D01*
X207700Y228900D01*
X216254D01*
X217154Y228000D01*
Y226006D02*
Y228000D01*
X210900Y302600D02*
X211200D01*
X214400Y299400D01*
Y263000D02*
Y299400D01*
X211200Y259800D02*
X214400Y263000D01*
X194800Y259800D02*
X211200D01*
X194800Y247157D02*
Y259800D01*
Y247157D02*
X208557Y233400D01*
X243700D01*
X253300Y223800D01*
Y209300D02*
Y223800D01*
Y209300D02*
X256000Y206600D01*
X265600D01*
X267000Y208000D01*
Y214930D01*
X266230Y226006D02*
X267000Y214930D01*
X315307Y222400D02*
Y226006D01*
X359526Y206926D02*
Y209500D01*
X356800Y204200D02*
X359526Y206926D01*
X289732Y204200D02*
X356800D01*
X243813Y324034D02*
X269466D01*
X290923Y226000D02*
X297600D01*
X305200Y208000D02*
Y218400D01*
Y208000D02*
X306200Y207000D01*
X316800D01*
X317700Y207900D01*
Y215700D01*
X312300Y221100D02*
X317700Y215700D01*
X312300Y221100D02*
Y228100D01*
X306000Y234400D02*
Y235200D01*
X305200Y236000D02*
X306000Y235200D01*
X302850Y236000D02*
X305200D01*
X285500Y343400D02*
Y347400D01*
X277600Y341479D02*
Y351500D01*
X275903Y339782D02*
X277600Y341479D01*
X311500Y354500D02*
Y357300D01*
X322600Y352000D02*
Y356500D01*
X320000Y349400D02*
X322600Y352000D01*
X316052Y349400D02*
X320000D01*
X301800Y335148D02*
X316052Y349400D01*
X301800Y316900D02*
Y335148D01*
X313600Y321500D02*
X317000D01*
X249032Y308068D02*
Y312910D01*
Y308068D02*
X250400Y306700D01*
X264780Y307200D02*
Y312910D01*
X311500Y319400D02*
X313600Y321500D01*
X310400Y316900D02*
X311500Y318000D01*
X293000Y321500D02*
X297599Y316900D01*
X329600Y321500D02*
X333700D01*
X326400Y324700D02*
X329600Y321500D01*
X322200Y324700D02*
X326400D01*
X319000Y321500D02*
X322200Y324700D01*
X317000Y321500D02*
X319000D01*
X311500Y357300D02*
X321800D01*
X324600Y354500D02*
X326650D01*
X356850Y233150D02*
X359500D01*
X349700Y226000D02*
X356850Y233150D01*
X340000Y226000D02*
X349700D01*
X155100Y286200D02*
Y293200D01*
X131800Y262900D02*
X155100Y286200D01*
X131800Y240000D02*
Y262900D01*
Y240000D02*
X137300Y234500D01*
X161100D01*
X169600Y226000D02*
X185470D01*
X304600Y354500D02*
Y361600D01*
X307500Y364500D01*
X304600Y352800D02*
Y354500D01*
X303300Y351500D02*
X304600Y352800D01*
X316000Y331500D02*
Y336000D01*
X306000Y321500D02*
X316000Y331500D01*
X339600Y336000D02*
X343800Y340200D01*
X356500D01*
X357500Y339200D01*
Y321500D02*
Y339200D01*
X243813Y320097D02*
X260414D01*
X112100Y214600D02*
Y226006D01*
X109000Y211500D02*
X112100Y214600D01*
X132205Y277890D02*
Y281315D01*
X108815Y254500D02*
X132205Y277890D01*
X120000Y282915D02*
Y301000D01*
Y282915D02*
X121600Y281315D01*
X132205D01*
X108815Y342500D02*
X116700D01*
X120000Y339200D01*
Y301000D02*
Y339200D01*
X254900Y275200D02*
X268300D01*
X270000Y276900D01*
Y295100D01*
X251386Y208000D02*
Y221014D01*
Y208000D02*
X254700Y204686D01*
X281520D01*
X284200Y207366D01*
X301000D01*
Y222600D01*
X275903Y324034D02*
X279866D01*
X280700Y323200D01*
Y310200D02*
Y323200D01*
X275000Y304500D02*
X280700Y310200D01*
X275000Y279600D02*
Y304500D01*
X252400Y257000D02*
X275000Y279600D01*
X198000Y257000D02*
X252400D01*
X220800Y265700D02*
X222400Y264100D01*
X243800D01*
X254900Y275200D01*
X288700Y226000D02*
X290923D01*
X285700Y230800D02*
X288700Y227800D01*
X268800Y230800D02*
X285700D01*
X264300Y235300D02*
X268800Y230800D01*
X264300Y235300D02*
Y254400D01*
X268800Y258900D01*
X273900D01*
X190000Y275200D02*
X194500D01*
X197700Y278400D01*
X285500Y336500D02*
Y338400D01*
X288600Y341500D01*
Y350014D01*
X287114Y351500D02*
X288600Y350014D01*
X284500Y351500D02*
X287114D01*
X314300Y361300D02*
X317500Y364500D01*
X312200Y361300D02*
X314300D01*
X308500Y357600D02*
X312200Y361300D01*
X308500Y351700D02*
Y357600D01*
Y351700D02*
X314000D01*
X316800Y354500D01*
X285500Y343082D02*
Y343400D01*
X282200Y339782D02*
X285500Y343082D01*
X275903Y339782D02*
X282200D01*
X227100Y320500D02*
X230800Y316800D01*
X235503D01*
X238800Y320097D01*
X243813D01*
X369526Y209500D02*
X371600D01*
X372500Y210400D01*
Y236600D01*
X350300D02*
X372500D01*
X348600Y238300D02*
X350300Y236600D01*
X348600Y238300D02*
Y252800D01*
X299800Y301600D02*
X348600Y252800D01*
X283200Y301600D02*
X299800D01*
X282400Y302400D02*
X283200Y301600D01*
X264835Y322065D02*
X268100Y318800D01*
X243813Y322065D02*
X264835D01*
X260843Y307957D02*
Y312910D01*
Y307957D02*
X261300Y307500D01*
X260800Y283800D02*
X263900Y286900D01*
X236200Y283800D02*
X260800D01*
X232000Y288000D02*
X236200Y283800D01*
X232000Y288000D02*
Y294500D01*
X307500Y364500D02*
X312500Y369500D01*
X330400D01*
X331700Y368200D01*
Y339200D02*
Y368200D01*
X328500Y336000D02*
X331700Y339200D01*
X316000Y336000D02*
X328500D01*
X242900Y318128D02*
X243813D01*
X243500Y287000D02*
X257000D01*
X261200Y291200D01*
Y294600D01*
X249032Y312910D02*
Y317097D01*
X248000Y318128D02*
X249032Y317097D01*
X243813Y318128D02*
X248000D01*
X112100Y226006D02*
Y227700D01*
X113600Y229200D01*
X145900D01*
X154800Y220300D01*
Y211500D02*
X159625D01*
X143693Y226000D02*
X145500D01*
Y219400D02*
X149200Y215700D01*
Y211200D02*
Y215700D01*
Y211200D02*
X154700Y205700D01*
X248100D01*
X250400Y208000D01*
Y222000D01*
X246400Y226000D02*
X250400Y222000D01*
X241846Y226000D02*
X246400D01*
X159625Y211500D02*
X178000D01*
X182200Y207300D01*
X199400D01*
X203600Y211500D01*
X210250D01*
X202000Y330500D02*
X206100Y326400D01*
Y320000D02*
Y326400D01*
Y320000D02*
X209300Y316800D01*
X220040D01*
X286382Y308480D02*
Y314882D01*
X293000Y321500D01*
X236000Y299500D02*
X236800Y298700D01*
X238400D01*
X240100Y297000D01*
Y288000D02*
Y297000D01*
Y288000D02*
X241100Y287000D01*
X243500D01*
X233500Y302000D02*
Y311000D01*
Y302000D02*
X236000D01*
X249000Y302500D02*
X251500D01*
X245400Y298900D02*
X249000Y302500D01*
X237188Y298900D02*
X245400D01*
X236000Y300088D02*
X237188Y298900D01*
X236000Y300088D02*
Y302000D01*
X224800Y307500D02*
X227200D01*
X228900Y309200D01*
Y314400D01*
X229700Y315200D01*
X238100D01*
X242900Y310400D01*
Y302000D02*
Y310400D01*
X337600Y226000D02*
X340000D01*
X335900Y227700D02*
X337600Y226000D01*
X335900Y227700D02*
Y230400D01*
X333100Y233200D02*
X335900Y230400D01*
X302800Y234400D02*
X304000Y233200D01*
X302800Y236000D02*
X302850D01*
X200500Y307500D02*
Y328400D01*
X198400Y330500D02*
X200500Y328400D01*
X196000Y330500D02*
X198400D01*
X192770Y226000D02*
X196700D01*
X201800Y231100D01*
X236300D01*
X241400Y226000D01*
X241846D01*
X341500Y306118D02*
Y308480D01*
X161177Y219452D02*
Y226006D01*
X159625Y217900D02*
X161177Y219452D01*
X159625Y211500D02*
Y217900D01*
X108815Y241885D02*
Y254500D01*
Y241885D02*
X112100Y238600D01*
X210254Y218704D02*
Y226006D01*
X210250Y218700D02*
X210254Y218704D01*
X210250Y211500D02*
Y218700D01*
X190700Y253440D02*
Y257000D01*
X190260Y253000D02*
X190700Y253440D01*
X190260Y249500D02*
Y253000D01*
X200500Y302200D02*
Y307500D01*
X198000Y299700D02*
X200500Y302200D01*
X198000Y294500D02*
Y299700D01*
X196300Y334400D02*
Y338000D01*
X196000Y334100D02*
X196300Y334400D01*
X196000Y330500D02*
Y334100D01*
X179118Y334780D02*
Y337339D01*
X228055Y365500D02*
X235000D01*
X227900Y365345D02*
X228055Y365500D01*
X221113Y365345D02*
X227900D01*
X265800Y295100D02*
X270000D01*
X265300Y294600D02*
X265800Y295100D01*
X261200Y294600D02*
X265300D01*
X281313Y336500D02*
X285500D01*
X280000Y337813D02*
X281313Y336500D01*
X275903Y337813D02*
X280000D01*
X325752Y306118D02*
Y308480D01*
X341500Y248638D02*
Y251000D01*
X333626Y248638D02*
Y251000D01*
X359500Y233150D02*
X369500D01*
X327500Y359850D02*
Y364500D01*
X326650Y359000D02*
X327500Y359850D01*
X326650Y354500D02*
Y359000D01*
X286382Y306118D02*
Y308480D01*
X310004Y251000D02*
Y254539D01*
Y248638D02*
Y251000D01*
X270500Y333135D02*
Y336500D01*
X263780Y329939D02*
X275903D01*
X268000Y335500D02*
Y336000D01*
X268386Y338614D02*
X270500Y336500D01*
X267000Y337000D02*
X268000Y336000D01*
X261500Y337000D02*
X267000D01*
X263341Y329500D02*
X263780Y329939D01*
X262114Y338614D02*
X268386D01*
X258874Y339626D02*
X261500Y337000D01*
X264039Y327971D02*
X275903D01*
X263443Y327375D02*
X264039Y327971D01*
X252638Y327375D02*
X263443D01*
X260843Y339885D02*
Y345000D01*
Y339885D02*
X262114Y338614D01*
X258874Y339626D02*
Y345000D01*
X256362Y335862D02*
X257000Y336500D01*
X252437Y333937D02*
X259063D01*
X256216Y332362D02*
X257236Y331342D01*
X253391Y332362D02*
X256216D01*
X254638Y330000D02*
X255238D01*
X251862Y335862D02*
X256362D01*
X247908Y331908D02*
X251862Y335862D01*
X248439Y329939D02*
X252437Y333937D01*
X249000Y327971D02*
X253391Y332362D01*
X237500Y339866D02*
X239147Y341513D01*
X237500Y335000D02*
Y339866D01*
X239089Y338530D02*
X240281Y339722D01*
X239147Y341513D02*
X244500D01*
X233500Y331000D02*
X237500Y335000D01*
X244500Y341513D02*
X246407Y343420D01*
Y347817D01*
X248314Y349724D01*
X254969Y340032D02*
X255000Y340000D01*
X254937Y340063D02*
X254969Y340032D01*
X283203Y333876D02*
X283511Y333569D01*
X275903Y333876D02*
X283203D01*
X283511Y333569D02*
X297994D01*
X318925Y354500D02*
X319350D01*
X297994Y333569D02*
X318925Y354500D01*
X259296Y333704D02*
X259362D01*
X255238Y330000D02*
X255738Y329500D01*
X261574Y331862D02*
X262000D01*
X261053Y331342D02*
X261574Y331862D01*
X257236Y331342D02*
X261053D01*
X259063Y333937D02*
X259296Y333704D01*
X255738Y329500D02*
X263341D01*
X243813Y327971D02*
X249000D01*
X243813Y329939D02*
X248439D01*
X243813Y331908D02*
X247908D01*
X350000Y322100D02*
Y336000D01*
Y322100D02*
X350600Y321500D01*
X341000D02*
X350600D01*
X341500Y308480D02*
Y321000D01*
X341000Y321500D02*
X341500Y321000D01*
X325752Y308480D02*
Y320319D01*
X324571Y321500D02*
X325752Y320319D01*
X324300Y321500D02*
X324571D01*
X309543Y255000D02*
X310004Y254539D01*
X280000Y255000D02*
X309543D01*
X270000Y248000D02*
X272559Y250559D01*
X275559D01*
X280000Y255000D01*
X294256Y248638D02*
Y251000D01*
Y237681D02*
Y248638D01*
X293075Y236500D02*
X294256Y237681D01*
X293000Y236500D02*
X293075D01*
X310004Y236146D02*
Y248638D01*
Y236146D02*
X310150Y236000D01*
X369526Y216500D02*
Y225824D01*
X369500Y225850D02*
X369526Y225824D01*
X359526Y216500D02*
Y225824D01*
X359500Y225850D02*
X359526Y225824D01*
X343532Y211500D02*
X345500D01*
X340972Y214059D02*
X343532Y211500D01*
X340972Y214059D02*
Y218153D01*
X333125Y226000D02*
X340972Y218153D01*
X332700Y226000D02*
X333125D01*
X315307Y226006D02*
X332694D01*
X332700Y226000D01*
X292907Y211500D02*
X294875D01*
X290347Y214059D02*
X292907Y211500D01*
X290347Y214059D02*
Y219701D01*
X284048Y226000D02*
X290347Y219701D01*
X283623Y226000D02*
X284048D01*
X266230Y226006D02*
X283617D01*
X283623Y226000D01*
X244250Y211500D02*
Y216722D01*
X234972Y226000D02*
X244250Y216722D01*
X234546Y226000D02*
X234972D01*
X217154Y226006D02*
X234540D01*
X234546Y226000D01*
X191657Y211500D02*
X193625D01*
X189097Y214059D02*
X191657Y211500D01*
X189097Y214059D02*
Y217625D01*
X185470Y221253D02*
X189097Y217625D01*
X185470Y221253D02*
Y226000D01*
X168077Y226006D02*
X168083Y226000D01*
X143000Y211500D02*
Y219818D01*
X136393Y226000D02*
X136818D01*
X119000Y226006D02*
X136386D01*
X136393Y226000D01*
X217500Y307500D02*
X217925D01*
X227472Y297953D01*
Y297059D02*
Y297953D01*
Y297059D02*
X230032Y294500D01*
X232000D01*
X207400Y307500D02*
X217500D01*
X261200Y302500D02*
X261700Y302000D01*
X270000D01*
X244200Y294600D02*
X251500D01*
X243500Y293900D02*
X244200Y294600D01*
X256906Y299612D02*
Y312910D01*
X251894Y294600D02*
X256906Y299612D01*
X251500Y294600D02*
X251894D01*
X258874Y304432D02*
Y312910D01*
Y304432D02*
X260806Y302500D01*
X261200D01*
X252909Y345060D02*
X252969Y345000D01*
X245624Y349366D02*
X247557Y351299D01*
X233000Y353500D02*
X237134Y349366D01*
X256048Y351299D02*
X258814Y348533D01*
X252909Y345060D02*
Y348533D01*
X247557Y351299D02*
X256048D01*
X258814Y345060D02*
Y348533D01*
X251717Y349724D02*
X252909Y348533D01*
X258814Y345060D02*
X258874Y345000D01*
X248314Y349724D02*
X251717D01*
X237134Y349366D02*
X245624D01*
X240281Y339722D02*
X243754D01*
X243813Y339782D01*
X266748Y357748D02*
X274500Y365500D01*
X266748Y345000D02*
Y357748D01*
X268717Y345000D02*
Y356217D01*
X270250Y357750D01*
X280750D02*
X284366Y361366D01*
X270250Y357750D02*
X280750D01*
X284366Y364866D02*
X285000Y365500D01*
X284366Y361366D02*
Y364866D01*
X270685Y345000D02*
Y353185D01*
X273000Y355500D01*
X289500D02*
X295000Y361000D01*
X273000Y355500D02*
X289500D01*
X295000Y361000D02*
Y365500D01*
X274500D02*
X275000D01*
X262811Y345000D02*
Y357689D01*
X255000Y365500D02*
X262811Y357689D01*
X243000Y353500D02*
X259000D01*
X260843Y351657D01*
Y345000D02*
Y351657D01*
X264780Y345000D02*
X264839Y345060D01*
Y365339D01*
X265000Y365500D01*
D14*
X249051Y337995D02*
Y344981D01*
Y337995D02*
X249325Y337721D01*
X251000Y340500D02*
X252012Y339488D01*
X249032Y345000D02*
X249051Y344981D01*
X251000Y340500D02*
Y345000D01*
D21*
X249032Y312910D02*
D03*
X251000D02*
D03*
X252969D02*
D03*
X254937D02*
D03*
X256906D02*
D03*
X258874D02*
D03*
X260843D02*
D03*
X262811D02*
D03*
X264780D02*
D03*
X266748D02*
D03*
X268717D02*
D03*
X270685D02*
D03*
Y345000D02*
D03*
X268717D02*
D03*
X266748D02*
D03*
X264780D02*
D03*
X262811D02*
D03*
X260843D02*
D03*
X258874D02*
D03*
X256906D02*
D03*
X254937D02*
D03*
X252969D02*
D03*
X251000D02*
D03*
X249032D02*
D03*
D22*
X275903Y318128D02*
D03*
Y320097D02*
D03*
Y322065D02*
D03*
Y324034D02*
D03*
Y326002D02*
D03*
Y327971D02*
D03*
Y329939D02*
D03*
Y331908D02*
D03*
Y333876D02*
D03*
Y335845D02*
D03*
Y337813D02*
D03*
Y339782D02*
D03*
X243813D02*
D03*
Y337813D02*
D03*
Y335845D02*
D03*
Y333876D02*
D03*
Y331908D02*
D03*
Y329939D02*
D03*
Y327971D02*
D03*
Y326002D02*
D03*
Y324034D02*
D03*
Y322065D02*
D03*
Y320097D02*
D03*
Y318128D02*
D03*
D23*
X324300Y321500D02*
D03*
X317000D02*
D03*
X333700D02*
D03*
X341000D02*
D03*
X326650Y354500D02*
D03*
X319350D02*
D03*
X198000Y257000D02*
D03*
X190700D02*
D03*
X143693Y226000D02*
D03*
X136393D02*
D03*
X192770D02*
D03*
X185470D02*
D03*
X241846D02*
D03*
X234546D02*
D03*
X302850Y236000D02*
D03*
X310150D02*
D03*
X340000Y226000D02*
D03*
X332700D02*
D03*
X285700Y236500D02*
D03*
X293000D02*
D03*
X290923Y226000D02*
D03*
X283623D02*
D03*
X224800Y307500D02*
D03*
X217500D02*
D03*
X216350Y320500D02*
D03*
X223650D02*
D03*
X155850Y360500D02*
D03*
X163150D02*
D03*
Y352000D02*
D03*
X155850D02*
D03*
X188700Y315500D02*
D03*
X196000D02*
D03*
X188700Y330500D02*
D03*
X196000D02*
D03*
X196300Y338000D02*
D03*
X189000D02*
D03*
D24*
X350600Y321500D02*
D03*
X357500D02*
D03*
X311500Y354500D02*
D03*
X304600D02*
D03*
X277600Y351500D02*
D03*
X284500D02*
D03*
X112100Y226006D02*
D03*
X119000D02*
D03*
X161177D02*
D03*
X168077D02*
D03*
X210254D02*
D03*
X217154D02*
D03*
X308407D02*
D03*
X315307D02*
D03*
X259330D02*
D03*
X266230D02*
D03*
X242900Y302000D02*
D03*
X236000D02*
D03*
X207400Y307500D02*
D03*
X200500D02*
D03*
X162000Y334500D02*
D03*
X155100D02*
D03*
X195500Y322500D02*
D03*
X188600D02*
D03*
D25*
X285500Y343400D02*
D03*
Y336500D02*
D03*
X270000Y302000D02*
D03*
Y295100D02*
D03*
X243500Y293900D02*
D03*
Y287000D02*
D03*
X188000Y296400D02*
D03*
Y289500D02*
D03*
D26*
X293000Y321500D02*
D03*
X306000D02*
D03*
D27*
X280476Y258874D02*
D03*
Y266748D02*
D03*
Y274622D02*
D03*
Y282496D02*
D03*
Y290370D02*
D03*
Y298244D02*
D03*
D28*
X341500Y248638D02*
D03*
X333626D02*
D03*
X325752D02*
D03*
X317878D02*
D03*
X310004D02*
D03*
X302130D02*
D03*
X294256D02*
D03*
X286382D02*
D03*
Y308480D02*
D03*
X294256D02*
D03*
X302130D02*
D03*
X310004D02*
D03*
X317878D02*
D03*
X325752D02*
D03*
X333626D02*
D03*
X341500D02*
D03*
D29*
X197740Y249500D02*
D03*
X190260D02*
D03*
X194000Y240500D02*
D03*
X216260Y329000D02*
D03*
X223740D02*
D03*
X220000Y338000D02*
D03*
D30*
X178500Y240445D02*
D03*
Y258555D02*
D03*
D31*
X369500Y233150D02*
D03*
Y225850D02*
D03*
X359500Y233150D02*
D03*
Y225850D02*
D03*
D32*
X369526Y209500D02*
D03*
X359526D02*
D03*
D33*
X369526Y216500D02*
D03*
X359526D02*
D03*
D34*
X261200Y302500D02*
D03*
Y294600D02*
D03*
X251500Y302500D02*
D03*
Y294600D02*
D03*
D35*
X232000Y294500D02*
D03*
X198000D02*
D03*
X350000Y336000D02*
D03*
X316000D02*
D03*
X311500Y211500D02*
D03*
X345500D02*
D03*
X260875D02*
D03*
X294875D02*
D03*
X210250D02*
D03*
X244250D02*
D03*
X159625D02*
D03*
X193625D02*
D03*
X109000D02*
D03*
X143000D02*
D03*
D36*
X192500Y356500D02*
D03*
D37*
X221113Y365345D02*
D03*
D38*
X221013Y347545D02*
D03*
D39*
X108815Y254500D02*
D03*
Y342500D02*
D03*
D40*
X148185Y254500D02*
D03*
Y342500D02*
D03*
D41*
X168882Y337339D02*
D03*
X179118Y334780D02*
D03*
Y332220D02*
D03*
Y329661D02*
D03*
Y337339D02*
D03*
X168882Y334780D02*
D03*
Y332220D02*
D03*
Y329661D02*
D03*
D42*
X168000Y289500D02*
D03*
Y319500D02*
D03*
D72*
X178000Y303000D02*
Y313000D01*
X173000Y298000D02*
X178000Y303000D01*
X163000Y244000D02*
X163959D01*
X167514Y240445D01*
X178500D01*
X178555Y240500D02*
X194000D01*
D73*
X232625Y335875D02*
X232830D01*
X232500Y336000D02*
X232625Y335875D01*
X188700Y315500D02*
Y330500D01*
X216260Y329000D02*
Y330378D01*
Y320590D02*
Y329000D01*
X254969Y340032D02*
X255500Y339500D01*
X229500Y336000D02*
X232500D01*
X226240Y332740D02*
X229500Y336000D01*
X254969Y340032D02*
Y344969D01*
X254937Y345000D02*
X254969Y344969D01*
X218622Y332740D02*
X226240D01*
X216260Y330378D02*
X218622Y332740D01*
X178500Y240445D02*
X178555Y240500D01*
X197740Y249500D02*
Y256740D01*
X198000Y257000D01*
X184500Y293000D02*
Y304000D01*
X195575Y315500D02*
X196000D01*
X194591Y314516D02*
X195575Y315500D01*
X194591Y314091D02*
Y314516D01*
X184500Y304000D02*
X194591Y314091D01*
X186841Y290659D02*
X187091D01*
X188000Y289500D02*
Y289750D01*
X187091Y290659D02*
X188000Y289750D01*
X184500Y293000D02*
X186841Y290659D01*
X195500Y316000D02*
Y322500D01*
Y316000D02*
X196000Y315500D01*
X188575Y338000D02*
X189000D01*
X185500Y334925D02*
X188575Y338000D01*
X185500Y333500D02*
Y334925D01*
X179118Y332220D02*
X184220D01*
X185500Y333500D01*
X188200Y330000D02*
X188700Y330500D01*
X186500Y330000D02*
X188200D01*
X179118Y329661D02*
X186161D01*
X186500Y330000D01*
X220000Y338000D02*
Y346532D01*
X221013Y347545D01*
X216260Y320590D02*
X216350Y320500D01*
D74*
X155000Y334600D02*
X155100Y334500D01*
X155000Y334600D02*
Y336500D01*
X168980Y332319D02*
X172319D01*
X172659Y332659D01*
X168882Y332220D02*
X168980Y332319D01*
X163150Y352000D02*
X163349Y352199D01*
Y355349D01*
X163500Y355500D01*
X172437Y329563D02*
X172500Y329500D01*
X168882Y329661D02*
X168980Y329563D01*
X172437D01*
X211955Y347545D02*
X221013D01*
X210000Y349500D02*
X211955Y347545D01*
X210000Y349500D02*
Y367000D01*
X207000Y370000D02*
X210000Y367000D01*
X165000Y370000D02*
X207000D01*
X163150Y360500D02*
Y368150D01*
X165000Y370000D01*
D75*
X173000Y360000D02*
X189000D01*
X192500Y356500D01*
D76*
X233000Y353500D02*
D03*
X235000Y365500D02*
D03*
X327500Y364500D02*
D03*
X270000Y248000D02*
D03*
D77*
X243000Y353500D02*
D03*
X233500Y341000D02*
D03*
Y331000D02*
D03*
Y321000D02*
D03*
X295000Y365500D02*
D03*
X285000D02*
D03*
X275000D02*
D03*
X265000D02*
D03*
X245000D02*
D03*
X255000D02*
D03*
X317500Y364500D02*
D03*
X307500D02*
D03*
X163000Y244000D02*
D03*
X260000Y248000D02*
D03*
X173000Y360000D02*
D03*
D78*
X233500Y311000D02*
D03*
X163000Y254000D02*
D03*
X173000Y350000D02*
D03*
D79*
X333626Y306118D02*
D03*
X302130D02*
D03*
X317878D02*
D03*
Y251000D02*
D03*
X325752D02*
D03*
X333626D02*
D03*
X341500D02*
D03*
X310004D02*
D03*
X302130D02*
D03*
X294256D02*
D03*
X286382D02*
D03*
X325752Y306118D02*
D03*
X341500D02*
D03*
X310004D02*
D03*
X294256D02*
D03*
X286382D02*
D03*
D80*
X360500Y356500D02*
D03*
X216000Y244500D02*
D03*
D81*
X144409Y301000D02*
D03*
X120000D02*
D03*
D82*
X132205Y281315D02*
D03*
D83*
X163000Y264000D02*
D03*
Y274000D02*
D03*
Y258500D02*
D03*
Y269000D02*
D03*
X252012Y339488D02*
D03*
X249325Y337721D02*
D03*
X190500Y301500D02*
D03*
X180500Y220500D02*
D03*
X171500Y215000D02*
D03*
X164000Y237500D02*
D03*
X147500Y240000D02*
D03*
X296000Y219000D02*
D03*
X286000Y216000D02*
D03*
X295000Y231500D02*
D03*
X334000Y328000D02*
D03*
X221000Y290500D02*
D03*
X148000Y369000D02*
D03*
X329500Y200000D02*
D03*
X329000Y210000D02*
D03*
X204500Y318000D02*
D03*
X212500Y313500D02*
D03*
X238000Y324500D02*
D03*
X274000Y345500D02*
D03*
X295500Y356000D02*
D03*
X276500Y313500D02*
D03*
X287500Y327500D02*
D03*
X281500Y306500D02*
D03*
X324500Y284500D02*
D03*
X316500Y277000D02*
D03*
X294000Y271000D02*
D03*
X211000Y276500D02*
D03*
X244000D02*
D03*
X286500Y271000D02*
D03*
X303300Y351500D02*
D03*
X247500Y287500D02*
D03*
X224000Y316500D02*
D03*
X220500Y360500D02*
D03*
X257000Y357000D02*
D03*
X281000Y347000D02*
D03*
X361500Y321500D02*
D03*
X289000Y336500D02*
D03*
X306000Y327000D02*
D03*
X323000Y336000D02*
D03*
X258000Y291000D02*
D03*
X249000Y299000D02*
D03*
X226500Y323500D02*
D03*
X179500Y340000D02*
D03*
X200500Y330500D02*
D03*
Y338000D02*
D03*
X121000Y342000D02*
D03*
X109000Y336000D02*
D03*
Y348000D02*
D03*
X106500Y249500D02*
D03*
X107500Y259000D02*
D03*
X118500Y254500D02*
D03*
X157000Y226500D02*
D03*
X164500Y217000D02*
D03*
X108000Y226000D02*
D03*
X116500Y211500D02*
D03*
X308500Y222500D02*
D03*
X208000D02*
D03*
X217500Y212000D02*
D03*
X261000Y216500D02*
D03*
X281500Y236500D02*
D03*
X259500Y229500D02*
D03*
X178000Y313000D02*
D03*
X173000Y298000D02*
D03*
X232830Y335875D02*
D03*
X195070Y289579D02*
D03*
X210000Y263000D02*
D03*
X262811Y318800D02*
D03*
X210900Y302600D02*
D03*
X315307Y222400D02*
D03*
X289732Y204200D02*
D03*
X269466Y324034D02*
D03*
X285500Y347400D02*
D03*
X250400Y306700D02*
D03*
X264780Y307200D02*
D03*
X155100Y293200D02*
D03*
X138500Y217600D02*
D03*
X254900Y275200D02*
D03*
X220800Y265700D02*
D03*
X273900Y258900D02*
D03*
X190000Y275200D02*
D03*
X282400Y302400D02*
D03*
X268100Y318800D02*
D03*
X261300Y307500D02*
D03*
X263900Y286900D02*
D03*
X270500Y333135D02*
D03*
X268000Y335500D02*
D03*
X255500Y339500D02*
D03*
X257000Y336500D02*
D03*
X254638Y330000D02*
D03*
X259362Y333704D02*
D03*
X252638Y327375D02*
D03*
X262000Y331862D02*
D03*
X155000Y337000D02*
D03*
X172659Y332659D02*
D03*
X173000Y329500D02*
D03*
X163500Y355500D02*
D03*
M02*
