G04*
G04 #@! TF.GenerationSoftware,Altium Limited,Altium Designer,20.0.13 (296)*
G04*
G04 Layer_Color=16711935*
%FSLAX25Y25*%
%MOIN*%
G70*
G01*
G75*
%ADD46R,0.04300X0.03800*%
%ADD65R,0.06706X0.06706*%
%ADD66C,0.06706*%
%ADD67R,0.06706X0.06706*%
%ADD68R,0.04737X0.03800*%
%ADD69C,0.20485*%
%ADD70O,0.08800X0.18800*%
%ADD71O,0.18800X0.08800*%
%ADD89R,0.10800X0.10800*%
%ADD90O,0.07300X0.15800*%
G04:AMPARAMS|DCode=91|XSize=158mil|YSize=73mil|CornerRadius=0mil|HoleSize=0mil|Usage=FLASHONLY|Rotation=90.000|XOffset=0mil|YOffset=0mil|HoleType=Round|Shape=Octagon|*
%AMOCTAGOND91*
4,1,8,0.01825,0.07900,-0.01825,0.07900,-0.03650,0.06075,-0.03650,-0.06075,-0.01825,-0.07900,0.01825,-0.07900,0.03650,-0.06075,0.03650,0.06075,0.01825,0.07900,0.0*
%
%ADD91OCTAGOND91*%

%ADD92R,0.04737X0.04737*%
D46*
X251600Y353500D02*
D03*
X258500D02*
D03*
D65*
X233000D02*
D03*
X235000Y365500D02*
D03*
X327500Y364500D02*
D03*
X270000Y248000D02*
D03*
D66*
X243000Y353500D02*
D03*
X233500Y341000D02*
D03*
Y331000D02*
D03*
Y321000D02*
D03*
X295000Y365500D02*
D03*
X285000D02*
D03*
X275000D02*
D03*
X265000D02*
D03*
X245000D02*
D03*
X255000D02*
D03*
X317500Y364500D02*
D03*
X307500D02*
D03*
X163000Y244000D02*
D03*
X260000Y248000D02*
D03*
X173000Y360000D02*
D03*
D67*
X233500Y311000D02*
D03*
X163000Y254000D02*
D03*
X173000Y350000D02*
D03*
D68*
X341500Y306118D02*
D03*
X294256D02*
D03*
D69*
X360500Y356500D02*
D03*
X216000Y244500D02*
D03*
D70*
X144409Y301000D02*
D03*
X120000D02*
D03*
D71*
X132205Y281315D02*
D03*
D89*
X172647Y293994D02*
D03*
X205147D02*
D03*
X270147D02*
D03*
X237647D02*
D03*
D90*
X172647Y269994D02*
D03*
X162647D02*
D03*
X205147D02*
D03*
X195147D02*
D03*
X270147D02*
D03*
X260147D02*
D03*
X237647D02*
D03*
X227647D02*
D03*
D91*
X182647D02*
D03*
X215147D02*
D03*
X280147D02*
D03*
X247647D02*
D03*
D92*
X333626Y306118D02*
D03*
X302130D02*
D03*
X317878D02*
D03*
Y251000D02*
D03*
X325752D02*
D03*
X333626D02*
D03*
X341500D02*
D03*
X310004D02*
D03*
X302130D02*
D03*
X294256D02*
D03*
X286382D02*
D03*
X325752Y306118D02*
D03*
X310004D02*
D03*
X286382D02*
D03*
M02*
