G04*
G04 #@! TF.GenerationSoftware,Altium Limited,Altium Designer,20.0.13 (296)*
G04*
G04 Layer_Color=65535*
%FSLAX25Y25*%
%MOIN*%
G70*
G01*
G75*
%ADD10C,0.01968*%
%ADD11C,0.02000*%
%ADD12C,0.00787*%
%ADD13C,0.00984*%
%ADD14C,0.01000*%
%ADD15C,0.03000*%
%ADD16C,0.00600*%
%ADD17C,0.00800*%
%ADD18C,0.00394*%
%ADD19C,0.00866*%
%ADD20C,0.01500*%
G36*
X181768Y325972D02*
X179539D01*
X180654Y327087D01*
X181768Y325972D01*
D01*
D02*
G37*
G36*
X231564Y261425D02*
X230944D01*
Y262132D01*
X231564D01*
Y261425D01*
D02*
G37*
G36*
X238264Y260820D02*
X238344Y260813D01*
X238439Y260798D01*
X238541Y260776D01*
X238650Y260747D01*
X238752Y260703D01*
X238767Y260696D01*
X238796Y260681D01*
X238847Y260660D01*
X238905Y260623D01*
X238978Y260579D01*
X239044Y260521D01*
X239109Y260463D01*
X239168Y260390D01*
X239175Y260383D01*
X239190Y260353D01*
X239211Y260317D01*
X239248Y260266D01*
X239277Y260193D01*
X239306Y260120D01*
X239343Y260033D01*
X239364Y259938D01*
Y259931D01*
X239372Y259901D01*
X239379Y259858D01*
X239386Y259799D01*
Y259712D01*
X239394Y259610D01*
X239401Y259486D01*
Y259333D01*
Y257087D01*
X238781D01*
Y259304D01*
Y259311D01*
Y259318D01*
Y259369D01*
Y259435D01*
X238774Y259515D01*
X238767Y259610D01*
X238752Y259705D01*
X238730Y259792D01*
X238708Y259872D01*
Y259880D01*
X238694Y259901D01*
X238672Y259938D01*
X238650Y259982D01*
X238614Y260025D01*
X238570Y260076D01*
X238511Y260127D01*
X238446Y260171D01*
X238439Y260178D01*
X238417Y260193D01*
X238373Y260208D01*
X238322Y260229D01*
X238264Y260251D01*
X238191Y260273D01*
X238103Y260280D01*
X238016Y260288D01*
X237979D01*
X237950Y260280D01*
X237877Y260273D01*
X237783Y260259D01*
X237681Y260222D01*
X237564Y260178D01*
X237447Y260120D01*
X237338Y260033D01*
X237323Y260018D01*
X237294Y259982D01*
X237272Y259952D01*
X237250Y259916D01*
X237221Y259872D01*
X237199Y259821D01*
X237170Y259763D01*
X237141Y259690D01*
X237119Y259610D01*
X237097Y259522D01*
X237083Y259428D01*
X237068Y259326D01*
X237053Y259202D01*
Y259078D01*
Y257087D01*
X236434D01*
Y260747D01*
X236988D01*
Y260222D01*
X236995Y260229D01*
X237010Y260251D01*
X237032Y260280D01*
X237061Y260317D01*
X237105Y260361D01*
X237156Y260412D01*
X237214Y260470D01*
X237287Y260528D01*
X237360Y260579D01*
X237447Y260638D01*
X237542Y260689D01*
X237644Y260733D01*
X237761Y260769D01*
X237877Y260798D01*
X238008Y260820D01*
X238147Y260827D01*
X238205D01*
X238264Y260820D01*
D02*
G37*
G36*
X226527D02*
X226607Y260805D01*
X226702Y260776D01*
X226804Y260740D01*
X226920Y260689D01*
X227044Y260623D01*
X226818Y260054D01*
X226811Y260062D01*
X226782Y260076D01*
X226738Y260098D01*
X226680Y260120D01*
X226614Y260142D01*
X226534Y260164D01*
X226454Y260178D01*
X226374Y260186D01*
X226337D01*
X226301Y260178D01*
X226250Y260171D01*
X226199Y260157D01*
X226133Y260135D01*
X226067Y260105D01*
X226009Y260062D01*
X226002Y260054D01*
X225980Y260040D01*
X225958Y260011D01*
X225922Y259974D01*
X225885Y259923D01*
X225849Y259865D01*
X225812Y259799D01*
X225783Y259719D01*
X225776Y259705D01*
X225769Y259661D01*
X225754Y259595D01*
X225732Y259508D01*
X225710Y259398D01*
X225696Y259275D01*
X225688Y259143D01*
X225681Y258998D01*
Y257087D01*
X225061D01*
Y260747D01*
X225623D01*
Y260193D01*
X225630Y260200D01*
X225659Y260251D01*
X225696Y260317D01*
X225754Y260397D01*
X225812Y260477D01*
X225878Y260565D01*
X225944Y260638D01*
X226009Y260696D01*
X226016Y260703D01*
X226038Y260718D01*
X226082Y260740D01*
X226126Y260762D01*
X226184Y260784D01*
X226257Y260805D01*
X226330Y260820D01*
X226410Y260827D01*
X226461D01*
X226527Y260820D01*
D02*
G37*
G36*
X228765D02*
X228874Y260813D01*
X228991Y260798D01*
X229115Y260769D01*
X229246Y260740D01*
X229370Y260696D01*
X229377D01*
X229384Y260689D01*
X229421Y260674D01*
X229479Y260645D01*
X229552Y260609D01*
X229632Y260558D01*
X229713Y260499D01*
X229785Y260434D01*
X229851Y260361D01*
X229858Y260353D01*
X229873Y260324D01*
X229902Y260273D01*
X229939Y260215D01*
X229975Y260127D01*
X230011Y260033D01*
X230041Y259923D01*
X230070Y259799D01*
X229465Y259719D01*
Y259734D01*
X229457Y259763D01*
X229443Y259814D01*
X229421Y259880D01*
X229384Y259945D01*
X229341Y260018D01*
X229290Y260091D01*
X229217Y260157D01*
X229209Y260164D01*
X229180Y260178D01*
X229137Y260208D01*
X229071Y260237D01*
X228998Y260266D01*
X228903Y260295D01*
X228787Y260310D01*
X228663Y260317D01*
X228590D01*
X228517Y260310D01*
X228422Y260302D01*
X228327Y260280D01*
X228225Y260259D01*
X228131Y260222D01*
X228050Y260171D01*
X228043Y260164D01*
X228021Y260149D01*
X227992Y260120D01*
X227963Y260076D01*
X227926Y260033D01*
X227897Y259974D01*
X227875Y259909D01*
X227868Y259843D01*
Y259836D01*
Y259821D01*
X227875Y259799D01*
Y259770D01*
X227897Y259697D01*
X227941Y259624D01*
X227948Y259617D01*
X227956Y259610D01*
X227970Y259588D01*
X227999Y259566D01*
X228028Y259544D01*
X228072Y259515D01*
X228123Y259493D01*
X228182Y259464D01*
X228189D01*
X228204Y259457D01*
X228233Y259449D01*
X228284Y259428D01*
X228357Y259406D01*
X228451Y259384D01*
X228510Y259362D01*
X228575Y259347D01*
X228648Y259326D01*
X228728Y259304D01*
X228736D01*
X228758Y259296D01*
X228794Y259289D01*
X228838Y259275D01*
X228889Y259260D01*
X228954Y259245D01*
X229093Y259202D01*
X229246Y259158D01*
X229399Y259107D01*
X229538Y259056D01*
X229596Y259034D01*
X229647Y259012D01*
X229661Y259005D01*
X229691Y258990D01*
X229734Y258968D01*
X229800Y258932D01*
X229866Y258888D01*
X229931Y258830D01*
X229997Y258764D01*
X230055Y258691D01*
X230062Y258684D01*
X230077Y258655D01*
X230106Y258611D01*
X230135Y258545D01*
X230157Y258465D01*
X230186Y258378D01*
X230201Y258276D01*
X230208Y258159D01*
Y258144D01*
Y258108D01*
X230201Y258050D01*
X230186Y257970D01*
X230165Y257882D01*
X230128Y257787D01*
X230084Y257678D01*
X230026Y257576D01*
X230019Y257561D01*
X229990Y257532D01*
X229953Y257481D01*
X229895Y257423D01*
X229815Y257357D01*
X229727Y257284D01*
X229625Y257219D01*
X229501Y257153D01*
X229494D01*
X229486Y257146D01*
X229443Y257131D01*
X229370Y257109D01*
X229275Y257080D01*
X229158Y257051D01*
X229027Y257029D01*
X228889Y257015D01*
X228728Y257007D01*
X228663D01*
X228612Y257015D01*
X228553D01*
X228481Y257022D01*
X228408Y257029D01*
X228327Y257044D01*
X228152Y257080D01*
X227970Y257131D01*
X227795Y257204D01*
X227715Y257248D01*
X227642Y257299D01*
X227635Y257306D01*
X227628Y257313D01*
X227584Y257357D01*
X227518Y257423D01*
X227445Y257525D01*
X227365Y257649D01*
X227285Y257795D01*
X227219Y257977D01*
X227168Y258181D01*
X227781Y258276D01*
Y258268D01*
Y258261D01*
X227795Y258217D01*
X227810Y258144D01*
X227839Y258064D01*
X227875Y257977D01*
X227919Y257882D01*
X227985Y257787D01*
X228065Y257707D01*
X228080Y257700D01*
X228109Y257678D01*
X228167Y257649D01*
X228240Y257612D01*
X228335Y257576D01*
X228444Y257547D01*
X228575Y257525D01*
X228728Y257518D01*
X228801D01*
X228874Y257525D01*
X228969Y257540D01*
X229071Y257561D01*
X229180Y257591D01*
X229275Y257627D01*
X229363Y257685D01*
X229370Y257693D01*
X229399Y257714D01*
X229428Y257751D01*
X229472Y257802D01*
X229508Y257860D01*
X229545Y257933D01*
X229567Y258006D01*
X229574Y258094D01*
Y258101D01*
Y258130D01*
X229567Y258166D01*
X229552Y258217D01*
X229530Y258268D01*
X229494Y258319D01*
X229450Y258378D01*
X229384Y258421D01*
X229377Y258429D01*
X229355Y258436D01*
X229319Y258458D01*
X229260Y258480D01*
X229173Y258509D01*
X229122Y258531D01*
X229064Y258545D01*
X228998Y258567D01*
X228925Y258589D01*
X228845Y258611D01*
X228750Y258633D01*
X228743D01*
X228721Y258640D01*
X228685Y258647D01*
X228641Y258662D01*
X228583Y258677D01*
X228517Y258699D01*
X228378Y258735D01*
X228218Y258786D01*
X228065Y258830D01*
X227919Y258881D01*
X227853Y258910D01*
X227802Y258932D01*
X227788Y258939D01*
X227759Y258954D01*
X227715Y258983D01*
X227657Y259019D01*
X227591Y259070D01*
X227525Y259129D01*
X227460Y259194D01*
X227402Y259275D01*
X227394Y259282D01*
X227380Y259311D01*
X227358Y259362D01*
X227336Y259420D01*
X227314Y259493D01*
X227292Y259581D01*
X227278Y259668D01*
X227270Y259770D01*
Y259785D01*
Y259814D01*
X227278Y259858D01*
X227285Y259923D01*
X227299Y259989D01*
X227314Y260069D01*
X227343Y260142D01*
X227380Y260222D01*
X227387Y260229D01*
X227402Y260259D01*
X227423Y260295D01*
X227460Y260346D01*
X227504Y260397D01*
X227555Y260463D01*
X227613Y260521D01*
X227686Y260572D01*
X227693Y260579D01*
X227715Y260587D01*
X227744Y260609D01*
X227788Y260630D01*
X227846Y260660D01*
X227912Y260689D01*
X227992Y260718D01*
X228080Y260747D01*
X228094Y260754D01*
X228123Y260762D01*
X228174Y260776D01*
X228240Y260791D01*
X228320Y260805D01*
X228408Y260813D01*
X228510Y260827D01*
X228685D01*
X228765Y260820D01*
D02*
G37*
G36*
X218654Y257087D02*
X217954D01*
X216000Y262132D01*
X216729D01*
X218041Y258465D01*
Y258458D01*
X218049Y258443D01*
X218056Y258421D01*
X218070Y258392D01*
X218078Y258349D01*
X218092Y258305D01*
X218129Y258196D01*
X218172Y258072D01*
X218216Y257933D01*
X218304Y257642D01*
Y257649D01*
X218311Y257663D01*
X218318Y257685D01*
X218325Y257714D01*
X218347Y257795D01*
X218384Y257904D01*
X218420Y258028D01*
X218464Y258166D01*
X218515Y258312D01*
X218573Y258465D01*
X219944Y262132D01*
X220622D01*
X218654Y257087D01*
D02*
G37*
G36*
X247121D02*
X246414D01*
Y257795D01*
X247121D01*
Y257087D01*
D02*
G37*
G36*
X244475D02*
X243855D01*
Y261031D01*
X243848Y261024D01*
X243811Y260995D01*
X243768Y260951D01*
X243695Y260900D01*
X243615Y260835D01*
X243513Y260762D01*
X243396Y260681D01*
X243265Y260601D01*
X243257D01*
X243250Y260594D01*
X243206Y260565D01*
X243133Y260528D01*
X243046Y260485D01*
X242944Y260434D01*
X242834Y260383D01*
X242725Y260332D01*
X242616Y260288D01*
Y260886D01*
X242623D01*
X242638Y260900D01*
X242667Y260907D01*
X242703Y260929D01*
X242747Y260951D01*
X242798Y260980D01*
X242922Y261053D01*
X243068Y261133D01*
X243214Y261235D01*
X243367Y261352D01*
X243520Y261476D01*
X243527Y261483D01*
X243534Y261491D01*
X243556Y261512D01*
X243585Y261534D01*
X243651Y261607D01*
X243739Y261695D01*
X243826Y261797D01*
X243921Y261913D01*
X244001Y262030D01*
X244074Y262154D01*
X244475D01*
Y257087D01*
D02*
G37*
G36*
X231564D02*
X230944D01*
Y260747D01*
X231564D01*
Y257087D01*
D02*
G37*
G36*
X234116Y260820D02*
X234181Y260813D01*
X234254Y260798D01*
X234334Y260784D01*
X234429Y260769D01*
X234626Y260703D01*
X234728Y260667D01*
X234830Y260616D01*
X234932Y260565D01*
X235034Y260492D01*
X235129Y260419D01*
X235224Y260332D01*
X235231Y260324D01*
X235246Y260310D01*
X235267Y260280D01*
X235297Y260244D01*
X235333Y260193D01*
X235377Y260127D01*
X235421Y260054D01*
X235464Y259974D01*
X235508Y259887D01*
X235552Y259777D01*
X235595Y259668D01*
X235632Y259544D01*
X235661Y259413D01*
X235683Y259275D01*
X235698Y259129D01*
X235705Y258968D01*
Y258961D01*
Y258939D01*
Y258903D01*
Y258852D01*
X235698Y258793D01*
X235690Y258720D01*
Y258647D01*
X235676Y258567D01*
X235654Y258385D01*
X235610Y258203D01*
X235559Y258021D01*
X235486Y257853D01*
Y257846D01*
X235479Y257838D01*
X235464Y257817D01*
X235450Y257787D01*
X235399Y257714D01*
X235333Y257627D01*
X235246Y257525D01*
X235136Y257423D01*
X235012Y257321D01*
X234866Y257226D01*
X234859D01*
X234852Y257219D01*
X234830Y257204D01*
X234794Y257189D01*
X234757Y257175D01*
X234713Y257160D01*
X234604Y257117D01*
X234480Y257080D01*
X234327Y257044D01*
X234167Y257015D01*
X233992Y257007D01*
X233919D01*
X233860Y257015D01*
X233795Y257022D01*
X233722Y257036D01*
X233634Y257051D01*
X233547Y257066D01*
X233350Y257124D01*
X233241Y257168D01*
X233139Y257211D01*
X233037Y257270D01*
X232935Y257335D01*
X232840Y257408D01*
X232745Y257496D01*
X232738Y257503D01*
X232723Y257518D01*
X232701Y257547D01*
X232672Y257591D01*
X232636Y257642D01*
X232599Y257700D01*
X232556Y257773D01*
X232512Y257860D01*
X232468Y257955D01*
X232424Y258064D01*
X232388Y258181D01*
X232351Y258305D01*
X232322Y258443D01*
X232300Y258589D01*
X232286Y258750D01*
X232279Y258917D01*
Y258932D01*
Y258961D01*
X232286Y259012D01*
Y259085D01*
X232293Y259165D01*
X232308Y259267D01*
X232322Y259369D01*
X232351Y259486D01*
X232381Y259602D01*
X232417Y259727D01*
X232461Y259858D01*
X232519Y259982D01*
X232577Y260098D01*
X232658Y260215D01*
X232738Y260324D01*
X232840Y260419D01*
X232847Y260426D01*
X232862Y260434D01*
X232891Y260455D01*
X232927Y260485D01*
X232971Y260514D01*
X233029Y260550D01*
X233088Y260587D01*
X233161Y260623D01*
X233241Y260660D01*
X233328Y260696D01*
X233525Y260762D01*
X233751Y260813D01*
X233868Y260820D01*
X233992Y260827D01*
X234065D01*
X234116Y260820D01*
D02*
G37*
G36*
X222765D02*
X222823Y260813D01*
X222896Y260798D01*
X222976Y260784D01*
X223071Y260762D01*
X223159Y260740D01*
X223261Y260703D01*
X223356Y260667D01*
X223458Y260616D01*
X223560Y260558D01*
X223662Y260492D01*
X223757Y260412D01*
X223844Y260324D01*
X223851Y260317D01*
X223866Y260302D01*
X223888Y260273D01*
X223917Y260229D01*
X223953Y260178D01*
X223990Y260120D01*
X224034Y260047D01*
X224077Y259960D01*
X224121Y259865D01*
X224165Y259763D01*
X224201Y259646D01*
X224238Y259522D01*
X224267Y259384D01*
X224289Y259238D01*
X224303Y259085D01*
X224311Y258917D01*
Y258910D01*
Y258881D01*
Y258830D01*
X224303Y258757D01*
X221570D01*
Y258750D01*
Y258728D01*
X221577Y258699D01*
Y258655D01*
X221584Y258604D01*
X221599Y258545D01*
X221621Y258414D01*
X221664Y258268D01*
X221723Y258108D01*
X221803Y257962D01*
X221905Y257831D01*
X221912D01*
X221919Y257817D01*
X221963Y257780D01*
X222029Y257729D01*
X222116Y257678D01*
X222233Y257620D01*
X222364Y257569D01*
X222510Y257532D01*
X222590Y257525D01*
X222678Y257518D01*
X222736D01*
X222802Y257525D01*
X222882Y257540D01*
X222969Y257561D01*
X223071Y257591D01*
X223166Y257634D01*
X223261Y257693D01*
X223268Y257700D01*
X223305Y257729D01*
X223348Y257773D01*
X223399Y257831D01*
X223458Y257911D01*
X223523Y258013D01*
X223589Y258130D01*
X223647Y258268D01*
X224289Y258188D01*
Y258181D01*
X224281Y258166D01*
X224274Y258137D01*
X224260Y258094D01*
X224238Y258050D01*
X224216Y257991D01*
X224158Y257868D01*
X224085Y257729D01*
X223983Y257583D01*
X223866Y257445D01*
X223720Y257313D01*
X223713D01*
X223698Y257299D01*
X223676Y257284D01*
X223647Y257262D01*
X223604Y257241D01*
X223560Y257219D01*
X223501Y257189D01*
X223436Y257160D01*
X223363Y257131D01*
X223290Y257102D01*
X223108Y257058D01*
X222904Y257022D01*
X222678Y257007D01*
X222597D01*
X222546Y257015D01*
X222481Y257022D01*
X222401Y257036D01*
X222313Y257051D01*
X222218Y257066D01*
X222014Y257124D01*
X221905Y257168D01*
X221803Y257211D01*
X221693Y257270D01*
X221591Y257335D01*
X221497Y257408D01*
X221402Y257496D01*
X221395Y257503D01*
X221380Y257518D01*
X221358Y257547D01*
X221329Y257591D01*
X221292Y257642D01*
X221256Y257700D01*
X221212Y257773D01*
X221169Y257853D01*
X221125Y257948D01*
X221081Y258050D01*
X221045Y258166D01*
X221008Y258290D01*
X220979Y258421D01*
X220957Y258567D01*
X220943Y258720D01*
X220935Y258881D01*
Y258888D01*
Y258925D01*
Y258968D01*
X220943Y259034D01*
X220950Y259114D01*
X220957Y259202D01*
X220972Y259304D01*
X220994Y259406D01*
X221052Y259639D01*
X221088Y259756D01*
X221132Y259880D01*
X221191Y259996D01*
X221256Y260105D01*
X221329Y260215D01*
X221409Y260317D01*
X221416Y260324D01*
X221431Y260339D01*
X221460Y260361D01*
X221497Y260397D01*
X221540Y260434D01*
X221599Y260477D01*
X221664Y260528D01*
X221744Y260572D01*
X221825Y260623D01*
X221919Y260667D01*
X222022Y260711D01*
X222131Y260747D01*
X222248Y260784D01*
X222372Y260805D01*
X222503Y260820D01*
X222641Y260827D01*
X222714D01*
X222765Y260820D01*
D02*
G37*
G36*
X249818Y262147D02*
X249913Y262132D01*
X250022Y262110D01*
X250139Y262081D01*
X250263Y262045D01*
X250380Y261986D01*
X250387D01*
X250394Y261979D01*
X250431Y261957D01*
X250489Y261921D01*
X250562Y261870D01*
X250642Y261797D01*
X250730Y261717D01*
X250810Y261622D01*
X250890Y261512D01*
X250897Y261498D01*
X250926Y261461D01*
X250956Y261396D01*
X251007Y261301D01*
X251050Y261192D01*
X251109Y261068D01*
X251160Y260922D01*
X251203Y260762D01*
Y260754D01*
X251211Y260740D01*
X251218Y260718D01*
X251225Y260681D01*
X251233Y260638D01*
X251240Y260587D01*
X251254Y260521D01*
X251262Y260448D01*
X251276Y260368D01*
X251284Y260280D01*
X251291Y260178D01*
X251306Y260076D01*
X251313Y259960D01*
Y259843D01*
X251320Y259712D01*
Y259573D01*
Y259566D01*
Y259537D01*
Y259486D01*
Y259428D01*
X251313Y259347D01*
Y259260D01*
X251306Y259165D01*
X251298Y259063D01*
X251276Y258830D01*
X251240Y258589D01*
X251196Y258356D01*
X251167Y258247D01*
X251131Y258137D01*
Y258130D01*
X251123Y258115D01*
X251109Y258086D01*
X251094Y258050D01*
X251080Y257999D01*
X251050Y257948D01*
X250992Y257824D01*
X250919Y257693D01*
X250824Y257547D01*
X250715Y257416D01*
X250584Y257292D01*
X250576D01*
X250569Y257277D01*
X250547Y257262D01*
X250518Y257248D01*
X250482Y257226D01*
X250445Y257197D01*
X250336Y257146D01*
X250205Y257095D01*
X250052Y257044D01*
X249869Y257015D01*
X249673Y257000D01*
X249600D01*
X249549Y257007D01*
X249490Y257015D01*
X249417Y257029D01*
X249337Y257044D01*
X249250Y257066D01*
X249162Y257095D01*
X249067Y257124D01*
X248973Y257168D01*
X248878Y257219D01*
X248783Y257277D01*
X248688Y257350D01*
X248601Y257430D01*
X248521Y257518D01*
X248513Y257525D01*
X248499Y257547D01*
X248477Y257583D01*
X248441Y257642D01*
X248404Y257707D01*
X248368Y257795D01*
X248317Y257897D01*
X248273Y258013D01*
X248229Y258144D01*
X248185Y258298D01*
X248142Y258465D01*
X248105Y258655D01*
X248069Y258859D01*
X248047Y259078D01*
X248032Y259318D01*
X248025Y259573D01*
Y259581D01*
Y259610D01*
Y259661D01*
Y259719D01*
X248032Y259799D01*
Y259887D01*
X248040Y259982D01*
X248047Y260091D01*
X248069Y260317D01*
X248105Y260558D01*
X248149Y260798D01*
X248178Y260907D01*
X248207Y261017D01*
Y261024D01*
X248215Y261039D01*
X248229Y261068D01*
X248244Y261104D01*
X248258Y261155D01*
X248287Y261206D01*
X248346Y261330D01*
X248419Y261461D01*
X248513Y261600D01*
X248623Y261738D01*
X248754Y261855D01*
X248761D01*
X248769Y261870D01*
X248790Y261884D01*
X248820Y261899D01*
X248856Y261928D01*
X248900Y261950D01*
X249009Y262008D01*
X249140Y262059D01*
X249293Y262110D01*
X249476Y262139D01*
X249673Y262154D01*
X249738D01*
X249818Y262147D01*
D02*
G37*
G36*
X228166Y272949D02*
X226713D01*
Y274293D01*
X228166D01*
Y272949D01*
D02*
G37*
G36*
X270564Y272326D02*
X270684Y272315D01*
X270815Y272293D01*
X270957Y272260D01*
X271110Y272217D01*
X271263Y272162D01*
X271285Y272151D01*
X271329Y272129D01*
X271406Y272096D01*
X271493Y272042D01*
X271591Y271976D01*
X271690Y271900D01*
X271788Y271812D01*
X271876Y271714D01*
X271886Y271703D01*
X271908Y271670D01*
X271941Y271615D01*
X271985Y271539D01*
X272039Y271451D01*
X272083Y271342D01*
X272127Y271233D01*
X272160Y271102D01*
Y271091D01*
X272171Y271036D01*
X272193Y270960D01*
X272203Y270850D01*
X272225Y270719D01*
X272236Y270544D01*
X272247Y270358D01*
Y270129D01*
Y266730D01*
X270793D01*
Y269517D01*
Y269528D01*
Y269561D01*
Y269604D01*
Y269659D01*
Y269736D01*
Y269812D01*
X270782Y269998D01*
X270772Y270184D01*
X270750Y270380D01*
X270728Y270544D01*
X270717Y270610D01*
X270695Y270665D01*
Y270675D01*
X270673Y270708D01*
X270651Y270752D01*
X270619Y270817D01*
X270520Y270949D01*
X270465Y271014D01*
X270389Y271069D01*
X270378Y271080D01*
X270356Y271091D01*
X270312Y271113D01*
X270247Y271145D01*
X270170Y271178D01*
X270094Y271200D01*
X269995Y271211D01*
X269886Y271222D01*
X269821D01*
X269755Y271211D01*
X269668Y271200D01*
X269558Y271167D01*
X269449Y271134D01*
X269329Y271080D01*
X269209Y271014D01*
X269198Y271003D01*
X269165Y270982D01*
X269110Y270927D01*
X269045Y270872D01*
X268979Y270785D01*
X268914Y270697D01*
X268848Y270577D01*
X268804Y270457D01*
Y270446D01*
X268782Y270391D01*
X268771Y270304D01*
X268749Y270173D01*
X268739Y270096D01*
X268728Y269998D01*
X268717Y269899D01*
Y269779D01*
X268706Y269659D01*
X268695Y269517D01*
Y269364D01*
Y269200D01*
Y266730D01*
X267241D01*
Y272217D01*
X268586D01*
Y271408D01*
X268597Y271419D01*
X268618Y271451D01*
X268662Y271495D01*
X268717Y271550D01*
X268782Y271626D01*
X268870Y271703D01*
X268968Y271790D01*
X269077Y271878D01*
X269198Y271954D01*
X269340Y272042D01*
X269482Y272118D01*
X269646Y272195D01*
X269821Y272249D01*
X269995Y272293D01*
X270192Y272326D01*
X270389Y272337D01*
X270465D01*
X270564Y272326D01*
D02*
G37*
G36*
X245305D02*
X245425Y272315D01*
X245556Y272293D01*
X245698Y272260D01*
X245851Y272217D01*
X246004Y272162D01*
X246026Y272151D01*
X246070Y272129D01*
X246146Y272096D01*
X246234Y272042D01*
X246332Y271976D01*
X246430Y271900D01*
X246529Y271812D01*
X246616Y271714D01*
X246627Y271703D01*
X246649Y271670D01*
X246682Y271615D01*
X246726Y271539D01*
X246780Y271451D01*
X246824Y271342D01*
X246868Y271233D01*
X246900Y271102D01*
Y271091D01*
X246911Y271036D01*
X246933Y270960D01*
X246944Y270850D01*
X246966Y270719D01*
X246977Y270544D01*
X246988Y270358D01*
Y270129D01*
Y266730D01*
X245534D01*
Y269517D01*
Y269528D01*
Y269561D01*
Y269604D01*
Y269659D01*
Y269736D01*
Y269812D01*
X245523Y269998D01*
X245512Y270184D01*
X245491Y270380D01*
X245469Y270544D01*
X245458Y270610D01*
X245436Y270665D01*
Y270675D01*
X245414Y270708D01*
X245392Y270752D01*
X245359Y270817D01*
X245261Y270949D01*
X245206Y271014D01*
X245130Y271069D01*
X245119Y271080D01*
X245097Y271091D01*
X245053Y271113D01*
X244988Y271145D01*
X244911Y271178D01*
X244835Y271200D01*
X244736Y271211D01*
X244627Y271222D01*
X244561D01*
X244496Y271211D01*
X244408Y271200D01*
X244299Y271167D01*
X244190Y271134D01*
X244070Y271080D01*
X243949Y271014D01*
X243938Y271003D01*
X243906Y270982D01*
X243851Y270927D01*
X243785Y270872D01*
X243720Y270785D01*
X243654Y270697D01*
X243589Y270577D01*
X243545Y270457D01*
Y270446D01*
X243523Y270391D01*
X243512Y270304D01*
X243490Y270173D01*
X243479Y270096D01*
X243468Y269998D01*
X243458Y269899D01*
Y269779D01*
X243447Y269659D01*
X243436Y269517D01*
Y269364D01*
Y269200D01*
Y266730D01*
X241982D01*
Y272217D01*
X243326D01*
Y271408D01*
X243337Y271419D01*
X243359Y271451D01*
X243403Y271495D01*
X243458Y271550D01*
X243523Y271626D01*
X243611Y271703D01*
X243709Y271790D01*
X243818Y271878D01*
X243938Y271954D01*
X244080Y272042D01*
X244223Y272118D01*
X244387Y272195D01*
X244561Y272249D01*
X244736Y272293D01*
X244933Y272326D01*
X245130Y272337D01*
X245206D01*
X245305Y272326D01*
D02*
G37*
G36*
X208285D02*
X208405Y272315D01*
X208536Y272293D01*
X208678Y272260D01*
X208831Y272217D01*
X208984Y272162D01*
X209006Y272151D01*
X209050Y272129D01*
X209126Y272096D01*
X209214Y272042D01*
X209312Y271976D01*
X209411Y271900D01*
X209509Y271812D01*
X209596Y271714D01*
X209607Y271703D01*
X209629Y271670D01*
X209662Y271615D01*
X209706Y271539D01*
X209760Y271451D01*
X209804Y271342D01*
X209848Y271233D01*
X209880Y271102D01*
Y271091D01*
X209892Y271036D01*
X209913Y270960D01*
X209924Y270850D01*
X209946Y270719D01*
X209957Y270544D01*
X209968Y270358D01*
Y270129D01*
Y266730D01*
X208514D01*
Y269517D01*
Y269528D01*
Y269561D01*
Y269604D01*
Y269659D01*
Y269736D01*
Y269812D01*
X208503Y269998D01*
X208492Y270184D01*
X208471Y270380D01*
X208449Y270544D01*
X208438Y270610D01*
X208416Y270665D01*
Y270675D01*
X208394Y270708D01*
X208372Y270752D01*
X208339Y270817D01*
X208241Y270949D01*
X208186Y271014D01*
X208110Y271069D01*
X208099Y271080D01*
X208077Y271091D01*
X208033Y271113D01*
X207968Y271145D01*
X207891Y271178D01*
X207815Y271200D01*
X207716Y271211D01*
X207607Y271222D01*
X207541D01*
X207476Y271211D01*
X207388Y271200D01*
X207279Y271167D01*
X207170Y271134D01*
X207050Y271080D01*
X206929Y271014D01*
X206919Y271003D01*
X206886Y270982D01*
X206831Y270927D01*
X206766Y270872D01*
X206700Y270785D01*
X206634Y270697D01*
X206569Y270577D01*
X206525Y270457D01*
Y270446D01*
X206503Y270391D01*
X206492Y270304D01*
X206470Y270173D01*
X206459Y270096D01*
X206449Y269998D01*
X206438Y269899D01*
Y269779D01*
X206427Y269659D01*
X206416Y269517D01*
Y269364D01*
Y269200D01*
Y266730D01*
X204962D01*
Y272217D01*
X206306D01*
Y271408D01*
X206317Y271419D01*
X206339Y271451D01*
X206383Y271495D01*
X206438Y271550D01*
X206503Y271626D01*
X206591Y271703D01*
X206689Y271790D01*
X206798Y271878D01*
X206919Y271954D01*
X207061Y272042D01*
X207203Y272118D01*
X207367Y272195D01*
X207541Y272249D01*
X207716Y272293D01*
X207913Y272326D01*
X208110Y272337D01*
X208186D01*
X208285Y272326D01*
D02*
G37*
G36*
X263755D02*
X263842D01*
X264060Y272304D01*
X264290Y272282D01*
X264530Y272238D01*
X264760Y272173D01*
X264858Y272140D01*
X264957Y272096D01*
X264968D01*
X264979Y272085D01*
X265033Y272053D01*
X265121Y272009D01*
X265219Y271943D01*
X265339Y271856D01*
X265449Y271758D01*
X265547Y271637D01*
X265634Y271517D01*
X265645Y271495D01*
X265667Y271451D01*
X265700Y271353D01*
X265711Y271299D01*
X265733Y271222D01*
X265755Y271145D01*
X265766Y271047D01*
X265788Y270938D01*
X265798Y270817D01*
X265809Y270686D01*
X265820Y270544D01*
X265831Y270391D01*
Y270216D01*
X265809Y268522D01*
Y268511D01*
Y268489D01*
Y268457D01*
Y268402D01*
Y268271D01*
X265820Y268118D01*
Y267943D01*
X265842Y267768D01*
X265853Y267593D01*
X265875Y267451D01*
Y267440D01*
X265886Y267396D01*
X265908Y267320D01*
X265930Y267232D01*
X265973Y267123D01*
X266017Y267003D01*
X266072Y266872D01*
X266137Y266730D01*
X264705D01*
Y266741D01*
X264694Y266752D01*
X264684Y266795D01*
X264662Y266839D01*
X264640Y266894D01*
X264618Y266970D01*
X264596Y267058D01*
X264563Y267156D01*
Y267167D01*
X264552Y267178D01*
X264542Y267222D01*
X264520Y267276D01*
X264509Y267320D01*
X264487Y267309D01*
X264443Y267265D01*
X264367Y267200D01*
X264268Y267123D01*
X264148Y267036D01*
X264017Y266937D01*
X263864Y266861D01*
X263711Y266784D01*
X263689Y266773D01*
X263634Y266762D01*
X263547Y266730D01*
X263438Y266697D01*
X263306Y266664D01*
X263153Y266642D01*
X262979Y266620D01*
X262804Y266610D01*
X262727D01*
X262662Y266620D01*
X262596D01*
X262509Y266631D01*
X262323Y266664D01*
X262104Y266719D01*
X261885Y266795D01*
X261667Y266905D01*
X261470Y267058D01*
Y267069D01*
X261448Y267079D01*
X261394Y267145D01*
X261317Y267243D01*
X261230Y267375D01*
X261142Y267538D01*
X261066Y267735D01*
X261011Y267965D01*
X261000Y268085D01*
X260989Y268216D01*
Y268238D01*
Y268293D01*
X261000Y268380D01*
X261022Y268489D01*
X261044Y268621D01*
X261077Y268752D01*
X261131Y268894D01*
X261208Y269036D01*
X261219Y269058D01*
X261251Y269102D01*
X261295Y269167D01*
X261372Y269244D01*
X261448Y269331D01*
X261558Y269429D01*
X261678Y269517D01*
X261820Y269593D01*
X261842Y269604D01*
X261896Y269626D01*
X261984Y269659D01*
X262115Y269714D01*
X262279Y269768D01*
X262476Y269823D01*
X262716Y269878D01*
X262979Y269932D01*
X262989D01*
X263022Y269943D01*
X263077Y269954D01*
X263142Y269965D01*
X263230Y269976D01*
X263328Y269998D01*
X263547Y270052D01*
X263776Y270107D01*
X264017Y270162D01*
X264225Y270227D01*
X264323Y270260D01*
X264399Y270293D01*
Y270435D01*
Y270457D01*
Y270501D01*
X264388Y270577D01*
X264377Y270675D01*
X264345Y270774D01*
X264312Y270872D01*
X264257Y270960D01*
X264181Y271036D01*
X264170Y271047D01*
X264137Y271069D01*
X264082Y271091D01*
X264006Y271134D01*
X263897Y271167D01*
X263765Y271189D01*
X263601Y271211D01*
X263405Y271222D01*
X263339D01*
X263274Y271211D01*
X263186Y271200D01*
X263088Y271178D01*
X262979Y271156D01*
X262880Y271113D01*
X262793Y271058D01*
X262782Y271047D01*
X262760Y271025D01*
X262716Y270992D01*
X262672Y270938D01*
X262607Y270861D01*
X262552Y270763D01*
X262498Y270654D01*
X262443Y270522D01*
X261142Y270763D01*
Y270774D01*
X261153Y270796D01*
X261164Y270839D01*
X261186Y270894D01*
X261208Y270960D01*
X261241Y271036D01*
X261317Y271211D01*
X261426Y271397D01*
X261558Y271594D01*
X261711Y271779D01*
X261896Y271943D01*
X261907D01*
X261918Y271965D01*
X261951Y271976D01*
X261995Y272009D01*
X262060Y272031D01*
X262126Y272064D01*
X262213Y272107D01*
X262301Y272140D01*
X262410Y272173D01*
X262530Y272217D01*
X262662Y272249D01*
X262814Y272271D01*
X262967Y272304D01*
X263142Y272315D01*
X263317Y272337D01*
X263678D01*
X263755Y272326D01*
D02*
G37*
G36*
X260126Y273014D02*
X256464D01*
Y271222D01*
X259623D01*
Y269943D01*
X256464D01*
Y266730D01*
X254934D01*
Y274293D01*
X260126D01*
Y273014D01*
D02*
G37*
G36*
X228166Y266730D02*
X226713D01*
Y272217D01*
X228166D01*
Y266730D01*
D02*
G37*
G36*
X225226D02*
X223773D01*
Y274293D01*
X225226D01*
Y266730D01*
D02*
G37*
G36*
X222286D02*
X220832D01*
Y274293D01*
X222286D01*
Y266730D01*
D02*
G37*
G36*
X203530D02*
X202000D01*
Y274293D01*
X203530D01*
Y266730D01*
D02*
G37*
G36*
X249983Y272217D02*
X250977D01*
Y271058D01*
X249983D01*
Y268839D01*
Y268828D01*
Y268806D01*
Y268774D01*
Y268730D01*
Y268621D01*
Y268489D01*
X249994Y268358D01*
Y268227D01*
Y268129D01*
X250005Y268085D01*
Y268063D01*
X250015Y268041D01*
X250037Y267998D01*
X250070Y267943D01*
X250136Y267877D01*
X250158Y267866D01*
X250201Y267845D01*
X250278Y267823D01*
X250376Y267812D01*
X250420D01*
X250464Y267823D01*
X250529Y267834D01*
X250617Y267845D01*
X250715Y267866D01*
X250835Y267899D01*
X250966Y267943D01*
X251098Y266817D01*
X251087D01*
X251076Y266806D01*
X251010Y266784D01*
X250901Y266752D01*
X250759Y266719D01*
X250595Y266675D01*
X250398Y266642D01*
X250179Y266620D01*
X249950Y266610D01*
X249884D01*
X249808Y266620D01*
X249710Y266631D01*
X249600Y266642D01*
X249480Y266664D01*
X249360Y266697D01*
X249239Y266741D01*
X249229Y266752D01*
X249185Y266762D01*
X249130Y266795D01*
X249065Y266828D01*
X248912Y266937D01*
X248835Y267003D01*
X248769Y267079D01*
X248759Y267090D01*
X248748Y267123D01*
X248726Y267167D01*
X248693Y267232D01*
X248660Y267309D01*
X248627Y267407D01*
X248595Y267517D01*
X248573Y267637D01*
Y267648D01*
X248562Y267692D01*
Y267757D01*
X248551Y267866D01*
X248540Y268008D01*
Y268183D01*
X248529Y268282D01*
Y268402D01*
Y268522D01*
Y268664D01*
Y271058D01*
X247862D01*
Y272217D01*
X248529D01*
Y273310D01*
X249983Y274162D01*
Y272217D01*
D02*
G37*
G36*
X238408Y272326D02*
X238506Y272315D01*
X238626Y272293D01*
X238758Y272271D01*
X238900Y272238D01*
X239053Y272195D01*
X239206Y272140D01*
X239370Y272075D01*
X239534Y271987D01*
X239687Y271900D01*
X239840Y271790D01*
X239993Y271659D01*
X240124Y271517D01*
X240135Y271506D01*
X240157Y271484D01*
X240189Y271430D01*
X240233Y271364D01*
X240288Y271277D01*
X240342Y271178D01*
X240408Y271047D01*
X240474Y270905D01*
X240539Y270741D01*
X240605Y270555D01*
X240659Y270358D01*
X240714Y270129D01*
X240758Y269888D01*
X240791Y269626D01*
X240812Y269353D01*
Y269047D01*
X237184D01*
Y269036D01*
Y269014D01*
Y268981D01*
X237195Y268938D01*
X237206Y268828D01*
X237227Y268675D01*
X237271Y268522D01*
X237337Y268347D01*
X237413Y268183D01*
X237523Y268041D01*
X237533Y268030D01*
X237588Y267987D01*
X237654Y267932D01*
X237752Y267866D01*
X237872Y267801D01*
X238025Y267746D01*
X238189Y267703D01*
X238364Y267692D01*
X238419D01*
X238484Y267703D01*
X238561Y267713D01*
X238648Y267735D01*
X238747Y267768D01*
X238845Y267812D01*
X238932Y267877D01*
X238943Y267888D01*
X238976Y267910D01*
X239020Y267954D01*
X239064Y268020D01*
X239129Y268107D01*
X239184Y268205D01*
X239239Y268336D01*
X239293Y268478D01*
X240736Y268238D01*
Y268227D01*
X240725Y268205D01*
X240703Y268162D01*
X240681Y268107D01*
X240649Y268041D01*
X240616Y267965D01*
X240517Y267790D01*
X240397Y267593D01*
X240244Y267386D01*
X240058Y267200D01*
X239851Y267025D01*
X239840D01*
X239829Y267003D01*
X239785Y266992D01*
X239741Y266959D01*
X239687Y266927D01*
X239610Y266894D01*
X239534Y266861D01*
X239435Y266817D01*
X239217Y266741D01*
X238965Y266675D01*
X238670Y266631D01*
X238353Y266610D01*
X238288D01*
X238222Y266620D01*
X238124D01*
X238003Y266642D01*
X237861Y266664D01*
X237708Y266686D01*
X237555Y266730D01*
X237380Y266773D01*
X237206Y266839D01*
X237031Y266915D01*
X236856Y267003D01*
X236681Y267112D01*
X236517Y267232D01*
X236375Y267375D01*
X236233Y267538D01*
X236222Y267549D01*
X236211Y267571D01*
X236189Y267615D01*
X236145Y267670D01*
X236112Y267746D01*
X236069Y267834D01*
X236014Y267932D01*
X235970Y268052D01*
X235916Y268183D01*
X235872Y268325D01*
X235817Y268478D01*
X235785Y268653D01*
X235752Y268828D01*
X235719Y269014D01*
X235708Y269222D01*
X235697Y269429D01*
Y269440D01*
Y269484D01*
Y269561D01*
X235708Y269659D01*
X235719Y269768D01*
X235730Y269899D01*
X235752Y270041D01*
X235785Y270205D01*
X235872Y270544D01*
X235927Y270719D01*
X235992Y270905D01*
X236080Y271080D01*
X236178Y271244D01*
X236287Y271408D01*
X236408Y271561D01*
X236419Y271572D01*
X236440Y271594D01*
X236484Y271637D01*
X236539Y271681D01*
X236604Y271736D01*
X236692Y271801D01*
X236790Y271878D01*
X236899Y271954D01*
X237020Y272020D01*
X237162Y272096D01*
X237304Y272162D01*
X237468Y272217D01*
X237632Y272260D01*
X237818Y272304D01*
X238003Y272326D01*
X238200Y272337D01*
X238320D01*
X238408Y272326D01*
D02*
G37*
G36*
X217247D02*
X217346Y272315D01*
X217466Y272293D01*
X217597Y272271D01*
X217739Y272238D01*
X217892Y272195D01*
X218045Y272140D01*
X218209Y272075D01*
X218373Y271987D01*
X218526Y271900D01*
X218679Y271790D01*
X218832Y271659D01*
X218963Y271517D01*
X218974Y271506D01*
X218996Y271484D01*
X219029Y271430D01*
X219073Y271364D01*
X219127Y271277D01*
X219182Y271178D01*
X219248Y271047D01*
X219313Y270905D01*
X219379Y270741D01*
X219444Y270555D01*
X219499Y270358D01*
X219554Y270129D01*
X219597Y269888D01*
X219630Y269626D01*
X219652Y269353D01*
Y269047D01*
X216023D01*
Y269036D01*
Y269014D01*
Y268981D01*
X216034Y268938D01*
X216045Y268828D01*
X216067Y268675D01*
X216111Y268522D01*
X216176Y268347D01*
X216253Y268183D01*
X216362Y268041D01*
X216373Y268030D01*
X216428Y267987D01*
X216493Y267932D01*
X216592Y267866D01*
X216712Y267801D01*
X216865Y267746D01*
X217029Y267703D01*
X217204Y267692D01*
X217258D01*
X217324Y267703D01*
X217400Y267713D01*
X217488Y267735D01*
X217586Y267768D01*
X217685Y267812D01*
X217772Y267877D01*
X217783Y267888D01*
X217816Y267910D01*
X217859Y267954D01*
X217903Y268020D01*
X217969Y268107D01*
X218023Y268205D01*
X218078Y268336D01*
X218133Y268478D01*
X219575Y268238D01*
Y268227D01*
X219565Y268205D01*
X219543Y268162D01*
X219521Y268107D01*
X219488Y268041D01*
X219455Y267965D01*
X219357Y267790D01*
X219237Y267593D01*
X219084Y267386D01*
X218898Y267200D01*
X218690Y267025D01*
X218679D01*
X218668Y267003D01*
X218624Y266992D01*
X218581Y266959D01*
X218526Y266927D01*
X218450Y266894D01*
X218373Y266861D01*
X218275Y266817D01*
X218056Y266741D01*
X217805Y266675D01*
X217510Y266631D01*
X217193Y266610D01*
X217127D01*
X217061Y266620D01*
X216963D01*
X216843Y266642D01*
X216701Y266664D01*
X216548Y266686D01*
X216395Y266730D01*
X216220Y266773D01*
X216045Y266839D01*
X215870Y266915D01*
X215695Y267003D01*
X215520Y267112D01*
X215356Y267232D01*
X215214Y267375D01*
X215072Y267538D01*
X215061Y267549D01*
X215050Y267571D01*
X215029Y267615D01*
X214985Y267670D01*
X214952Y267746D01*
X214908Y267834D01*
X214854Y267932D01*
X214810Y268052D01*
X214755Y268183D01*
X214712Y268325D01*
X214657Y268478D01*
X214624Y268653D01*
X214591Y268828D01*
X214559Y269014D01*
X214548Y269222D01*
X214537Y269429D01*
Y269440D01*
Y269484D01*
Y269561D01*
X214548Y269659D01*
X214559Y269768D01*
X214569Y269899D01*
X214591Y270041D01*
X214624Y270205D01*
X214712Y270544D01*
X214766Y270719D01*
X214832Y270905D01*
X214919Y271080D01*
X215018Y271244D01*
X215127Y271408D01*
X215247Y271561D01*
X215258Y271572D01*
X215280Y271594D01*
X215324Y271637D01*
X215378Y271681D01*
X215444Y271736D01*
X215531Y271801D01*
X215630Y271878D01*
X215739Y271954D01*
X215859Y272020D01*
X216001Y272096D01*
X216143Y272162D01*
X216307Y272217D01*
X216471Y272260D01*
X216657Y272304D01*
X216843Y272326D01*
X217040Y272337D01*
X217160D01*
X217247Y272326D01*
D02*
G37*
G36*
X212963Y272217D02*
X213957D01*
Y271058D01*
X212963D01*
Y268839D01*
Y268828D01*
Y268806D01*
Y268774D01*
Y268730D01*
Y268621D01*
Y268489D01*
X212974Y268358D01*
Y268227D01*
Y268129D01*
X212985Y268085D01*
Y268063D01*
X212996Y268041D01*
X213017Y267998D01*
X213050Y267943D01*
X213116Y267877D01*
X213138Y267866D01*
X213181Y267845D01*
X213258Y267823D01*
X213356Y267812D01*
X213400D01*
X213444Y267823D01*
X213509Y267834D01*
X213597Y267845D01*
X213695Y267866D01*
X213815Y267899D01*
X213947Y267943D01*
X214078Y266817D01*
X214067D01*
X214056Y266806D01*
X213990Y266784D01*
X213881Y266752D01*
X213739Y266719D01*
X213575Y266675D01*
X213378Y266642D01*
X213159Y266620D01*
X212930Y266610D01*
X212864D01*
X212788Y266620D01*
X212689Y266631D01*
X212580Y266642D01*
X212460Y266664D01*
X212340Y266697D01*
X212220Y266741D01*
X212209Y266752D01*
X212165Y266762D01*
X212110Y266795D01*
X212045Y266828D01*
X211892Y266937D01*
X211815Y267003D01*
X211750Y267079D01*
X211739Y267090D01*
X211728Y267123D01*
X211706Y267167D01*
X211673Y267232D01*
X211640Y267309D01*
X211608Y267407D01*
X211575Y267517D01*
X211553Y267637D01*
Y267648D01*
X211542Y267692D01*
Y267757D01*
X211531Y267866D01*
X211520Y268008D01*
Y268183D01*
X211509Y268282D01*
Y268402D01*
Y268522D01*
Y268664D01*
Y271058D01*
X210842D01*
Y272217D01*
X211509D01*
Y273310D01*
X212963Y274162D01*
Y272217D01*
D02*
G37*
G36*
X231740Y272326D02*
X231817D01*
X231894Y272304D01*
X232003Y272293D01*
X232112Y272260D01*
X232232Y272228D01*
X232364Y272173D01*
X232495Y272118D01*
X232637Y272042D01*
X232779Y271954D01*
X232921Y271856D01*
X233063Y271725D01*
X233194Y271594D01*
X233325Y271430D01*
Y272217D01*
X234681D01*
Y267287D01*
Y267276D01*
Y267243D01*
Y267200D01*
Y267134D01*
Y267047D01*
X234670Y266959D01*
X234659Y266752D01*
X234637Y266511D01*
X234615Y266271D01*
X234571Y266041D01*
X234549Y265943D01*
X234517Y265844D01*
X234506Y265823D01*
X234484Y265768D01*
X234451Y265680D01*
X234397Y265571D01*
X234331Y265451D01*
X234254Y265320D01*
X234167Y265199D01*
X234058Y265090D01*
X234047Y265079D01*
X234003Y265047D01*
X233938Y264992D01*
X233861Y264937D01*
X233752Y264872D01*
X233621Y264795D01*
X233468Y264729D01*
X233293Y264664D01*
X233271Y264653D01*
X233205Y264642D01*
X233107Y264609D01*
X232965Y264587D01*
X232779Y264555D01*
X232571Y264522D01*
X232331Y264511D01*
X232068Y264500D01*
X231937D01*
X231839Y264511D01*
X231730D01*
X231598Y264522D01*
X231456Y264544D01*
X231303Y264566D01*
X230975Y264620D01*
X230647Y264708D01*
X230494Y264762D01*
X230342Y264828D01*
X230210Y264894D01*
X230090Y264981D01*
X230079Y264992D01*
X230068Y265003D01*
X230003Y265068D01*
X229904Y265167D01*
X229806Y265309D01*
X229697Y265484D01*
X229598Y265691D01*
X229533Y265932D01*
X229522Y266063D01*
X229511Y266194D01*
Y266205D01*
Y266249D01*
Y266303D01*
X229522Y266369D01*
X231183Y266172D01*
Y266161D01*
X231194Y266129D01*
X231205Y266074D01*
X231216Y266019D01*
X231271Y265888D01*
X231314Y265823D01*
X231369Y265779D01*
X231380Y265768D01*
X231413Y265757D01*
X231456Y265724D01*
X231533Y265702D01*
X231620Y265669D01*
X231730Y265637D01*
X231861Y265626D01*
X232014Y265615D01*
X232112D01*
X232210Y265626D01*
X232331Y265637D01*
X232473Y265659D01*
X232615Y265691D01*
X232746Y265735D01*
X232866Y265790D01*
X232877Y265801D01*
X232899Y265812D01*
X232932Y265833D01*
X232976Y265877D01*
X233019Y265932D01*
X233063Y265997D01*
X233107Y266074D01*
X233151Y266161D01*
Y266172D01*
X233161Y266194D01*
X233172Y266238D01*
X233194Y266314D01*
X233205Y266402D01*
X233216Y266511D01*
X233227Y266653D01*
Y266817D01*
Y267615D01*
X233216Y267604D01*
X233194Y267582D01*
X233161Y267538D01*
X233107Y267473D01*
X233052Y267407D01*
X232976Y267331D01*
X232877Y267254D01*
X232779Y267178D01*
X232670Y267090D01*
X232538Y267014D01*
X232265Y266872D01*
X232112Y266817D01*
X231948Y266773D01*
X231773Y266741D01*
X231588Y266730D01*
X231544D01*
X231478Y266741D01*
X231402D01*
X231314Y266762D01*
X231205Y266784D01*
X231085Y266806D01*
X230954Y266850D01*
X230822Y266894D01*
X230680Y266959D01*
X230527Y267036D01*
X230385Y267123D01*
X230243Y267232D01*
X230101Y267353D01*
X229970Y267495D01*
X229839Y267659D01*
Y267670D01*
X229817Y267692D01*
X229795Y267735D01*
X229762Y267790D01*
X229718Y267866D01*
X229675Y267954D01*
X229631Y268052D01*
X229587Y268173D01*
X229544Y268293D01*
X229500Y268435D01*
X229456Y268588D01*
X229412Y268752D01*
X229358Y269102D01*
X229347Y269298D01*
X229336Y269495D01*
Y269506D01*
Y269561D01*
Y269626D01*
X229347Y269724D01*
X229358Y269834D01*
X229369Y269965D01*
X229391Y270118D01*
X229423Y270271D01*
X229500Y270621D01*
X229555Y270796D01*
X229609Y270971D01*
X229686Y271134D01*
X229773Y271309D01*
X229872Y271462D01*
X229992Y271604D01*
X230003Y271615D01*
X230025Y271637D01*
X230057Y271670D01*
X230112Y271725D01*
X230177Y271779D01*
X230254Y271834D01*
X230342Y271900D01*
X230451Y271976D01*
X230560Y272042D01*
X230691Y272107D01*
X230964Y272228D01*
X231129Y272271D01*
X231292Y272304D01*
X231467Y272326D01*
X231642Y272337D01*
X231686D01*
X231740Y272326D01*
D02*
G37*
G36*
X340406Y287227D02*
X340486Y287220D01*
X340574Y287205D01*
X340676Y287191D01*
X340785Y287169D01*
X340902Y287139D01*
X341026Y287103D01*
X341150Y287059D01*
X341281Y287001D01*
X341405Y286943D01*
X341521Y286870D01*
X341645Y286782D01*
X341755Y286687D01*
X341762D01*
X341769Y286673D01*
X341791Y286651D01*
X341813Y286629D01*
X341842Y286593D01*
X341871Y286549D01*
X341951Y286447D01*
X342032Y286316D01*
X342119Y286155D01*
X342199Y285973D01*
X342272Y285762D01*
X341266Y285521D01*
Y285528D01*
X341259Y285536D01*
Y285558D01*
X341244Y285587D01*
X341223Y285652D01*
X341186Y285740D01*
X341135Y285842D01*
X341070Y285944D01*
X340982Y286046D01*
X340887Y286133D01*
X340873Y286141D01*
X340836Y286170D01*
X340778Y286206D01*
X340698Y286250D01*
X340596Y286294D01*
X340479Y286330D01*
X340348Y286359D01*
X340202Y286367D01*
X340151D01*
X340107Y286359D01*
X340063Y286352D01*
X340005Y286345D01*
X339881Y286316D01*
X339735Y286265D01*
X339582Y286192D01*
X339502Y286148D01*
X339429Y286097D01*
X339356Y286031D01*
X339291Y285959D01*
Y285951D01*
X339276Y285937D01*
X339262Y285915D01*
X339240Y285878D01*
X339211Y285835D01*
X339181Y285784D01*
X339152Y285718D01*
X339123Y285645D01*
X339087Y285558D01*
X339057Y285463D01*
X339028Y285353D01*
X338999Y285237D01*
X338977Y285105D01*
X338963Y284967D01*
X338955Y284814D01*
X338948Y284646D01*
Y284639D01*
Y284602D01*
Y284552D01*
X338955Y284493D01*
Y284413D01*
X338970Y284318D01*
X338977Y284224D01*
X338992Y284114D01*
X339036Y283888D01*
X339094Y283662D01*
X339130Y283553D01*
X339181Y283451D01*
X339232Y283356D01*
X339291Y283276D01*
X339298Y283268D01*
X339305Y283261D01*
X339327Y283239D01*
X339356Y283210D01*
X339429Y283152D01*
X339531Y283079D01*
X339655Y282999D01*
X339808Y282940D01*
X339983Y282889D01*
X340078Y282882D01*
X340180Y282875D01*
X340216D01*
X340246Y282882D01*
X340326Y282889D01*
X340421Y282904D01*
X340523Y282940D01*
X340639Y282984D01*
X340756Y283043D01*
X340873Y283130D01*
X340887Y283144D01*
X340924Y283181D01*
X340975Y283239D01*
X341033Y283327D01*
X341106Y283443D01*
X341172Y283582D01*
X341237Y283750D01*
X341295Y283946D01*
X342287Y283640D01*
Y283633D01*
X342280Y283604D01*
X342265Y283560D01*
X342243Y283502D01*
X342214Y283436D01*
X342185Y283356D01*
X342148Y283268D01*
X342105Y283174D01*
X342003Y282977D01*
X341871Y282773D01*
X341711Y282576D01*
X341623Y282488D01*
X341529Y282408D01*
X341521Y282401D01*
X341507Y282394D01*
X341478Y282372D01*
X341434Y282343D01*
X341383Y282313D01*
X341317Y282284D01*
X341244Y282248D01*
X341164Y282211D01*
X341070Y282168D01*
X340967Y282131D01*
X340858Y282102D01*
X340741Y282073D01*
X340617Y282044D01*
X340479Y282022D01*
X340340Y282015D01*
X340187Y282007D01*
X340144D01*
X340093Y282015D01*
X340020Y282022D01*
X339939Y282029D01*
X339837Y282044D01*
X339728Y282066D01*
X339604Y282095D01*
X339480Y282131D01*
X339349Y282175D01*
X339211Y282233D01*
X339072Y282299D01*
X338933Y282372D01*
X338795Y282467D01*
X338664Y282569D01*
X338540Y282693D01*
X338532Y282700D01*
X338511Y282722D01*
X338481Y282766D01*
X338438Y282817D01*
X338394Y282889D01*
X338336Y282970D01*
X338277Y283072D01*
X338219Y283188D01*
X338161Y283312D01*
X338102Y283451D01*
X338044Y283611D01*
X338000Y283779D01*
X337957Y283954D01*
X337928Y284151D01*
X337906Y284355D01*
X337898Y284573D01*
Y284581D01*
Y284588D01*
Y284632D01*
X337906Y284697D01*
Y284785D01*
X337920Y284887D01*
X337935Y285011D01*
X337949Y285142D01*
X337979Y285295D01*
X338015Y285448D01*
X338059Y285609D01*
X338110Y285769D01*
X338175Y285937D01*
X338248Y286097D01*
X338336Y286250D01*
X338431Y286396D01*
X338547Y286534D01*
X338554Y286542D01*
X338576Y286563D01*
X338613Y286600D01*
X338664Y286644D01*
X338729Y286695D01*
X338810Y286753D01*
X338897Y286819D01*
X339006Y286884D01*
X339123Y286950D01*
X339247Y287016D01*
X339393Y287074D01*
X339539Y287125D01*
X339706Y287169D01*
X339874Y287205D01*
X340063Y287227D01*
X340253Y287234D01*
X340340D01*
X340406Y287227D01*
D02*
G37*
G36*
X327087D02*
X327167Y287220D01*
X327255Y287205D01*
X327357Y287191D01*
X327466Y287169D01*
X327583Y287139D01*
X327707Y287103D01*
X327831Y287059D01*
X327962Y287001D01*
X328086Y286943D01*
X328203Y286870D01*
X328327Y286782D01*
X328436Y286687D01*
X328443D01*
X328450Y286673D01*
X328472Y286651D01*
X328494Y286629D01*
X328523Y286593D01*
X328553Y286549D01*
X328633Y286447D01*
X328713Y286316D01*
X328800Y286155D01*
X328881Y285973D01*
X328954Y285762D01*
X327947Y285521D01*
Y285528D01*
X327940Y285536D01*
Y285558D01*
X327926Y285587D01*
X327904Y285652D01*
X327867Y285740D01*
X327816Y285842D01*
X327751Y285944D01*
X327663Y286046D01*
X327568Y286133D01*
X327554Y286141D01*
X327517Y286170D01*
X327459Y286206D01*
X327379Y286250D01*
X327277Y286294D01*
X327160Y286330D01*
X327029Y286359D01*
X326883Y286367D01*
X326832D01*
X326788Y286359D01*
X326745Y286352D01*
X326686Y286345D01*
X326562Y286316D01*
X326417Y286265D01*
X326263Y286192D01*
X326183Y286148D01*
X326110Y286097D01*
X326038Y286031D01*
X325972Y285959D01*
Y285951D01*
X325957Y285937D01*
X325943Y285915D01*
X325921Y285878D01*
X325892Y285835D01*
X325863Y285784D01*
X325833Y285718D01*
X325804Y285645D01*
X325768Y285558D01*
X325739Y285463D01*
X325709Y285353D01*
X325680Y285237D01*
X325658Y285105D01*
X325644Y284967D01*
X325637Y284814D01*
X325629Y284646D01*
Y284639D01*
Y284602D01*
Y284552D01*
X325637Y284493D01*
Y284413D01*
X325651Y284318D01*
X325658Y284224D01*
X325673Y284114D01*
X325717Y283888D01*
X325775Y283662D01*
X325812Y283553D01*
X325863Y283451D01*
X325914Y283356D01*
X325972Y283276D01*
X325979Y283268D01*
X325987Y283261D01*
X326008Y283239D01*
X326038Y283210D01*
X326110Y283152D01*
X326212Y283079D01*
X326336Y282999D01*
X326489Y282940D01*
X326664Y282889D01*
X326759Y282882D01*
X326861Y282875D01*
X326898D01*
X326927Y282882D01*
X327007Y282889D01*
X327102Y282904D01*
X327204Y282940D01*
X327321Y282984D01*
X327437Y283043D01*
X327554Y283130D01*
X327568Y283144D01*
X327605Y283181D01*
X327656Y283239D01*
X327714Y283327D01*
X327787Y283443D01*
X327853Y283582D01*
X327918Y283750D01*
X327977Y283946D01*
X328968Y283640D01*
Y283633D01*
X328961Y283604D01*
X328946Y283560D01*
X328924Y283502D01*
X328895Y283436D01*
X328866Y283356D01*
X328830Y283268D01*
X328786Y283174D01*
X328684Y282977D01*
X328553Y282773D01*
X328392Y282576D01*
X328305Y282488D01*
X328210Y282408D01*
X328203Y282401D01*
X328188Y282394D01*
X328159Y282372D01*
X328115Y282343D01*
X328064Y282313D01*
X327998Y282284D01*
X327926Y282248D01*
X327845Y282211D01*
X327751Y282168D01*
X327649Y282131D01*
X327539Y282102D01*
X327423Y282073D01*
X327299Y282044D01*
X327160Y282022D01*
X327022Y282015D01*
X326869Y282007D01*
X326825D01*
X326774Y282015D01*
X326701Y282022D01*
X326621Y282029D01*
X326519Y282044D01*
X326409Y282066D01*
X326285Y282095D01*
X326161Y282131D01*
X326030Y282175D01*
X325892Y282233D01*
X325753Y282299D01*
X325615Y282372D01*
X325476Y282467D01*
X325345Y282569D01*
X325221Y282693D01*
X325214Y282700D01*
X325192Y282722D01*
X325163Y282766D01*
X325119Y282817D01*
X325075Y282889D01*
X325017Y282970D01*
X324959Y283072D01*
X324900Y283188D01*
X324842Y283312D01*
X324784Y283451D01*
X324725Y283611D01*
X324681Y283779D01*
X324638Y283954D01*
X324609Y284151D01*
X324587Y284355D01*
X324580Y284573D01*
Y284581D01*
Y284588D01*
Y284632D01*
X324587Y284697D01*
Y284785D01*
X324601Y284887D01*
X324616Y285011D01*
X324630Y285142D01*
X324660Y285295D01*
X324696Y285448D01*
X324740Y285609D01*
X324791Y285769D01*
X324856Y285937D01*
X324929Y286097D01*
X325017Y286250D01*
X325112Y286396D01*
X325228Y286534D01*
X325236Y286542D01*
X325257Y286563D01*
X325294Y286600D01*
X325345Y286644D01*
X325411Y286695D01*
X325491Y286753D01*
X325578Y286819D01*
X325688Y286884D01*
X325804Y286950D01*
X325928Y287016D01*
X326074Y287074D01*
X326220Y287125D01*
X326387Y287169D01*
X326555Y287205D01*
X326745Y287227D01*
X326934Y287234D01*
X327022D01*
X327087Y287227D01*
D02*
G37*
G36*
X313768D02*
X313849Y287220D01*
X313936Y287205D01*
X314038Y287191D01*
X314147Y287169D01*
X314264Y287139D01*
X314388Y287103D01*
X314512Y287059D01*
X314643Y287001D01*
X314767Y286943D01*
X314884Y286870D01*
X315008Y286782D01*
X315117Y286687D01*
X315124D01*
X315132Y286673D01*
X315154Y286651D01*
X315175Y286629D01*
X315205Y286593D01*
X315234Y286549D01*
X315314Y286447D01*
X315394Y286316D01*
X315482Y286155D01*
X315562Y285973D01*
X315635Y285762D01*
X314629Y285521D01*
Y285528D01*
X314621Y285536D01*
Y285558D01*
X314607Y285587D01*
X314585Y285652D01*
X314548Y285740D01*
X314497Y285842D01*
X314432Y285944D01*
X314344Y286046D01*
X314249Y286133D01*
X314235Y286141D01*
X314198Y286170D01*
X314140Y286206D01*
X314060Y286250D01*
X313958Y286294D01*
X313841Y286330D01*
X313710Y286359D01*
X313564Y286367D01*
X313513D01*
X313470Y286359D01*
X313426Y286352D01*
X313368Y286345D01*
X313244Y286316D01*
X313098Y286265D01*
X312945Y286192D01*
X312864Y286148D01*
X312792Y286097D01*
X312719Y286031D01*
X312653Y285959D01*
Y285951D01*
X312638Y285937D01*
X312624Y285915D01*
X312602Y285878D01*
X312573Y285835D01*
X312544Y285784D01*
X312514Y285718D01*
X312485Y285645D01*
X312449Y285558D01*
X312420Y285463D01*
X312391Y285353D01*
X312361Y285237D01*
X312340Y285105D01*
X312325Y284967D01*
X312318Y284814D01*
X312310Y284646D01*
Y284639D01*
Y284602D01*
Y284552D01*
X312318Y284493D01*
Y284413D01*
X312332Y284318D01*
X312340Y284224D01*
X312354Y284114D01*
X312398Y283888D01*
X312456Y283662D01*
X312493Y283553D01*
X312544Y283451D01*
X312595Y283356D01*
X312653Y283276D01*
X312660Y283268D01*
X312668Y283261D01*
X312689Y283239D01*
X312719Y283210D01*
X312792Y283152D01*
X312894Y283079D01*
X313018Y282999D01*
X313171Y282940D01*
X313346Y282889D01*
X313440Y282882D01*
X313542Y282875D01*
X313579D01*
X313608Y282882D01*
X313688Y282889D01*
X313783Y282904D01*
X313885Y282940D01*
X314002Y282984D01*
X314118Y283043D01*
X314235Y283130D01*
X314249Y283144D01*
X314286Y283181D01*
X314337Y283239D01*
X314395Y283327D01*
X314468Y283443D01*
X314534Y283582D01*
X314599Y283750D01*
X314658Y283946D01*
X315649Y283640D01*
Y283633D01*
X315642Y283604D01*
X315627Y283560D01*
X315605Y283502D01*
X315576Y283436D01*
X315547Y283356D01*
X315511Y283268D01*
X315467Y283174D01*
X315365Y282977D01*
X315234Y282773D01*
X315073Y282576D01*
X314986Y282488D01*
X314891Y282408D01*
X314884Y282401D01*
X314869Y282394D01*
X314840Y282372D01*
X314796Y282343D01*
X314745Y282313D01*
X314680Y282284D01*
X314607Y282248D01*
X314527Y282211D01*
X314432Y282168D01*
X314330Y282131D01*
X314220Y282102D01*
X314104Y282073D01*
X313980Y282044D01*
X313841Y282022D01*
X313703Y282015D01*
X313550Y282007D01*
X313506D01*
X313455Y282015D01*
X313382Y282022D01*
X313302Y282029D01*
X313200Y282044D01*
X313090Y282066D01*
X312966Y282095D01*
X312843Y282131D01*
X312711Y282175D01*
X312573Y282233D01*
X312434Y282299D01*
X312296Y282372D01*
X312157Y282467D01*
X312026Y282569D01*
X311902Y282693D01*
X311895Y282700D01*
X311873Y282722D01*
X311844Y282766D01*
X311800Y282817D01*
X311756Y282889D01*
X311698Y282970D01*
X311640Y283072D01*
X311581Y283188D01*
X311523Y283312D01*
X311465Y283451D01*
X311406Y283611D01*
X311363Y283779D01*
X311319Y283954D01*
X311290Y284151D01*
X311268Y284355D01*
X311261Y284573D01*
Y284581D01*
Y284588D01*
Y284632D01*
X311268Y284697D01*
Y284785D01*
X311282Y284887D01*
X311297Y285011D01*
X311312Y285142D01*
X311341Y285295D01*
X311377Y285448D01*
X311421Y285609D01*
X311472Y285769D01*
X311538Y285937D01*
X311611Y286097D01*
X311698Y286250D01*
X311793Y286396D01*
X311910Y286534D01*
X311917Y286542D01*
X311939Y286563D01*
X311975Y286600D01*
X312026Y286644D01*
X312092Y286695D01*
X312172Y286753D01*
X312259Y286819D01*
X312369Y286884D01*
X312485Y286950D01*
X312609Y287016D01*
X312755Y287074D01*
X312901Y287125D01*
X313069Y287169D01*
X313236Y287205D01*
X313426Y287227D01*
X313615Y287234D01*
X313703D01*
X313768Y287227D01*
D02*
G37*
G36*
X300450D02*
X300530Y287220D01*
X300617Y287205D01*
X300719Y287191D01*
X300829Y287169D01*
X300945Y287139D01*
X301069Y287103D01*
X301193Y287059D01*
X301324Y287001D01*
X301448Y286943D01*
X301565Y286870D01*
X301689Y286782D01*
X301798Y286687D01*
X301805D01*
X301813Y286673D01*
X301835Y286651D01*
X301857Y286629D01*
X301886Y286593D01*
X301915Y286549D01*
X301995Y286447D01*
X302075Y286316D01*
X302163Y286155D01*
X302243Y285973D01*
X302316Y285762D01*
X301310Y285521D01*
Y285528D01*
X301303Y285536D01*
Y285558D01*
X301288Y285587D01*
X301266Y285652D01*
X301230Y285740D01*
X301179Y285842D01*
X301113Y285944D01*
X301026Y286046D01*
X300931Y286133D01*
X300916Y286141D01*
X300880Y286170D01*
X300821Y286206D01*
X300741Y286250D01*
X300639Y286294D01*
X300522Y286330D01*
X300391Y286359D01*
X300245Y286367D01*
X300194D01*
X300151Y286359D01*
X300107Y286352D01*
X300049Y286345D01*
X299925Y286316D01*
X299779Y286265D01*
X299626Y286192D01*
X299546Y286148D01*
X299473Y286097D01*
X299400Y286031D01*
X299334Y285959D01*
Y285951D01*
X299320Y285937D01*
X299305Y285915D01*
X299283Y285878D01*
X299254Y285835D01*
X299225Y285784D01*
X299196Y285718D01*
X299166Y285645D01*
X299130Y285558D01*
X299101Y285463D01*
X299072Y285353D01*
X299043Y285237D01*
X299021Y285105D01*
X299006Y284967D01*
X298999Y284814D01*
X298992Y284646D01*
Y284639D01*
Y284602D01*
Y284552D01*
X298999Y284493D01*
Y284413D01*
X299013Y284318D01*
X299021Y284224D01*
X299035Y284114D01*
X299079Y283888D01*
X299137Y283662D01*
X299174Y283553D01*
X299225Y283451D01*
X299276Y283356D01*
X299334Y283276D01*
X299342Y283268D01*
X299349Y283261D01*
X299371Y283239D01*
X299400Y283210D01*
X299473Y283152D01*
X299575Y283079D01*
X299699Y282999D01*
X299852Y282940D01*
X300027Y282889D01*
X300121Y282882D01*
X300224Y282875D01*
X300260D01*
X300289Y282882D01*
X300369Y282889D01*
X300464Y282904D01*
X300566Y282940D01*
X300683Y282984D01*
X300799Y283043D01*
X300916Y283130D01*
X300931Y283144D01*
X300967Y283181D01*
X301018Y283239D01*
X301077Y283327D01*
X301149Y283443D01*
X301215Y283582D01*
X301281Y283750D01*
X301339Y283946D01*
X302330Y283640D01*
Y283633D01*
X302323Y283604D01*
X302309Y283560D01*
X302287Y283502D01*
X302257Y283436D01*
X302228Y283356D01*
X302192Y283268D01*
X302148Y283174D01*
X302046Y282977D01*
X301915Y282773D01*
X301754Y282576D01*
X301667Y282488D01*
X301572Y282408D01*
X301565Y282401D01*
X301550Y282394D01*
X301521Y282372D01*
X301478Y282343D01*
X301426Y282313D01*
X301361Y282284D01*
X301288Y282248D01*
X301208Y282211D01*
X301113Y282168D01*
X301011Y282131D01*
X300902Y282102D01*
X300785Y282073D01*
X300661Y282044D01*
X300522Y282022D01*
X300384Y282015D01*
X300231Y282007D01*
X300187D01*
X300136Y282015D01*
X300063Y282022D01*
X299983Y282029D01*
X299881Y282044D01*
X299772Y282066D01*
X299648Y282095D01*
X299524Y282131D01*
X299393Y282175D01*
X299254Y282233D01*
X299115Y282299D01*
X298977Y282372D01*
X298838Y282467D01*
X298707Y282569D01*
X298583Y282693D01*
X298576Y282700D01*
X298554Y282722D01*
X298525Y282766D01*
X298481Y282817D01*
X298438Y282889D01*
X298379Y282970D01*
X298321Y283072D01*
X298263Y283188D01*
X298204Y283312D01*
X298146Y283451D01*
X298088Y283611D01*
X298044Y283779D01*
X298000Y283954D01*
X297971Y284151D01*
X297949Y284355D01*
X297942Y284573D01*
Y284581D01*
Y284588D01*
Y284632D01*
X297949Y284697D01*
Y284785D01*
X297964Y284887D01*
X297978Y285011D01*
X297993Y285142D01*
X298022Y285295D01*
X298059Y285448D01*
X298102Y285609D01*
X298153Y285769D01*
X298219Y285937D01*
X298292Y286097D01*
X298379Y286250D01*
X298474Y286396D01*
X298591Y286534D01*
X298598Y286542D01*
X298620Y286563D01*
X298656Y286600D01*
X298707Y286644D01*
X298773Y286695D01*
X298853Y286753D01*
X298940Y286819D01*
X299050Y286884D01*
X299166Y286950D01*
X299290Y287016D01*
X299436Y287074D01*
X299582Y287125D01*
X299750Y287169D01*
X299917Y287205D01*
X300107Y287227D01*
X300296Y287234D01*
X300384D01*
X300450Y287227D01*
D02*
G37*
G36*
X332686Y283939D02*
Y283932D01*
Y283910D01*
Y283881D01*
Y283837D01*
Y283786D01*
X332679Y283720D01*
X332671Y283582D01*
X332657Y283429D01*
X332635Y283268D01*
X332606Y283108D01*
X332569Y282970D01*
Y282962D01*
X332562Y282948D01*
X332555Y282926D01*
X332540Y282897D01*
X332504Y282817D01*
X332445Y282714D01*
X332372Y282605D01*
X332278Y282488D01*
X332168Y282372D01*
X332030Y282262D01*
X332023D01*
X332015Y282248D01*
X331993Y282241D01*
X331957Y282219D01*
X331921Y282204D01*
X331877Y282182D01*
X331818Y282153D01*
X331760Y282131D01*
X331687Y282109D01*
X331614Y282080D01*
X331439Y282044D01*
X331235Y282015D01*
X331009Y282000D01*
X330936D01*
X330885Y282007D01*
X330820Y282015D01*
X330754Y282022D01*
X330674Y282036D01*
X330586Y282051D01*
X330397Y282102D01*
X330302Y282138D01*
X330207Y282175D01*
X330113Y282226D01*
X330025Y282277D01*
X329938Y282343D01*
X329857Y282416D01*
X329850Y282423D01*
X329843Y282437D01*
X329821Y282459D01*
X329792Y282496D01*
X329763Y282540D01*
X329733Y282591D01*
X329697Y282656D01*
X329661Y282722D01*
X329617Y282809D01*
X329580Y282897D01*
X329551Y282999D01*
X329522Y283108D01*
X329493Y283225D01*
X329471Y283356D01*
X329464Y283494D01*
X329456Y283640D01*
X330426Y283750D01*
Y283742D01*
Y283728D01*
Y283706D01*
X330433Y283677D01*
Y283604D01*
X330448Y283509D01*
X330463Y283407D01*
X330484Y283305D01*
X330514Y283217D01*
X330550Y283137D01*
X330557Y283123D01*
X330579Y283094D01*
X330616Y283050D01*
X330674Y283006D01*
X330739Y282955D01*
X330827Y282911D01*
X330929Y282882D01*
X331046Y282868D01*
X331104D01*
X331162Y282875D01*
X331228Y282889D01*
X331308Y282911D01*
X331388Y282948D01*
X331461Y282991D01*
X331520Y283057D01*
X331527Y283064D01*
X331541Y283101D01*
X331563Y283152D01*
X331592Y283232D01*
X331607Y283283D01*
X331622Y283341D01*
X331629Y283407D01*
X331644Y283480D01*
X331651Y283567D01*
X331658Y283655D01*
X331665Y283757D01*
Y283866D01*
Y287139D01*
X332686D01*
Y283939D01*
D02*
G37*
G36*
X319367D02*
Y283932D01*
Y283910D01*
Y283881D01*
Y283837D01*
Y283786D01*
X319360Y283720D01*
X319353Y283582D01*
X319338Y283429D01*
X319316Y283268D01*
X319287Y283108D01*
X319250Y282970D01*
Y282962D01*
X319243Y282948D01*
X319236Y282926D01*
X319221Y282897D01*
X319185Y282817D01*
X319127Y282714D01*
X319054Y282605D01*
X318959Y282488D01*
X318849Y282372D01*
X318711Y282262D01*
X318704D01*
X318696Y282248D01*
X318675Y282241D01*
X318638Y282219D01*
X318602Y282204D01*
X318558Y282182D01*
X318500Y282153D01*
X318441Y282131D01*
X318368Y282109D01*
X318296Y282080D01*
X318121Y282044D01*
X317916Y282015D01*
X317690Y282000D01*
X317618D01*
X317566Y282007D01*
X317501Y282015D01*
X317435Y282022D01*
X317355Y282036D01*
X317268Y282051D01*
X317078Y282102D01*
X316983Y282138D01*
X316888Y282175D01*
X316794Y282226D01*
X316706Y282277D01*
X316619Y282343D01*
X316539Y282416D01*
X316531Y282423D01*
X316524Y282437D01*
X316502Y282459D01*
X316473Y282496D01*
X316444Y282540D01*
X316415Y282591D01*
X316378Y282656D01*
X316342Y282722D01*
X316298Y282809D01*
X316262Y282897D01*
X316232Y282999D01*
X316203Y283108D01*
X316174Y283225D01*
X316152Y283356D01*
X316145Y283494D01*
X316138Y283640D01*
X317107Y283750D01*
Y283742D01*
Y283728D01*
Y283706D01*
X317114Y283677D01*
Y283604D01*
X317129Y283509D01*
X317144Y283407D01*
X317165Y283305D01*
X317195Y283217D01*
X317231Y283137D01*
X317238Y283123D01*
X317260Y283094D01*
X317297Y283050D01*
X317355Y283006D01*
X317421Y282955D01*
X317508Y282911D01*
X317610Y282882D01*
X317727Y282868D01*
X317785D01*
X317844Y282875D01*
X317909Y282889D01*
X317989Y282911D01*
X318070Y282948D01*
X318142Y282991D01*
X318201Y283057D01*
X318208Y283064D01*
X318223Y283101D01*
X318245Y283152D01*
X318274Y283232D01*
X318288Y283283D01*
X318303Y283341D01*
X318310Y283407D01*
X318325Y283480D01*
X318332Y283567D01*
X318339Y283655D01*
X318347Y283757D01*
Y283866D01*
Y287139D01*
X319367D01*
Y283939D01*
D02*
G37*
G36*
X306048D02*
Y283932D01*
Y283910D01*
Y283881D01*
Y283837D01*
Y283786D01*
X306041Y283720D01*
X306034Y283582D01*
X306019Y283429D01*
X305997Y283268D01*
X305968Y283108D01*
X305932Y282970D01*
Y282962D01*
X305924Y282948D01*
X305917Y282926D01*
X305903Y282897D01*
X305866Y282817D01*
X305808Y282714D01*
X305735Y282605D01*
X305640Y282488D01*
X305531Y282372D01*
X305392Y282262D01*
X305385D01*
X305378Y282248D01*
X305356Y282241D01*
X305319Y282219D01*
X305283Y282204D01*
X305239Y282182D01*
X305181Y282153D01*
X305122Y282131D01*
X305050Y282109D01*
X304977Y282080D01*
X304802Y282044D01*
X304598Y282015D01*
X304372Y282000D01*
X304299D01*
X304248Y282007D01*
X304182Y282015D01*
X304116Y282022D01*
X304036Y282036D01*
X303949Y282051D01*
X303759Y282102D01*
X303664Y282138D01*
X303570Y282175D01*
X303475Y282226D01*
X303387Y282277D01*
X303300Y282343D01*
X303220Y282416D01*
X303212Y282423D01*
X303205Y282437D01*
X303183Y282459D01*
X303154Y282496D01*
X303125Y282540D01*
X303096Y282591D01*
X303059Y282656D01*
X303023Y282722D01*
X302979Y282809D01*
X302943Y282897D01*
X302914Y282999D01*
X302884Y283108D01*
X302855Y283225D01*
X302833Y283356D01*
X302826Y283494D01*
X302819Y283640D01*
X303788Y283750D01*
Y283742D01*
Y283728D01*
Y283706D01*
X303796Y283677D01*
Y283604D01*
X303810Y283509D01*
X303825Y283407D01*
X303847Y283305D01*
X303876Y283217D01*
X303912Y283137D01*
X303920Y283123D01*
X303941Y283094D01*
X303978Y283050D01*
X304036Y283006D01*
X304102Y282955D01*
X304189Y282911D01*
X304291Y282882D01*
X304408Y282868D01*
X304466D01*
X304525Y282875D01*
X304590Y282889D01*
X304671Y282911D01*
X304751Y282948D01*
X304824Y282991D01*
X304882Y283057D01*
X304889Y283064D01*
X304904Y283101D01*
X304926Y283152D01*
X304955Y283232D01*
X304969Y283283D01*
X304984Y283341D01*
X304991Y283407D01*
X305006Y283480D01*
X305013Y283567D01*
X305020Y283655D01*
X305028Y283757D01*
Y283866D01*
Y287139D01*
X306048D01*
Y283939D01*
D02*
G37*
G36*
X292729D02*
Y283932D01*
Y283910D01*
Y283881D01*
Y283837D01*
Y283786D01*
X292722Y283720D01*
X292715Y283582D01*
X292700Y283429D01*
X292678Y283268D01*
X292649Y283108D01*
X292613Y282970D01*
Y282962D01*
X292605Y282948D01*
X292598Y282926D01*
X292584Y282897D01*
X292547Y282817D01*
X292489Y282714D01*
X292416Y282605D01*
X292321Y282488D01*
X292212Y282372D01*
X292073Y282262D01*
X292066D01*
X292059Y282248D01*
X292037Y282241D01*
X292001Y282219D01*
X291964Y282204D01*
X291920Y282182D01*
X291862Y282153D01*
X291804Y282131D01*
X291731Y282109D01*
X291658Y282080D01*
X291483Y282044D01*
X291279Y282015D01*
X291053Y282000D01*
X290980D01*
X290929Y282007D01*
X290863Y282015D01*
X290798Y282022D01*
X290717Y282036D01*
X290630Y282051D01*
X290440Y282102D01*
X290346Y282138D01*
X290251Y282175D01*
X290156Y282226D01*
X290069Y282277D01*
X289981Y282343D01*
X289901Y282416D01*
X289894Y282423D01*
X289886Y282437D01*
X289864Y282459D01*
X289835Y282496D01*
X289806Y282540D01*
X289777Y282591D01*
X289741Y282656D01*
X289704Y282722D01*
X289660Y282809D01*
X289624Y282897D01*
X289595Y282999D01*
X289566Y283108D01*
X289536Y283225D01*
X289515Y283356D01*
X289507Y283494D01*
X289500Y283640D01*
X290470Y283750D01*
Y283742D01*
Y283728D01*
Y283706D01*
X290477Y283677D01*
Y283604D01*
X290491Y283509D01*
X290506Y283407D01*
X290528Y283305D01*
X290557Y283217D01*
X290594Y283137D01*
X290601Y283123D01*
X290623Y283094D01*
X290659Y283050D01*
X290717Y283006D01*
X290783Y282955D01*
X290870Y282911D01*
X290973Y282882D01*
X291089Y282868D01*
X291147D01*
X291206Y282875D01*
X291271Y282889D01*
X291352Y282911D01*
X291432Y282948D01*
X291505Y282991D01*
X291563Y283057D01*
X291570Y283064D01*
X291585Y283101D01*
X291607Y283152D01*
X291636Y283232D01*
X291651Y283283D01*
X291665Y283341D01*
X291672Y283407D01*
X291687Y283480D01*
X291694Y283567D01*
X291702Y283655D01*
X291709Y283757D01*
Y283866D01*
Y287139D01*
X292729D01*
Y283939D01*
D02*
G37*
G36*
X334815Y282948D02*
X337352D01*
Y282095D01*
X333794D01*
Y287103D01*
X334815D01*
Y282948D01*
D02*
G37*
G36*
X321496D02*
X324033D01*
Y282095D01*
X320475D01*
Y287103D01*
X321496D01*
Y282948D01*
D02*
G37*
G36*
X308177D02*
X310714D01*
Y282095D01*
X307156D01*
Y287103D01*
X308177D01*
Y282948D01*
D02*
G37*
G36*
X294858D02*
X297395D01*
Y282095D01*
X293838D01*
Y287103D01*
X294858D01*
Y282948D01*
D02*
G37*
%LPC*%
G36*
X233992Y260317D02*
X233948D01*
X233911Y260310D01*
X233831Y260302D01*
X233722Y260273D01*
X233598Y260229D01*
X233467Y260171D01*
X233343Y260084D01*
X233277Y260025D01*
X233219Y259967D01*
Y259960D01*
X233204Y259952D01*
X233190Y259931D01*
X233168Y259901D01*
X233146Y259865D01*
X233124Y259821D01*
X233095Y259763D01*
X233066Y259705D01*
X233037Y259632D01*
X233008Y259559D01*
X232986Y259471D01*
X232964Y259377D01*
X232942Y259275D01*
X232927Y259165D01*
X232920Y259041D01*
X232913Y258917D01*
Y258910D01*
Y258888D01*
Y258852D01*
X232920Y258801D01*
Y258742D01*
X232927Y258677D01*
X232949Y258524D01*
X232986Y258349D01*
X233044Y258174D01*
X233117Y258006D01*
X233168Y257933D01*
X233219Y257860D01*
X233226D01*
X233234Y257846D01*
X233277Y257809D01*
X233343Y257751D01*
X233430Y257693D01*
X233540Y257627D01*
X233671Y257569D01*
X233824Y257532D01*
X233904Y257525D01*
X233992Y257518D01*
X234035D01*
X234072Y257525D01*
X234152Y257540D01*
X234261Y257561D01*
X234378Y257605D01*
X234509Y257663D01*
X234633Y257751D01*
X234699Y257809D01*
X234757Y257868D01*
X234765Y257875D01*
X234772Y257882D01*
X234786Y257904D01*
X234808Y257933D01*
X234830Y257970D01*
X234859Y258013D01*
X234888Y258072D01*
X234917Y258130D01*
X234947Y258203D01*
X234969Y258283D01*
X234998Y258370D01*
X235020Y258465D01*
X235041Y258575D01*
X235056Y258684D01*
X235071Y258808D01*
Y258939D01*
Y258946D01*
Y258968D01*
Y259005D01*
X235063Y259049D01*
Y259107D01*
X235056Y259172D01*
X235034Y259326D01*
X234998Y259486D01*
X234939Y259661D01*
X234859Y259821D01*
X234816Y259901D01*
X234757Y259967D01*
Y259974D01*
X234743Y259982D01*
X234699Y260025D01*
X234633Y260076D01*
X234546Y260142D01*
X234436Y260208D01*
X234305Y260266D01*
X234159Y260302D01*
X234079Y260310D01*
X233992Y260317D01*
D02*
G37*
G36*
X222649D02*
X222605D01*
X222576Y260310D01*
X222495Y260302D01*
X222401Y260280D01*
X222284Y260244D01*
X222160Y260193D01*
X222043Y260120D01*
X221927Y260025D01*
X221912Y260011D01*
X221883Y259974D01*
X221832Y259909D01*
X221781Y259821D01*
X221723Y259719D01*
X221672Y259588D01*
X221628Y259435D01*
X221606Y259267D01*
X223655D01*
Y259275D01*
Y259289D01*
X223647Y259311D01*
Y259340D01*
X223633Y259428D01*
X223611Y259522D01*
X223574Y259639D01*
X223538Y259748D01*
X223480Y259858D01*
X223414Y259952D01*
Y259960D01*
X223399Y259967D01*
X223363Y260011D01*
X223297Y260069D01*
X223210Y260135D01*
X223100Y260200D01*
X222969Y260259D01*
X222816Y260302D01*
X222736Y260310D01*
X222649Y260317D01*
D02*
G37*
G36*
X249665Y261644D02*
X249622D01*
X249592Y261636D01*
X249512Y261622D01*
X249417Y261600D01*
X249308Y261556D01*
X249191Y261491D01*
X249133Y261447D01*
X249075Y261403D01*
X249024Y261345D01*
X248973Y261279D01*
Y261272D01*
X248958Y261257D01*
X248943Y261228D01*
X248922Y261192D01*
X248900Y261133D01*
X248871Y261068D01*
X248849Y260988D01*
X248820Y260893D01*
X248790Y260784D01*
X248761Y260660D01*
X248732Y260521D01*
X248710Y260368D01*
X248688Y260193D01*
X248674Y260003D01*
X248667Y259799D01*
X248659Y259573D01*
Y259559D01*
Y259522D01*
Y259457D01*
X248667Y259369D01*
Y259275D01*
X248674Y259158D01*
X248681Y259034D01*
X248696Y258903D01*
X248732Y258618D01*
X248754Y258480D01*
X248783Y258349D01*
X248812Y258225D01*
X248856Y258108D01*
X248900Y258006D01*
X248951Y257919D01*
Y257911D01*
X248965Y257904D01*
X249002Y257853D01*
X249067Y257787D01*
X249148Y257714D01*
X249257Y257642D01*
X249381Y257576D01*
X249519Y257525D01*
X249592Y257518D01*
X249673Y257510D01*
X249716D01*
X249745Y257518D01*
X249818Y257532D01*
X249920Y257561D01*
X250030Y257612D01*
X250154Y257685D01*
X250212Y257729D01*
X250270Y257787D01*
X250329Y257846D01*
X250387Y257919D01*
Y257926D01*
X250401Y257940D01*
X250416Y257962D01*
X250431Y257999D01*
X250460Y258050D01*
X250482Y258115D01*
X250511Y258188D01*
X250540Y258276D01*
X250562Y258385D01*
X250591Y258502D01*
X250620Y258640D01*
X250642Y258786D01*
X250657Y258961D01*
X250671Y259143D01*
X250686Y259347D01*
Y259573D01*
Y259581D01*
Y259588D01*
Y259624D01*
Y259690D01*
X250678Y259777D01*
Y259872D01*
X250671Y259989D01*
X250664Y260113D01*
X250649Y260251D01*
X250613Y260528D01*
X250591Y260667D01*
X250562Y260798D01*
X250533Y260922D01*
X250489Y261039D01*
X250445Y261141D01*
X250394Y261228D01*
Y261235D01*
X250380Y261243D01*
X250365Y261265D01*
X250343Y261294D01*
X250278Y261359D01*
X250197Y261440D01*
X250088Y261512D01*
X249964Y261578D01*
X249899Y261607D01*
X249826Y261629D01*
X249745Y261636D01*
X249665Y261644D01*
D02*
G37*
G36*
X264399Y269353D02*
X264388D01*
X264345Y269331D01*
X264279Y269320D01*
X264181Y269287D01*
X264060Y269255D01*
X263897Y269211D01*
X263722Y269167D01*
X263503Y269123D01*
X263481D01*
X263449Y269112D01*
X263405Y269102D01*
X263306Y269080D01*
X263175Y269047D01*
X263044Y269014D01*
X262913Y268970D01*
X262804Y268916D01*
X262716Y268872D01*
X262705Y268861D01*
X262672Y268839D01*
X262629Y268795D01*
X262585Y268741D01*
X262530Y268664D01*
X262487Y268577D01*
X262454Y268478D01*
X262443Y268369D01*
Y268358D01*
Y268315D01*
X262454Y268260D01*
X262476Y268194D01*
X262498Y268107D01*
X262530Y268020D01*
X262585Y267932D01*
X262662Y267845D01*
X262672Y267834D01*
X262705Y267812D01*
X262749Y267779D01*
X262825Y267735D01*
X262902Y267692D01*
X263000Y267659D01*
X263121Y267637D01*
X263241Y267626D01*
X263306D01*
X263383Y267637D01*
X263481Y267659D01*
X263601Y267692D01*
X263722Y267735D01*
X263864Y267790D01*
X263995Y267877D01*
X264006Y267888D01*
X264039Y267910D01*
X264082Y267954D01*
X264137Y268008D01*
X264192Y268085D01*
X264246Y268162D01*
X264301Y268260D01*
X264334Y268358D01*
Y268369D01*
X264345Y268391D01*
X264356Y268446D01*
X264367Y268511D01*
X264377Y268610D01*
X264388Y268730D01*
X264399Y268883D01*
Y269058D01*
Y269353D01*
D02*
G37*
G36*
X238288Y271222D02*
X238211D01*
X238124Y271200D01*
X238014Y271178D01*
X237894Y271134D01*
X237763Y271080D01*
X237632Y270992D01*
X237512Y270872D01*
X237501Y270861D01*
X237468Y270807D01*
X237413Y270730D01*
X237359Y270621D01*
X237293Y270490D01*
X237249Y270326D01*
X237216Y270140D01*
X237206Y269932D01*
X239370D01*
Y269943D01*
Y269965D01*
Y269987D01*
X239359Y270031D01*
X239348Y270151D01*
X239326Y270282D01*
X239282Y270435D01*
X239228Y270599D01*
X239140Y270752D01*
X239042Y270883D01*
X239031Y270894D01*
X238987Y270938D01*
X238921Y270992D01*
X238834Y271058D01*
X238725Y271113D01*
X238594Y271167D01*
X238452Y271211D01*
X238288Y271222D01*
D02*
G37*
G36*
X217127D02*
X217051D01*
X216963Y271200D01*
X216854Y271178D01*
X216734Y271134D01*
X216602Y271080D01*
X216471Y270992D01*
X216351Y270872D01*
X216340Y270861D01*
X216307Y270807D01*
X216253Y270730D01*
X216198Y270621D01*
X216132Y270490D01*
X216089Y270326D01*
X216056Y270140D01*
X216045Y269932D01*
X218209D01*
Y269943D01*
Y269965D01*
Y269987D01*
X218198Y270031D01*
X218187Y270151D01*
X218165Y270282D01*
X218122Y270435D01*
X218067Y270599D01*
X217980Y270752D01*
X217881Y270883D01*
X217870Y270894D01*
X217827Y270938D01*
X217761Y270992D01*
X217674Y271058D01*
X217564Y271113D01*
X217433Y271167D01*
X217291Y271211D01*
X217127Y271222D01*
D02*
G37*
G36*
X232014D02*
X231992D01*
X231926Y271211D01*
X231828Y271200D01*
X231708Y271167D01*
X231577Y271124D01*
X231424Y271047D01*
X231281Y270949D01*
X231150Y270807D01*
X231139Y270785D01*
X231096Y270730D01*
X231052Y270632D01*
X230986Y270501D01*
X230932Y270326D01*
X230877Y270118D01*
X230833Y269867D01*
X230822Y269571D01*
Y269561D01*
Y269539D01*
Y269484D01*
X230833Y269429D01*
Y269364D01*
X230844Y269276D01*
X230866Y269091D01*
X230899Y268883D01*
X230964Y268675D01*
X231041Y268478D01*
X231150Y268304D01*
X231161Y268282D01*
X231216Y268238D01*
X231281Y268173D01*
X231380Y268107D01*
X231500Y268030D01*
X231642Y267965D01*
X231806Y267921D01*
X231981Y267899D01*
X232003D01*
X232068Y267910D01*
X232167Y267921D01*
X232298Y267954D01*
X232440Y267998D01*
X232582Y268074D01*
X232735Y268173D01*
X232877Y268315D01*
X232888Y268336D01*
X232932Y268391D01*
X232997Y268489D01*
X233063Y268621D01*
X233129Y268795D01*
X233194Y269003D01*
X233238Y269255D01*
X233249Y269539D01*
Y269550D01*
Y269571D01*
Y269615D01*
Y269681D01*
X233238Y269746D01*
X233227Y269834D01*
X233205Y270020D01*
X233161Y270227D01*
X233107Y270435D01*
X233019Y270632D01*
X232899Y270807D01*
X232888Y270829D01*
X232834Y270872D01*
X232757Y270938D01*
X232659Y271014D01*
X232527Y271091D01*
X232375Y271156D01*
X232210Y271200D01*
X232014Y271222D01*
D02*
G37*
%LPD*%
D10*
X253842Y321955D02*
G03*
X253842Y321955I-984J0D01*
G01*
D11*
X246342Y311455D02*
G03*
X246342Y311455I-984J0D01*
G01*
D12*
X358902Y318900D02*
G03*
X358902Y324100I-902J2600D01*
G01*
X349098D02*
G03*
X349098Y318900I902J-2600D01*
G01*
X303198Y357100D02*
G03*
X303198Y351900I902J-2600D01*
G01*
X313002D02*
G03*
X313002Y357100I-902J2600D01*
G01*
X285902Y348900D02*
G03*
X285902Y354100I-902J2600D01*
G01*
X276098D02*
G03*
X276098Y348900I902J-2600D01*
G01*
X282900Y335098D02*
G03*
X288100Y335098I2600J902D01*
G01*
Y344902D02*
G03*
X282900Y344902I-2600J-902D01*
G01*
X309000Y317300D02*
G03*
X309000Y325700I-3500J4200D01*
G01*
X290000Y325700D02*
G03*
X290000Y317300I3500J-4200D01*
G01*
X120402Y223406D02*
G03*
X120402Y228606I-902J2600D01*
G01*
X110598D02*
G03*
X110598Y223406I902J-2600D01*
G01*
X169479D02*
G03*
X169479Y228606I-902J2600D01*
G01*
X159675D02*
G03*
X159675Y223406I902J-2600D01*
G01*
X218555D02*
G03*
X218555Y228606I-902J2600D01*
G01*
X208752D02*
G03*
X208752Y223406I902J-2600D01*
G01*
X316709D02*
G03*
X316709Y228606I-902J2600D01*
G01*
X306905D02*
G03*
X306905Y223406I902J-2600D01*
G01*
X267632D02*
G03*
X267632Y228606I-902J2600D01*
G01*
X257828D02*
G03*
X257828Y223406I902J-2600D01*
G01*
X234598Y304600D02*
G03*
X234598Y299400I902J-2600D01*
G01*
X244402D02*
G03*
X244402Y304600I-902J2600D01*
G01*
X267400Y293698D02*
G03*
X272600Y293698I2600J902D01*
G01*
Y303502D02*
G03*
X267400Y303502I-2600J-902D01*
G01*
X240900Y285598D02*
G03*
X246100Y285598I2600J902D01*
G01*
Y295402D02*
G03*
X240900Y295402I-2600J-902D01*
G01*
X185400Y288098D02*
G03*
X190600Y288098I2600J902D01*
G01*
Y297902D02*
G03*
X185400Y297902I-2600J-902D01*
G01*
X199098Y310100D02*
G03*
X199098Y304900I902J-2600D01*
G01*
X208902D02*
G03*
X208902Y310100I-902J2600D01*
G01*
X153698Y337100D02*
G03*
X153698Y331900I902J-2600D01*
G01*
X163502D02*
G03*
X163502Y337100I-902J2600D01*
G01*
X187198Y325100D02*
G03*
X187198Y319900I902J-2600D01*
G01*
X197002D02*
G03*
X197002Y325100I-902J2600D01*
G01*
X248000Y348500D02*
Y358500D01*
X228000Y348500D02*
X248000D01*
X228000D02*
Y358500D01*
X248000D01*
X228500Y306000D02*
X238500D01*
X228500D02*
Y346000D01*
X238500Y306000D02*
Y346000D01*
X228500D02*
X238500D01*
X230000Y370500D02*
X300000D01*
X230000Y360500D02*
Y370500D01*
Y360500D02*
X300000D01*
Y370500D01*
X356100Y318900D02*
X358902D01*
X356100Y324100D02*
X358902D01*
X349098Y318900D02*
X351900D01*
X349098Y324100D02*
X351900D01*
X302500Y369500D02*
X332500D01*
X302500Y359500D02*
Y369500D01*
Y359500D02*
X332500D01*
Y369500D01*
X303198Y357100D02*
X306000D01*
X303198Y351900D02*
X306000D01*
X310200Y357100D02*
X313002D01*
X310200Y351900D02*
X313002D01*
X283100Y348900D02*
X285902D01*
X283100Y354100D02*
X285902D01*
X276098Y348900D02*
X278900D01*
X276098Y354100D02*
X278900D01*
X282900Y335098D02*
Y337900D01*
X288100Y335098D02*
Y337900D01*
X282900Y342100D02*
Y344902D01*
X288100Y342100D02*
Y344902D01*
X303000Y317300D02*
X309000D01*
X303000Y325700D02*
X309000D01*
X290000Y317300D02*
X296000D01*
X290000Y325700D02*
X296000D01*
X199911Y242244D02*
Y245787D01*
X196761Y242244D02*
X199911D01*
X188100D02*
Y245787D01*
Y242244D02*
X191250D01*
X158000Y239000D02*
X168000D01*
X158000D02*
Y259000D01*
X168000D01*
Y239000D02*
Y259000D01*
X117600Y223406D02*
X120402D01*
X117600Y228606D02*
X120402D01*
X110598Y223406D02*
X113400D01*
X110598Y228606D02*
X113400D01*
X166677Y223406D02*
X169479D01*
X166677Y228606D02*
X169479D01*
X159675Y223406D02*
X162477D01*
X159675Y228606D02*
X162477D01*
X215754Y223406D02*
X218555D01*
X215754Y228606D02*
X218555D01*
X208752Y223406D02*
X211554D01*
X208752Y228606D02*
X211554D01*
X313907Y223406D02*
X316709D01*
X313907Y228606D02*
X316709D01*
X306905Y223406D02*
X309707D01*
X306905Y228606D02*
X309707D01*
X264830Y223406D02*
X267632D01*
X264830Y228606D02*
X267632D01*
X257829Y223406D02*
X260630D01*
X257829Y228606D02*
X260630D01*
X255000Y243000D02*
Y253000D01*
X275000D01*
Y243000D02*
Y253000D01*
X255000Y243000D02*
X275000D01*
X234598Y304600D02*
X237400D01*
X234598Y299400D02*
X237400D01*
X241600Y304600D02*
X244402D01*
X241600Y299400D02*
X244402D01*
X267400Y293698D02*
Y296500D01*
X272600Y293698D02*
Y296500D01*
X267400Y300700D02*
Y303502D01*
X272600Y300700D02*
Y303502D01*
X240900Y285598D02*
Y288400D01*
X246100Y285598D02*
Y288400D01*
X240900Y292600D02*
Y295402D01*
X246100Y292600D02*
Y295402D01*
X185400Y288098D02*
Y290900D01*
X190600Y288098D02*
Y290900D01*
X185400Y295100D02*
Y297902D01*
X190600Y295100D02*
Y297902D01*
X199098Y310100D02*
X201900D01*
X199098Y304900D02*
X201900D01*
X206100Y310100D02*
X208902D01*
X206100Y304900D02*
X208902D01*
X214089Y332713D02*
Y336256D01*
X217239D01*
X225900Y332713D02*
Y336256D01*
X222750D02*
X225900D01*
X206280Y343705D02*
X211035D01*
Y370000D01*
X206280D02*
X211035D01*
X168000Y365000D02*
X178000D01*
Y345000D02*
Y365000D01*
X168000Y345000D02*
X178000D01*
X168000D02*
Y365000D01*
X168882Y326807D02*
X179118D01*
X168882Y340193D02*
X179118D01*
X153698Y337100D02*
X156500D01*
X153698Y331900D02*
X156500D01*
X160700Y337100D02*
X163502D01*
X160700Y331900D02*
X163502D01*
X187198Y325100D02*
X190000D01*
X187198Y319900D02*
X190000D01*
X194200Y325100D02*
X197002D01*
X194200Y319900D02*
X197002D01*
D13*
X200791Y251500D02*
G03*
X200791Y251500I-492J0D01*
G01*
X214193Y327000D02*
G03*
X214193Y327000I-492J0D01*
G01*
D14*
X173500Y263000D02*
G03*
X173500Y263000I-500J0D01*
G01*
X250300Y289800D02*
G03*
X250300Y289800I-500J0D01*
G01*
X148185Y254500D02*
G03*
X148185Y254500I-19685J0D01*
G01*
Y342500D02*
G03*
X148185Y342500I-19685J0D01*
G01*
X168000Y302500D02*
G03*
X168000Y298500I0J-2000D01*
G01*
Y310500D02*
G03*
X168000Y306500I0J-2000D01*
G01*
D02*
G03*
X168000Y302500I0J-2000D01*
G01*
X162000Y314500D02*
G03*
X162000Y294500I6000J-10000D01*
G01*
X156000Y319500D02*
G03*
X153000Y316500I0J-3000D01*
G01*
Y292500D02*
G03*
X156000Y289500I3000J0D01*
G01*
X183000Y316500D02*
G03*
X180000Y319500I-3000J0D01*
G01*
Y289500D02*
G03*
X183000Y292500I0J3000D01*
G01*
X174000Y294500D02*
G03*
X174000Y314500I-6000J10000D01*
G01*
X248858Y317955D02*
X270858D01*
X248858D02*
Y339955D01*
X270858D01*
Y317955D02*
Y339955D01*
X280476Y247063D02*
Y310055D01*
X374965D01*
X280476Y247063D02*
X374965D01*
Y310055D01*
X178300Y248500D02*
X178500Y249590D01*
X178300Y248500D02*
X179700D01*
X178500Y250700D02*
X179700Y248500D01*
X177300Y248200D02*
X178500Y250700D01*
X173185Y256000D02*
X174500D01*
X172500Y259500D02*
X174500D01*
X182500Y256000D02*
X183815D01*
X182500Y259500D02*
X184500D01*
X172500Y238870D02*
X174248D01*
X184500D02*
Y259500D01*
X182850Y238870D02*
X184500D01*
X172500D02*
Y259500D01*
X227159Y287020D02*
Y289900D01*
X202356Y287020D02*
Y289900D01*
X227159Y298700D02*
Y301980D01*
X202356Y298700D02*
Y301980D01*
Y287020D02*
X227159D01*
X202356Y301980D02*
X227159D01*
X222000Y296600D02*
Y299500D01*
X208000D02*
X222000D01*
X208000Y296600D02*
Y299500D01*
X212000Y290500D02*
X217900D01*
X215000Y292500D02*
Y295100D01*
Y296900D02*
Y299500D01*
X345159Y328520D02*
Y331400D01*
X320356Y328520D02*
Y331400D01*
X345159Y340200D02*
Y343480D01*
X320356Y340200D02*
Y343480D01*
Y328520D02*
X345159D01*
X320356Y343480D02*
X345159D01*
X340000Y338100D02*
Y341000D01*
X326000D02*
X340000D01*
X326000Y338100D02*
Y341000D01*
X330000Y332000D02*
X335900D01*
X333000Y334000D02*
Y336600D01*
Y338400D02*
Y341000D01*
X316341Y216100D02*
Y218980D01*
X341144Y216100D02*
Y218980D01*
X316341Y204020D02*
Y207300D01*
X341144Y204020D02*
Y207300D01*
X316341Y218980D02*
X341144D01*
X316341Y204020D02*
X341144D01*
X321500Y206500D02*
Y209400D01*
Y206500D02*
X335500D01*
Y209400D01*
X325600Y215500D02*
X331500D01*
X328500Y210900D02*
Y213500D01*
Y206500D02*
Y209100D01*
X265716Y216100D02*
Y218980D01*
X290519Y216100D02*
Y218980D01*
X265716Y204020D02*
Y207300D01*
X290519Y204020D02*
Y207300D01*
X265716Y218980D02*
X290519D01*
X265716Y204020D02*
X290519D01*
X270875Y206500D02*
Y209400D01*
Y206500D02*
X284875D01*
Y209400D01*
X274975Y215500D02*
X280875D01*
X277875Y210900D02*
Y213500D01*
Y206500D02*
Y209100D01*
X215091Y216100D02*
Y218980D01*
X239894Y216100D02*
Y218980D01*
X215091Y204020D02*
Y207300D01*
X239894Y204020D02*
Y207300D01*
X215091Y218980D02*
X239894D01*
X215091Y204020D02*
X239894D01*
X220250Y206500D02*
Y209400D01*
Y206500D02*
X234250D01*
Y209400D01*
X224350Y215500D02*
X230250D01*
X227250Y210900D02*
Y213500D01*
Y206500D02*
Y209100D01*
X164466Y216100D02*
Y218980D01*
X189269Y216100D02*
Y218980D01*
X164466Y204020D02*
Y207300D01*
X189269Y204020D02*
Y207300D01*
X164466Y218980D02*
X189269D01*
X164466Y204020D02*
X189269D01*
X169625Y206500D02*
Y209400D01*
Y206500D02*
X183625D01*
Y209400D01*
X173725Y215500D02*
X179625D01*
X176625Y210900D02*
Y213500D01*
Y206500D02*
Y209100D01*
X113841Y216100D02*
Y218980D01*
X138644Y216100D02*
Y218980D01*
X113841Y204020D02*
Y207300D01*
X138644Y204020D02*
Y207300D01*
X113841Y218980D02*
X138644D01*
X113841Y204020D02*
X138644D01*
X119000Y206500D02*
Y209400D01*
Y206500D02*
X133000D01*
Y209400D01*
X123100Y215500D02*
X129000D01*
X126000Y210900D02*
Y213500D01*
Y206500D02*
Y209100D01*
X168000Y294500D02*
Y298500D01*
Y310500D02*
Y314500D01*
X156000Y289500D02*
X163000D01*
X153000Y292500D02*
Y316500D01*
X156000Y319500D02*
X163000D01*
X173000Y289500D02*
X180000D01*
X183000Y292500D02*
Y316500D01*
X173000Y319500D02*
X180000D01*
X250876Y335968D02*
Y332688D01*
X251532Y332032D01*
X252844D01*
X253500Y332688D01*
Y335968D01*
X254812Y332032D02*
X256124D01*
X255468D01*
Y335968D01*
X254812Y335312D01*
X225968Y352376D02*
X222032D01*
Y354344D01*
X222688Y355000D01*
X224000D01*
X224656Y354344D01*
Y352376D01*
X225968Y356312D02*
Y357624D01*
Y356968D01*
X222032D01*
X222688Y356312D01*
X230220Y345032D02*
Y348968D01*
X232188D01*
X232844Y348312D01*
Y347000D01*
X232188Y346344D01*
X230220D01*
X236124Y345032D02*
Y348968D01*
X234156Y347000D01*
X236780D01*
X260220Y355532D02*
Y359468D01*
X262188D01*
X262844Y358812D01*
Y357500D01*
X262188Y356844D01*
X260220D01*
X264156Y359468D02*
X266780D01*
Y358812D01*
X264156Y356188D01*
Y355532D01*
X313876Y325032D02*
Y328968D01*
X315844D01*
X316500Y328312D01*
Y327000D01*
X315844Y326344D01*
X313876D01*
X315188D02*
X316500Y325032D01*
X317812D02*
X319124D01*
X318468D01*
Y328968D01*
X317812Y328312D01*
X352844D02*
X352188Y328968D01*
X350876D01*
X350220Y328312D01*
Y325688D01*
X350876Y325032D01*
X352188D01*
X352844Y325688D01*
X356124Y325032D02*
Y328968D01*
X354156Y327000D01*
X356780D01*
X334220Y324032D02*
Y327968D01*
X336188D01*
X336844Y327312D01*
Y326000D01*
X336188Y325344D01*
X334220D01*
X335532D02*
X336844Y324032D01*
X340780D02*
X338156D01*
X340780Y326656D01*
Y327312D01*
X340124Y327968D01*
X338812D01*
X338156Y327312D01*
X334720Y362032D02*
Y365968D01*
X336688D01*
X337344Y365312D01*
Y364000D01*
X336688Y363344D01*
X334720D01*
X338656Y365312D02*
X339312Y365968D01*
X340624D01*
X341280Y365312D01*
Y364656D01*
X340624Y364000D01*
X339968D01*
X340624D01*
X341280Y363344D01*
Y362688D01*
X340624Y362032D01*
X339312D01*
X338656Y362688D01*
X331220Y352532D02*
Y356468D01*
X333188D01*
X333844Y355812D01*
Y354500D01*
X333188Y353844D01*
X331220D01*
X332532D02*
X333844Y352532D01*
X335156Y355812D02*
X335812Y356468D01*
X337124D01*
X337780Y355812D01*
Y355156D01*
X337124Y354500D01*
X337780Y353844D01*
Y353188D01*
X337124Y352532D01*
X335812D01*
X335156Y353188D01*
Y353844D01*
X335812Y354500D01*
X335156Y355156D01*
Y355812D01*
X335812Y354500D02*
X337124D01*
X307344Y350312D02*
X306688Y350968D01*
X305376D01*
X304720Y350312D01*
Y347688D01*
X305376Y347032D01*
X306688D01*
X307344Y347688D01*
X311280Y350968D02*
X309968Y350312D01*
X308656Y349000D01*
Y347688D01*
X309312Y347032D01*
X310624D01*
X311280Y347688D01*
Y348344D01*
X310624Y349000D01*
X308656D01*
X280844Y358312D02*
X280188Y358968D01*
X278876D01*
X278220Y358312D01*
Y355688D01*
X278876Y355032D01*
X280188D01*
X280844Y355688D01*
X282156Y358968D02*
X284780D01*
Y358312D01*
X282156Y355688D01*
Y355032D01*
X289688Y337704D02*
X289032Y337048D01*
Y335736D01*
X289688Y335080D01*
X292312D01*
X292968Y335736D01*
Y337048D01*
X292312Y337704D01*
X292968Y339016D02*
Y340328D01*
Y339672D01*
X289032D01*
X289688Y339016D01*
Y342296D02*
X289032Y342952D01*
Y344264D01*
X289688Y344920D01*
X292312D01*
X292968Y344264D01*
Y342952D01*
X292312Y342296D01*
X289688D01*
X298344Y330312D02*
X297688Y330968D01*
X296376D01*
X295720Y330312D01*
Y327688D01*
X296376Y327032D01*
X297688D01*
X298344Y327688D01*
X299656Y330312D02*
X300312Y330968D01*
X301624D01*
X302280Y330312D01*
Y329656D01*
X301624Y329000D01*
X300968D01*
X301624D01*
X302280Y328344D01*
Y327688D01*
X301624Y327032D01*
X300312D01*
X299656Y327688D01*
X286032Y294220D02*
X289312D01*
X289968Y294876D01*
Y296188D01*
X289312Y296844D01*
X286032D01*
X289968Y300780D02*
Y298156D01*
X287344Y300780D01*
X286688D01*
X286032Y300124D01*
Y298812D01*
X286688Y298156D01*
X189080Y261032D02*
Y264968D01*
X191048D01*
X191704Y264312D01*
Y263000D01*
X191048Y262344D01*
X189080D01*
X190392D02*
X191704Y261032D01*
X193016D02*
X194328D01*
X193672D01*
Y264968D01*
X193016Y264312D01*
X198920Y261032D02*
X196296D01*
X198920Y263656D01*
Y264312D01*
X198264Y264968D01*
X196952D01*
X196296Y264312D01*
X193344Y244188D02*
Y246812D01*
X192688Y247468D01*
X191376D01*
X190720Y246812D01*
Y244188D01*
X191376Y243532D01*
X192688D01*
X192032Y244844D02*
X193344Y243532D01*
X192688D02*
X193344Y244188D01*
X194656Y246812D02*
X195312Y247468D01*
X196624D01*
X197280Y246812D01*
Y246156D01*
X196624Y245500D01*
X195968D01*
X196624D01*
X197280Y244844D01*
Y244188D01*
X196624Y243532D01*
X195312D01*
X194656Y244188D01*
X176532Y264376D02*
X180468D01*
Y266344D01*
X179812Y267000D01*
X177188D01*
X176532Y266344D01*
Y264376D01*
X180468Y268312D02*
Y269624D01*
Y268968D01*
X176532D01*
X177188Y268312D01*
X160220Y260032D02*
Y263968D01*
X162188D01*
X162844Y263312D01*
Y262000D01*
X162188Y261344D01*
X160220D01*
X166780Y263968D02*
X165468Y263312D01*
X164156Y262000D01*
Y260688D01*
X164812Y260032D01*
X166124D01*
X166780Y260688D01*
Y261344D01*
X166124Y262000D01*
X164156D01*
X113204Y232812D02*
X112548Y233468D01*
X111236D01*
X110580Y232812D01*
Y230188D01*
X111236Y229532D01*
X112548D01*
X113204Y230188D01*
X114516Y229532D02*
X115828D01*
X115172D01*
Y233468D01*
X114516Y232812D01*
X119764Y229532D02*
Y233468D01*
X117796Y231500D01*
X120420D01*
X135080Y230032D02*
Y233968D01*
X137048D01*
X137704Y233312D01*
Y232000D01*
X137048Y231344D01*
X135080D01*
X136392D02*
X137704Y230032D01*
X139016D02*
X140328D01*
X139672D01*
Y233968D01*
X139016Y233312D01*
X144920Y233968D02*
X143608Y233312D01*
X142296Y232000D01*
Y230688D01*
X142952Y230032D01*
X144264D01*
X144920Y230688D01*
Y231344D01*
X144264Y232000D01*
X142296D01*
X162204Y233312D02*
X161548Y233968D01*
X160236D01*
X159580Y233312D01*
Y230688D01*
X160236Y230032D01*
X161548D01*
X162204Y230688D01*
X163516Y230032D02*
X164828D01*
X164172D01*
Y233968D01*
X163516Y233312D01*
X169420Y233968D02*
X166796D01*
Y232000D01*
X168108Y232656D01*
X168764D01*
X169420Y232000D01*
Y230688D01*
X168764Y230032D01*
X167452D01*
X166796Y230688D01*
X185080Y230032D02*
Y233968D01*
X187048D01*
X187704Y233312D01*
Y232000D01*
X187048Y231344D01*
X185080D01*
X186392D02*
X187704Y230032D01*
X189016D02*
X190328D01*
X189672D01*
Y233968D01*
X189016Y233312D01*
X192296Y233968D02*
X194920D01*
Y233312D01*
X192296Y230688D01*
Y230032D01*
X233080D02*
Y233968D01*
X235048D01*
X235704Y233312D01*
Y232000D01*
X235048Y231344D01*
X233080D01*
X234392D02*
X235704Y230032D01*
X237016D02*
X238328D01*
X237672D01*
Y233968D01*
X237016Y233312D01*
X240296D02*
X240952Y233968D01*
X242264D01*
X242920Y233312D01*
Y232656D01*
X242264Y232000D01*
X242920Y231344D01*
Y230688D01*
X242264Y230032D01*
X240952D01*
X240296Y230688D01*
Y231344D01*
X240952Y232000D01*
X240296Y232656D01*
Y233312D01*
X240952Y232000D02*
X242264D01*
X211704Y233312D02*
X211048Y233968D01*
X209736D01*
X209080Y233312D01*
Y230688D01*
X209736Y230032D01*
X211048D01*
X211704Y230688D01*
X213016Y230032D02*
X214328D01*
X213672D01*
Y233968D01*
X213016Y233312D01*
X218920Y233968D02*
X217608Y233312D01*
X216296Y232000D01*
Y230688D01*
X216952Y230032D01*
X218264D01*
X218920Y230688D01*
Y231344D01*
X218264Y232000D01*
X216296D01*
X371468Y238220D02*
X367532D01*
Y240188D01*
X368188Y240844D01*
X369500D01*
X370156Y240188D01*
Y238220D01*
Y239532D02*
X371468Y240844D01*
X367532Y244780D02*
Y242156D01*
X369500D01*
X368844Y243468D01*
Y244124D01*
X369500Y244780D01*
X370812D01*
X371468Y244124D01*
Y242812D01*
X370812Y242156D01*
X361468Y238220D02*
X357532D01*
Y240188D01*
X358188Y240844D01*
X359500D01*
X360156Y240188D01*
Y238220D01*
Y239532D02*
X361468Y240844D01*
Y244124D02*
X357532D01*
X359500Y242156D01*
Y244780D01*
X363785Y202468D02*
Y198532D01*
X366408D01*
X370344Y202468D02*
X367720D01*
Y198532D01*
X370344D01*
X367720Y200500D02*
X369032D01*
X371656Y202468D02*
Y198532D01*
X373624D01*
X374280Y199188D01*
Y201812D01*
X373624Y202468D01*
X371656D01*
X378216Y198532D02*
X375592D01*
X378216Y201156D01*
Y201812D01*
X377560Y202468D01*
X376248D01*
X375592Y201812D01*
X348440Y202468D02*
Y198532D01*
X351064D01*
X355000Y202468D02*
X352376D01*
Y198532D01*
X355000D01*
X352376Y200500D02*
X353688D01*
X356312Y202468D02*
Y198532D01*
X358280D01*
X358936Y199188D01*
Y201812D01*
X358280Y202468D01*
X356312D01*
X360248Y198532D02*
X361560D01*
X360904D01*
Y202468D01*
X360248Y201812D01*
X314720Y234032D02*
Y237968D01*
X316688D01*
X317344Y237312D01*
Y236000D01*
X316688Y235344D01*
X314720D01*
X316032D02*
X317344Y234032D01*
X321280Y237968D02*
X319968Y237312D01*
X318656Y236000D01*
Y234688D01*
X319312Y234032D01*
X320624D01*
X321280Y234688D01*
Y235344D01*
X320624Y236000D01*
X318656D01*
X330752Y230032D02*
Y233968D01*
X332720D01*
X333376Y233312D01*
Y232000D01*
X332720Y231344D01*
X330752D01*
X332064D02*
X333376Y230032D01*
X337312D02*
X334688D01*
X337312Y232656D01*
Y233312D01*
X336656Y233968D01*
X335344D01*
X334688Y233312D01*
X338624D02*
X339280Y233968D01*
X340592D01*
X341248Y233312D01*
Y230688D01*
X340592Y230032D01*
X339280D01*
X338624Y230688D01*
Y233312D01*
X309204Y232312D02*
X308548Y232968D01*
X307236D01*
X306580Y232312D01*
Y229688D01*
X307236Y229032D01*
X308548D01*
X309204Y229688D01*
X310516Y229032D02*
X311828D01*
X311172D01*
Y232968D01*
X310516Y232312D01*
X313796D02*
X314452Y232968D01*
X315764D01*
X316420Y232312D01*
Y231656D01*
X315764Y231000D01*
X316420Y230344D01*
Y229688D01*
X315764Y229032D01*
X314452D01*
X313796Y229688D01*
Y230344D01*
X314452Y231000D01*
X313796Y231656D01*
Y232312D01*
X314452Y231000D02*
X315764D01*
X274220Y234532D02*
Y238468D01*
X276188D01*
X276844Y237812D01*
Y236500D01*
X276188Y235844D01*
X274220D01*
X275532D02*
X276844Y234532D01*
X278156Y237812D02*
X278812Y238468D01*
X280124D01*
X280780Y237812D01*
Y237156D01*
X280124Y236500D01*
X279468D01*
X280124D01*
X280780Y235844D01*
Y235188D01*
X280124Y234532D01*
X278812D01*
X278156Y235188D01*
X282080Y229532D02*
Y233468D01*
X284048D01*
X284704Y232812D01*
Y231500D01*
X284048Y230844D01*
X282080D01*
X283392D02*
X284704Y229532D01*
X286016D02*
X287328D01*
X286672D01*
Y233468D01*
X286016Y232812D01*
X289296Y230188D02*
X289952Y229532D01*
X291264D01*
X291920Y230188D01*
Y232812D01*
X291264Y233468D01*
X289952D01*
X289296Y232812D01*
Y232156D01*
X289952Y231500D01*
X291920D01*
X261204Y233312D02*
X260548Y233968D01*
X259236D01*
X258580Y233312D01*
Y230688D01*
X259236Y230032D01*
X260548D01*
X261204Y230688D01*
X262516Y230032D02*
X263828D01*
X263172D01*
Y233968D01*
X262516Y233312D01*
X265796Y233968D02*
X268420D01*
Y233312D01*
X265796Y230688D01*
Y230032D01*
X256720Y237532D02*
Y241468D01*
X258688D01*
X259344Y240812D01*
Y239500D01*
X258688Y238844D01*
X256720D01*
X263280Y237532D02*
X260656D01*
X263280Y240156D01*
Y240812D01*
X262624Y241468D01*
X261312D01*
X260656Y240812D01*
X241344Y309312D02*
X240688Y309968D01*
X239376D01*
X238720Y309312D01*
Y306688D01*
X239376Y306032D01*
X240688D01*
X241344Y306688D01*
X242656Y309312D02*
X243312Y309968D01*
X244624D01*
X245280Y309312D01*
Y308656D01*
X244624Y308000D01*
X245280Y307344D01*
Y306688D01*
X244624Y306032D01*
X243312D01*
X242656Y306688D01*
Y307344D01*
X243312Y308000D01*
X242656Y308656D01*
Y309312D01*
X243312Y308000D02*
X244624D01*
X268688Y286344D02*
X268032Y285688D01*
Y284376D01*
X268688Y283720D01*
X271312D01*
X271968Y284376D01*
Y285688D01*
X271312Y286344D01*
X271968Y290280D02*
Y287656D01*
X269344Y290280D01*
X268688D01*
X268032Y289624D01*
Y288312D01*
X268688Y287656D01*
X242188Y280500D02*
X241532Y279844D01*
Y278532D01*
X242188Y277876D01*
X244812D01*
X245468Y278532D01*
Y279844D01*
X244812Y280500D01*
X245468Y281812D02*
Y283124D01*
Y282468D01*
X241532D01*
X242188Y281812D01*
X253876Y289468D02*
X256500Y285532D01*
Y289468D02*
X253876Y285532D01*
X257812D02*
X259124D01*
X258468D01*
Y289468D01*
X257812Y288812D01*
X217720Y311032D02*
Y314968D01*
X219688D01*
X220344Y314312D01*
Y313000D01*
X219688Y312344D01*
X217720D01*
X219032D02*
X220344Y311032D01*
X221656Y314968D02*
X224280D01*
Y314312D01*
X221656Y311688D01*
Y311032D01*
X209752Y281532D02*
Y285468D01*
X211720D01*
X212376Y284812D01*
Y283500D01*
X211720Y282844D01*
X209752D01*
X211064D02*
X212376Y281532D01*
X216312Y284812D02*
X215656Y285468D01*
X214344D01*
X213688Y284812D01*
Y284156D01*
X214344Y283500D01*
X215656D01*
X216312Y282844D01*
Y282188D01*
X215656Y281532D01*
X214344D01*
X213688Y282188D01*
X217624Y285468D02*
X220248D01*
X218936D01*
Y281532D01*
X186688Y303204D02*
X186032Y302548D01*
Y301236D01*
X186688Y300580D01*
X189312D01*
X189968Y301236D01*
Y302548D01*
X189312Y303204D01*
X189968Y304516D02*
Y305828D01*
Y305172D01*
X186032D01*
X186688Y304516D01*
Y307796D02*
X186032Y308452D01*
Y309764D01*
X186688Y310420D01*
X187344D01*
X188000Y309764D01*
Y309108D01*
Y309764D01*
X188656Y310420D01*
X189312D01*
X189968Y309764D01*
Y308452D01*
X189312Y307796D01*
X198844Y303312D02*
X198188Y303968D01*
X196876D01*
X196220Y303312D01*
Y300688D01*
X196876Y300032D01*
X198188D01*
X198844Y300688D01*
X202780Y303968D02*
X200156D01*
Y302000D01*
X201468Y302656D01*
X202124D01*
X202780Y302000D01*
Y300688D01*
X202124Y300032D01*
X200812D01*
X200156Y300688D01*
X215236Y324032D02*
Y327968D01*
X217204D01*
X217860Y327312D01*
Y326000D01*
X217204Y325344D01*
X215236D01*
X216548D02*
X217860Y324032D01*
X219172D02*
X220484D01*
X219828D01*
Y327968D01*
X219172Y327312D01*
X222452Y324032D02*
X223764D01*
X223108D01*
Y327968D01*
X222452Y327312D01*
X219344Y332188D02*
Y334812D01*
X218688Y335468D01*
X217376D01*
X216720Y334812D01*
Y332188D01*
X217376Y331532D01*
X218688D01*
X218032Y332844D02*
X219344Y331532D01*
X218688D02*
X219344Y332188D01*
X223280Y331532D02*
X220656D01*
X223280Y334156D01*
Y334812D01*
X222624Y335468D01*
X221312D01*
X220656Y334812D01*
X209312Y348000D02*
X206688D01*
X206032Y347344D01*
Y346032D01*
X206688Y345376D01*
X209312D01*
X209968Y346032D01*
Y347344D01*
X208656Y346688D02*
X209968Y348000D01*
Y347344D02*
X209312Y348000D01*
X209968Y349312D02*
Y350624D01*
Y349968D01*
X206032D01*
X206688Y349312D01*
X170220Y366032D02*
Y369968D01*
X172188D01*
X172844Y369312D01*
Y368000D01*
X172188Y367344D01*
X170220D01*
X176780Y369968D02*
X174156D01*
Y368000D01*
X175468Y368656D01*
X176124D01*
X176780Y368000D01*
Y366688D01*
X176124Y366032D01*
X174812D01*
X174156Y366688D01*
X126376Y266468D02*
X123752D01*
Y262532D01*
X126376D01*
X123752Y264500D02*
X125064D01*
X130312Y265812D02*
X129656Y266468D01*
X128344D01*
X127688Y265812D01*
Y263188D01*
X128344Y262532D01*
X129656D01*
X130312Y263188D01*
X134248Y262532D02*
X131624D01*
X134248Y265156D01*
Y265812D01*
X133592Y266468D01*
X132280D01*
X131624Y265812D01*
X331308Y333968D02*
X328684D01*
Y330032D01*
X331308D01*
X328684Y332000D02*
X329996D01*
X332620Y330032D02*
Y333968D01*
X334588D01*
X335244Y333312D01*
Y332000D01*
X334588Y331344D01*
X332620D01*
X333932D02*
X335244Y330032D01*
X339180Y333312D02*
X338524Y333968D01*
X337212D01*
X336556Y333312D01*
Y332656D01*
X337212Y332000D01*
X338524D01*
X339180Y331344D01*
Y330688D01*
X338524Y330032D01*
X337212D01*
X336556Y330688D01*
X340492Y333968D02*
X343115D01*
X341804D01*
Y330032D01*
X106204Y292145D02*
X110140D01*
Y294112D01*
X109484Y294768D01*
X106860D01*
X106204Y294112D01*
Y292145D01*
X106860Y298704D02*
X106204Y298048D01*
Y296736D01*
X106860Y296080D01*
X109484D01*
X110140Y296736D01*
Y298048D01*
X109484Y298704D01*
X110796Y300016D02*
Y302640D01*
X106204Y303952D02*
Y305264D01*
Y304608D01*
X110140D01*
Y303952D01*
Y305264D01*
Y307232D02*
X106204D01*
X110140Y309855D01*
X106204D01*
X126532Y353468D02*
X123908D01*
Y349532D01*
X126532D01*
X123908Y351500D02*
X125220D01*
X130468Y352812D02*
X129812Y353468D01*
X128500D01*
X127844Y352812D01*
Y350188D01*
X128500Y349532D01*
X129812D01*
X130468Y350188D01*
X131780Y349532D02*
X133092D01*
X132436D01*
Y353468D01*
X131780Y352812D01*
X326220Y201968D02*
Y198032D01*
Y199344D01*
X328844Y201968D01*
X326876Y200000D01*
X328844Y198032D01*
X332780Y201968D02*
X330156D01*
Y200000D01*
X331468Y200656D01*
X332124D01*
X332780Y200000D01*
Y198688D01*
X332124Y198032D01*
X330812D01*
X330156Y198688D01*
X275720Y201968D02*
Y198032D01*
Y199344D01*
X278344Y201968D01*
X276376Y200000D01*
X278344Y198032D01*
X281624D02*
Y201968D01*
X279656Y200000D01*
X282280D01*
X224220Y201468D02*
Y197532D01*
Y198844D01*
X226844Y201468D01*
X224876Y199500D01*
X226844Y197532D01*
X228156Y200812D02*
X228812Y201468D01*
X230124D01*
X230780Y200812D01*
Y200156D01*
X230124Y199500D01*
X229468D01*
X230124D01*
X230780Y198844D01*
Y198188D01*
X230124Y197532D01*
X228812D01*
X228156Y198188D01*
X174720Y201968D02*
Y198032D01*
Y199344D01*
X177344Y201968D01*
X175376Y200000D01*
X177344Y198032D01*
X181280D02*
X178656D01*
X181280Y200656D01*
Y201312D01*
X180624Y201968D01*
X179312D01*
X178656Y201312D01*
X123876Y201968D02*
Y198032D01*
Y199344D01*
X126500Y201968D01*
X124532Y200000D01*
X126500Y198032D01*
X127812D02*
X129124D01*
X128468D01*
Y201968D01*
X127812Y201312D01*
X152720Y364532D02*
Y368468D01*
X154688D01*
X155344Y367812D01*
Y366500D01*
X154688Y365844D01*
X152720D01*
X154032D02*
X155344Y364532D01*
X156656Y365188D02*
X157312Y364532D01*
X158624D01*
X159280Y365188D01*
Y367812D01*
X158624Y368468D01*
X157312D01*
X156656Y367812D01*
Y367156D01*
X157312Y366500D01*
X159280D01*
X157230Y344032D02*
Y347968D01*
X159198D01*
X159854Y347312D01*
Y346000D01*
X159198Y345344D01*
X157230D01*
X158542D02*
X159854Y344032D01*
X161166D02*
X162478D01*
X161822D01*
Y347968D01*
X161166Y347312D01*
X164446D02*
X165102Y347968D01*
X166414D01*
X167070Y347312D01*
Y346656D01*
X166414Y346000D01*
X165758D01*
X166414D01*
X167070Y345344D01*
Y344688D01*
X166414Y344032D01*
X165102D01*
X164446Y344688D01*
X172032Y330220D02*
X175312D01*
X175968Y330876D01*
Y332188D01*
X175312Y332844D01*
X172032D01*
Y334156D02*
Y336780D01*
X172688D01*
X175312Y334156D01*
X175968D01*
X155704Y329812D02*
X155048Y330468D01*
X153736D01*
X153080Y329812D01*
Y327188D01*
X153736Y326532D01*
X155048D01*
X155704Y327188D01*
X157016Y326532D02*
X158328D01*
X157672D01*
Y330468D01*
X157016Y329812D01*
X162920Y326532D02*
X160296D01*
X162920Y329156D01*
Y329812D01*
X162264Y330468D01*
X160952D01*
X160296Y329812D01*
X154876Y317968D02*
Y314032D01*
X157500D01*
X158812D02*
X160124D01*
X159468D01*
Y317968D01*
X158812Y317312D01*
X200580Y313532D02*
Y317468D01*
X202548D01*
X203204Y316812D01*
Y315500D01*
X202548Y314844D01*
X200580D01*
X201892D02*
X203204Y313532D01*
X204516D02*
X205828D01*
X205172D01*
Y317468D01*
X204516Y316812D01*
X207796D02*
X208452Y317468D01*
X209764D01*
X210420Y316812D01*
Y314188D01*
X209764Y313532D01*
X208452D01*
X207796Y314188D01*
Y316812D01*
X202860Y323812D02*
X202204Y324468D01*
X200892D01*
X200236Y323812D01*
Y321188D01*
X200892Y320532D01*
X202204D01*
X202860Y321188D01*
X204172Y320532D02*
X205484D01*
X204828D01*
Y324468D01*
X204172Y323812D01*
X207452Y320532D02*
X208764D01*
X208108D01*
Y324468D01*
X207452Y323812D01*
X200580Y328532D02*
Y332468D01*
X202548D01*
X203204Y331812D01*
Y330500D01*
X202548Y329844D01*
X200580D01*
X201892D02*
X203204Y328532D01*
X204516D02*
X205828D01*
X205172D01*
Y332468D01*
X204516Y331812D01*
X210420Y332468D02*
X207796D01*
Y330500D01*
X209108Y331156D01*
X209764D01*
X210420Y330500D01*
Y329188D01*
X209764Y328532D01*
X208452D01*
X207796Y329188D01*
X201080Y336032D02*
Y339968D01*
X203048D01*
X203704Y339312D01*
Y338000D01*
X203048Y337344D01*
X201080D01*
X202392D02*
X203704Y336032D01*
X205016D02*
X206328D01*
X205672D01*
Y339968D01*
X205016Y339312D01*
X210264Y336032D02*
Y339968D01*
X208296Y338000D01*
X210920D01*
D15*
X223036Y338414D02*
G03*
X223036Y338414I-1500J0D01*
G01*
D16*
X114148Y296000D02*
G03*
X125852Y296000I5852J0D01*
G01*
Y306500D02*
G03*
X114148Y306500I-5852J0D01*
G01*
X138648Y296000D02*
G03*
X148983Y292238I5852J0D01*
G01*
X148983Y310262D02*
G03*
X138648Y306500I-4483J-3762D01*
G01*
X144363Y284016D02*
G03*
X138600Y288852I-5763J-1016D01*
G01*
X125600D02*
G03*
X119837Y284016I0J-5852D01*
G01*
X102500Y289000D02*
X149000D01*
X148513Y314000D02*
X148925D01*
X102500D02*
X148513D01*
X88720Y284000D02*
Y319000D01*
Y284000D02*
X102500D01*
Y319000D02*
X149000D01*
X102500Y284000D02*
Y319000D01*
X125852Y306500D02*
X125852D01*
X125852Y296000D02*
Y306500D01*
X114148Y296000D02*
Y306500D01*
X138648Y296000D02*
Y306500D01*
X125600Y288852D02*
X138600D01*
X148983Y310262D02*
X149000Y319000D01*
X102500Y284000D02*
X119400D01*
X144500D02*
X149000D01*
Y292000D01*
X101000Y319000D02*
X103000D01*
X88720D02*
X101000D01*
D17*
X327400Y318900D02*
Y324100D01*
X313900Y318900D02*
X327400D01*
X313900D02*
Y324100D01*
X327400D01*
X330600Y318900D02*
Y324100D01*
X344100D01*
Y318900D02*
Y324100D01*
X330600Y318900D02*
X344100D01*
X329750Y351900D02*
Y357100D01*
X316250Y351900D02*
X329750D01*
X316250D02*
Y357100D01*
X329750D01*
X201100Y254400D02*
Y259600D01*
X187600Y254400D02*
X201100D01*
X187600D02*
Y259600D01*
X201100D01*
X176500Y251445D02*
X180500D01*
X178500D02*
X180500Y247945D01*
X176500D02*
X180500D01*
X176500D02*
X178500Y251445D01*
X146793Y223400D02*
Y228600D01*
X133293Y223400D02*
X146793D01*
X133293D02*
Y228600D01*
X146793D01*
X195870Y223400D02*
Y228600D01*
X182370Y223400D02*
X195870D01*
X182370D02*
Y228600D01*
X195870D01*
X244946Y223400D02*
Y228600D01*
X231446Y223400D02*
X244946D01*
X231446D02*
Y228600D01*
X244946D01*
X366900Y236250D02*
X372100D01*
Y222750D02*
Y236250D01*
X366900Y222750D02*
X372100D01*
X366900D02*
Y236250D01*
X356900D02*
X362100D01*
Y222750D02*
Y236250D01*
X356900Y222750D02*
X362100D01*
X356900D02*
Y236250D01*
X372326Y214700D02*
Y220000D01*
Y220100D01*
X366926D02*
X372326D01*
X366726D02*
X366926D01*
X366726Y214700D02*
Y220100D01*
X372326Y205900D02*
Y211300D01*
X366726Y205900D02*
X372126D01*
X366726Y206000D02*
Y211300D01*
X372326Y204900D02*
Y205900D01*
X366726Y204900D02*
X372326D01*
X366726D02*
Y205900D01*
X362326Y214700D02*
Y220000D01*
Y220100D01*
X356926D02*
X362326D01*
X356726D02*
X356926D01*
X356726Y214700D02*
Y220100D01*
X362326Y205900D02*
Y211300D01*
X356726Y205900D02*
X362126D01*
X356726Y206000D02*
Y211300D01*
X362326Y204900D02*
Y205900D01*
X356726Y204900D02*
X362326D01*
X356726D02*
Y205900D01*
X299750Y233400D02*
Y238600D01*
X313250D01*
Y233400D02*
Y238600D01*
X299750Y233400D02*
X313250D01*
X343100Y223400D02*
Y228600D01*
X329600Y223400D02*
X343100D01*
X329600D02*
Y228600D01*
X343100D01*
X282600Y233900D02*
Y239100D01*
X296100D01*
Y233900D02*
Y239100D01*
X282600Y233900D02*
X296100D01*
X294023Y223400D02*
Y228600D01*
X280523Y223400D02*
X294023D01*
X280523D02*
Y228600D01*
X294023D01*
X227900Y304900D02*
Y310100D01*
X214400Y304900D02*
X227900D01*
X214400D02*
Y310100D01*
X227900D01*
X213250Y317900D02*
Y323100D01*
X226750D01*
Y317900D02*
Y323100D01*
X213250Y317900D02*
X226750D01*
X152750Y357900D02*
Y363100D01*
X166250D01*
Y357900D02*
Y363100D01*
X152750Y357900D02*
X166250D01*
Y349400D02*
Y354600D01*
X152750Y349400D02*
X166250D01*
X152750D02*
Y354600D01*
X166250D01*
X185600Y312900D02*
Y318100D01*
X199100D01*
Y312900D02*
Y318100D01*
X185600Y312900D02*
X199100D01*
X185600Y327900D02*
Y333100D01*
X199100D01*
Y327900D02*
Y333100D01*
X185600Y327900D02*
X199100D01*
X199400Y335400D02*
Y340600D01*
X185900Y335400D02*
X199400D01*
X185900D02*
Y340600D01*
X199400D01*
D18*
X350555Y247063D02*
Y310055D01*
X256550Y299300D02*
Y301800D01*
Y295300D02*
Y297800D01*
Y301800D02*
X257800D01*
X254800Y295300D02*
X256550D01*
X255300Y299300D02*
X257800D01*
X255300Y298300D02*
Y298800D01*
X257800D01*
Y298300D02*
Y298800D01*
X255300Y298300D02*
X257800D01*
X255300Y297800D02*
X257800D01*
D19*
X247800Y291300D02*
X264800D01*
Y305800D01*
X247800D02*
X264800D01*
X247800Y291300D02*
Y305800D01*
D20*
X108028Y234028D02*
Y274972D01*
X141900Y234028D02*
X148935Y241063D01*
X108028Y274972D02*
X141900D01*
X148972Y267900D01*
X108028Y234028D02*
X141900D01*
X148972Y241100D02*
Y267900D01*
X108028Y322028D02*
Y362972D01*
X141900Y322028D02*
X148935Y329063D01*
X108028Y362972D02*
X141900D01*
X148972Y355900D01*
X108028Y322028D02*
X141900D01*
X148972Y329100D02*
Y355900D01*
M02*
