M48
;Layer_Color=9474304
;FILE_FORMAT=2:5
INCH,LZ
;TYPE=PLATED
T1F00S00C0.01181
T2F00S00C0.02362
T3F00S00C0.03543
T5F00S00C0.12598
%
T01
X03295Y02
X0329Y021
X0315307Y02224
X03165Y0277
X03245Y02845
X0294Y0271
X02865
X02739Y02589
X02815Y02365
X0295Y02315
X0296Y0219
X0286Y0216
X0289732Y02042
X03085Y02225
X0261Y02165
X02595Y02295
X02549Y02752
X0244Y02765
X02475Y02875
X0249Y0299
X02504Y03067
X02613Y03075
X026478Y03072
X02815Y03065
X02824Y03024
X02639Y02869
X0258Y0291
X0221Y02905
X02109Y03026
X01905Y03015
X019507Y0289579
X019Y02752
X0211Y02765
X021Y0263
X02208Y02657
X0208Y02225
X02175Y0212
X01805Y02205
X01715Y0215
X01645Y0217
X0157Y02265
X0164Y02375
X0163Y02585
Y0264
Y0269
Y0274
X0173Y0298
X01551Y02932
X01475Y024
X01385Y02176
X01165Y02115
X0108Y0226
X01065Y02495
X01075Y0259
X01185Y02545
X0121Y0342
X0109Y0336
Y0348
X0155Y0337
X0148Y0369
X01635Y03555
X01795Y034
X0172659Y0332659
X0173Y03295
X0178Y0313
X02045Y0318
X02125Y03135
X0224Y03165
X02265Y03235
X0238Y03245
X023283Y0335875
X0249325Y0337721
X0252012Y0339488
X02555Y03395
X0257Y03365
X0259362Y0333704
X0262Y0331862
X0254638Y033
X0252638Y0327375
X0262811Y03188
X02681
X0269466Y0324034
X02705Y0333135
X0268Y03355
X0274Y03455
X0281Y0347
X02855Y03474
X0289Y03365
X02875Y03275
X0306Y0327
X03033Y03515
X02955Y0356
X0257Y0357
X02205Y03605
X02005Y0338
Y03305
X02765Y03135
X0323Y0336
X0334Y0328
X03615Y03215
T02
X0317878Y0251
X0325752
X0333626
X03415
Y0306118
X0333626
X0325752
X0317878
X0310004
X030213
X0294256
X0286382
Y0251
X0294256
X030213
X0310004
T03
X0163Y0244
Y0254
X026Y0248
X027
X02335Y0311
Y0321
Y0331
Y0341
X0233Y03535
X0243
X0245Y03655
X0235
X0255
X0265
X0275
X0285
X0295
X03075Y03645
X0173Y036
Y035
X03175Y03645
X03275
T05
X0216Y02445
X03605Y03565
M30
